<svg width="31" height="110" viewBox="0 0 31 110" fill="none" xmlns="http://www.w3.org/2000/svg">
<path d="M13.5 107.731C13.5 108.836 14.3954 109.731 15.5 109.731C16.6046 109.731 17.5 108.836 17.5 107.731L13.5 107.731ZM16.9142 0.875282C16.1332 0.0942383 14.8668 0.0942383 14.0858 0.875282L1.35787 13.6032C0.57682 14.3843 0.57682 15.6506 1.35787 16.4316C2.13892 17.2127 3.40525 17.2127 4.1863 16.4316L15.5 5.11793L26.8137 16.4316C27.5948 17.2127 28.8611 17.2127 29.6421 16.4316C30.4232 15.6506 30.4232 14.3843 29.6421 13.6032L16.9142 0.875282ZM17.5 107.731L17.5 2.2895L13.5 2.2895L13.5 107.731L17.5 107.731Z" fill="black"/>
</svg>
