<svg width="68" height="30" viewBox="0 0 68 30" fill="none" xmlns="http://www.w3.org/2000/svg">
<path d="M2 13C0.89543 13 0 13.8954 0 15C0 16.1046 0.89543 17 2 17V13ZM66.9142 16.4142C67.6953 15.6332 67.6953 14.3668 66.9142 13.5858L54.1863 0.857864C53.4052 0.0768156 52.1389 0.0768156 51.3579 0.857864C50.5768 1.63891 50.5768 2.90524 51.3579 3.68629L62.6716 15L51.3579 26.3137C50.5768 27.0948 50.5768 28.3611 51.3579 29.1421C52.1389 29.9232 53.4052 29.9232 54.1863 29.1421L66.9142 16.4142ZM2 17H65.5V13H2V17Z" fill="black"/>
</svg>
