<?xml version="1.0" standalone="no"?>
<!DOCTYPE svg PUBLIC "-//W3C//DTD SVG 1.1//EN" "http://www.w3.org/Graphics/SVG/1.1/DTD/svg11.dtd" >
<svg xmlns="http://www.w3.org/2000/svg" xmlns:xlink="http://www.w3.org/1999/xlink" version="1.1">
<metadata></metadata>
<defs>
<font id="steradianregular" horiz-adv-x="570" >
<font-face units-per-em="1000" ascent="769" descent="-231" />
<missing-glyph horiz-adv-x="251" />
<glyph unicode="&#xfb01;" horiz-adv-x="613" d="M117 0v423h-87v82h87v58q0 89 45.5 139.5t137.5 50.5q34 0 60 -6v-81q-22 5 -45 5q-57 0 -81.5 -27t-24.5 -82v-57h131v-82h-131v-423h-92zM484 729q29 0 47 -18.5t18 -44.5t-18 -44.5t-47 -18.5t-47 18.5t-18 44.5t18 44.5t47 18.5zM438 0v505h92v-505h-92z" />
<glyph unicode="&#xfb02;" horiz-adv-x="613" d="M117 0v423h-87v82h87v58q0 89 45.5 139.5t137.5 50.5q34 0 60 -6v-81q-22 5 -45 5q-57 0 -81.5 -27t-24.5 -82v-57h131v-82h-131v-423h-92zM438 0v741h92v-741h-92z" />
<glyph horiz-adv-x="0" />
<glyph horiz-adv-x="333" />
<glyph horiz-adv-x="0" />
<glyph horiz-adv-x="0" />
<glyph unicode="&#xd;" horiz-adv-x="333" />
<glyph unicode=" "  horiz-adv-x="251" />
<glyph unicode="&#x09;" horiz-adv-x="251" />
<glyph unicode="&#xa0;" horiz-adv-x="251" />
<glyph unicode="!" horiz-adv-x="275" d="M107 219l-18 235v249h97v-249l-18 -235h-61zM137 -12q-30 0 -49.5 20t-19.5 48q0 29 19.5 49t49.5 20q31 0 50.5 -19.5t19.5 -49.5q0 -28 -20 -48t-50 -20z" />
<glyph unicode="&#x22;" horiz-adv-x="353" d="M77 459l-19 219v25h94v-25l-18 -219h-57zM219 459l-19 219v25h94v-25l-18 -219h-57z" />
<glyph unicode="#" horiz-adv-x="651" d="M546 206h-107l-41 -162h-81l41 162h-136l-41 -162h-81l41 162h-107l18 79h108l34 132h-107l19 78h107l41 163h81l-41 -163h136l41 163h81l-41 -163h107l-19 -78h-107l-34 -132h106zM241 285h136l34 132h-136z" />
<glyph unicode="$" horiz-adv-x="552" d="M228 -140v132q-87 15 -138.5 73.5t-55.5 162.5h97q4 -79 45 -117t108 -38q62 0 98 31t36 90q0 25 -8 43t-27 31t-33 19.5t-44 17.5l-80 29q-41 15 -65.5 27t-52.5 33t-41 53t-13 76q0 76 48.5 126.5t125.5 62.5v106l92 21v-128q79 -12 127 -67t55 -150h-98 q-11 137 -134 137q-52 0 -86 -27.5t-34 -75.5q0 -47 24 -67.5t75 -38.5l98 -34q82 -28 125 -68t43 -120q0 -93 -53 -147t-142 -63v-109z" />
<glyph unicode="%" horiz-adv-x="762" d="M203 708q73 0 121 -47.5t48 -115.5q0 -70 -48 -117.5t-121 -47.5t-120.5 47.5t-47.5 117.5q0 69 47.5 116t120.5 47zM688 703l-534 -703h-84l534 703h84zM203 637q-39 0 -65.5 -27t-26.5 -66t26.5 -65.5t65.5 -26.5q40 0 66 26.5t26 65.5t-26 66t-66 27zM559 323 q73 0 120.5 -47.5t47.5 -116.5t-47.5 -116.5t-120.5 -47.5q-74 0 -121 47.5t-47 116.5t47 116.5t121 47.5zM559 252q-40 0 -66 -27.5t-26 -65.5q0 -39 26 -65.5t66 -26.5t65.5 26.5t25.5 65.5q0 38 -25.5 65.5t-65.5 27.5z" />
<glyph unicode="&#x26;" horiz-adv-x="684" d="M650 392l-130 -221l157 -171h-116l-88 96q-79 -108 -214 -108q-92 0 -154.5 54.5t-62.5 135.5q0 139 164 210q-79 90 -79 166q0 68 53 114.5t129 46.5t124.5 -43t48.5 -107q0 -117 -156 -185l135 -145l89 157h100zM216 547q0 -29 15 -54t50 -63q57 28 87 56t30 70 q0 37 -24 60t-64 23q-42 0 -68 -27t-26 -65zM136 185q0 -49 38 -83.5t95 -34.5q91 0 147 91l-164 178q-116 -55 -116 -151z" />
<glyph unicode="'" horiz-adv-x="211" d="M77 459l-19 219v25h94v-25l-18 -219h-57z" />
<glyph unicode="(" horiz-adv-x="299" d="M175 -140q-126 201 -126 476q0 261 126 474h95q-129 -227 -129 -474q0 -268 129 -476h-95z" />
<glyph unicode=")" horiz-adv-x="299" d="M124 -140h-95q129 208 129 476q0 247 -129 474h95q126 -213 126 -474q0 -275 -126 -476z" />
<glyph unicode="*" horiz-adv-x="462" d="M85 396l90 109l-134 37l30 79l126 -53l-10 135h90l-10 -135l126 53l28 -80l-137 -36l91 -110l-68 -49l-76 125l-75 -123z" />
<glyph unicode="+" d="M248 125v188h-188v74h188v188h74v-188h188v-74h-188v-188h-74z" />
<glyph unicode="," horiz-adv-x="250" d="M38 -158l66 149q-23 6 -36 25t-13 40q0 30 19.5 49.5t49.5 19.5t50 -19t20 -48q0 -17 -10 -39l-76 -177h-70z" />
<glyph unicode="-" horiz-adv-x="372" d="M306 311v-88h-240v88h240z" />
<glyph unicode="." horiz-adv-x="243" d="M121 -12q-30 0 -49.5 20t-19.5 48q0 29 19.5 49t49.5 20q31 0 50.5 -19.5t19.5 -49.5q0 -28 -20 -48t-50 -20z" />
<glyph unicode="/" horiz-adv-x="397" d="M363 810l-237 -950h-92l237 950h92z" />
<glyph unicode="0" horiz-adv-x="630" d="M567 460v-216q0 -69 -22.5 -121t-60.5 -80t-80.5 -41.5t-88.5 -13.5t-88.5 13.5t-80.5 41.5t-60.5 80t-22.5 121v216q0 69 22.5 120.5t60.5 79.5t80.5 41.5t88.5 13.5t88.5 -13.5t80.5 -41.5t60.5 -79.5t22.5 -120.5zM471 459q0 83 -44 124t-113 41q-68 0 -111.5 -41.5 t-43.5 -123.5v-215q0 -82 43.5 -123.5t111.5 -41.5q69 0 113 41t44 124v215z" />
<glyph unicode="1" horiz-adv-x="352" d="M163 0v615h-151l23 88h224v-703h-96z" />
<glyph unicode="2" horiz-adv-x="594" d="M52 0v74l288 275q44 42 66 78t22 79q0 52 -36 85t-97 33q-71 0 -109.5 -43t-42.5 -103h-98q5 100 72 168.5t183 68.5q101 0 165 -55.5t64 -146.5q0 -69 -32.5 -120.5t-99.5 -114.5l-201 -190h352v-88h-496z" />
<glyph unicode="3" horiz-adv-x="584" d="M140 200q3 -51 44.5 -87t106.5 -36q64 0 104.5 37.5t40.5 91.5q0 60 -40 94t-105 34h-74v71h77q53 0 87 31.5t34 82.5q0 46 -34.5 77t-92.5 31t-94 -32t-38 -79h-96q3 81 64.5 140t166.5 59q103 0 161 -54.5t58 -127.5q0 -115 -102 -160q125 -44 125 -177 q0 -83 -64.5 -145.5t-176.5 -62.5t-178 62t-71 150h97z" />
<glyph unicode="4" horiz-adv-x="584" d="M311 703h111l-283 -465h249v158l93 22v-180h75v-86h-75v-152h-93v152h-364v73z" />
<glyph unicode="5" horiz-adv-x="571" d="M488 703v-88h-293l-19 -195q56 31 120 31q108 0 170.5 -63t62.5 -166q0 -100 -69.5 -167t-173.5 -67q-103 0 -174.5 62.5t-77.5 158.5h98q5 -56 47 -94.5t103 -38.5q64 0 108 43t44 103q0 64 -41 104.5t-109 40.5q-84 0 -125 -58l-78 9l35 385h372z" />
<glyph unicode="6" horiz-adv-x="576" d="M46 231q0 103 69 204l185 268h112l-185 -257q39 16 90 16q95 0 162 -68t67 -165q0 -100 -73 -170.5t-178 -70.5q-106 0 -177.5 71t-71.5 172zM295 74q66 0 110.5 45.5t44.5 109.5q0 63 -44.5 106t-110.5 43t-110.5 -43t-44.5 -106q0 -64 44.5 -109.5t110.5 -45.5z" />
<glyph unicode="7" horiz-adv-x="518" d="M24 615v88h470v-76l-298 -627h-107l295 615h-360z" />
<glyph unicode="8" horiz-adv-x="589" d="M295 -12q-112 0 -178.5 62t-66.5 149q0 56 30 104.5t85 75.5q-41 26 -63 66.5t-22 85.5q0 76 58.5 130t157.5 54q98 0 156.5 -54t58.5 -130q0 -46 -22.5 -86.5t-63.5 -66.5q54 -27 84 -75t30 -104q0 -87 -66.5 -149t-177.5 -62zM296 413q59 0 93 33t34 78t-34 77.5 t-93 32.5q-60 0 -94 -32.5t-34 -77.5t34 -78t94 -33zM295 72q69 0 109.5 39t40.5 92q0 55 -40.5 93.5t-109.5 38.5t-109.5 -38.5t-40.5 -93.5q0 -53 40.5 -92t109.5 -39z" />
<glyph unicode="9" horiz-adv-x="576" d="M530 472q0 -103 -69 -204l-185 -268h-112l185 257q-39 -16 -90 -16q-95 0 -162 68t-67 165q0 100 73 170.5t178 70.5q106 0 177.5 -71t71.5 -172zM281 629q-66 0 -110.5 -45.5t-44.5 -109.5q0 -63 44.5 -106t110.5 -43t110.5 43t44.5 106q0 64 -44.5 109.5t-110.5 45.5z " />
<glyph unicode=":" horiz-adv-x="271" d="M135 380q-30 0 -49.5 20t-19.5 48q0 29 19.5 49t49.5 20q31 0 50.5 -19.5t19.5 -49.5q0 -28 -20 -48t-50 -20zM135 -12q-30 0 -49.5 20t-19.5 48q0 29 19.5 49t49.5 20q31 0 50.5 -19.5t19.5 -49.5q0 -28 -20 -48t-50 -20z" />
<glyph unicode=";" horiz-adv-x="284" d="M144 380q-30 0 -49.5 20t-19.5 48q0 29 19.5 49t49.5 20t50 -19.5t20 -49.5q0 -28 -20 -48t-50 -20zM58 -158l66 149q-23 6 -36 25t-13 40q0 30 19.5 49.5t49.5 19.5t50 -19t20 -48q0 -17 -10 -39l-76 -177h-70z" />
<glyph unicode="&#x3c;" d="M75 386l399 199v-89l-299 -147l299 -148v-89l-399 199v75z" />
<glyph unicode="=" d="M60 491h450v-74h-450v74zM60 283h450v-74h-450v74z" />
<glyph unicode="&#x3e;" d="M495 312l-399 -199v89l299 147l-299 148v89l399 -199v-75z" />
<glyph unicode="?" horiz-adv-x="539" d="M203 219v42l112 100q77 70 77 159q0 49 -34 79.5t-90 30.5q-62 0 -100 -36t-41 -98h-95q5 100 70 159.5t171 59.5q95 0 156.5 -51.5t61.5 -137.5q0 -119 -106 -218l-96 -89h-86zM247 -12q-30 0 -49.5 20t-19.5 48q0 29 19.5 49t49.5 20q31 0 50.5 -19.5t19.5 -49.5 q0 -28 -20 -48t-50 -20z" />
<glyph unicode="@" horiz-adv-x="914" d="M248 241q0 89 56 148.5t135 59.5q88 0 125 -68l14 60h86l-50 -212q-24 -102 63 -102q50 0 81 50.5t31 129.5q0 131 -95 214.5t-236 83.5q-65 0 -125 -22t-107.5 -63t-76 -106t-28.5 -144q0 -65 20 -120t53.5 -92t77.5 -63t91.5 -37.5t96.5 -11.5q81 0 135 22v-70 q-59 -22 -135 -22q-78 0 -150.5 25t-132.5 72.5t-96.5 124.5t-36.5 172t35 173t93.5 128t132.5 77t153 27q170 0 289 -103.5t119 -263.5q0 -109 -52.5 -179.5t-151.5 -70.5q-22 0 -46 6t-50.5 27.5t-33.5 55.5q-50 -66 -132 -66q-64 0 -108 43t-44 117zM421 148 q54 0 85.5 44t31.5 103q0 35 -23.5 60t-65.5 25q-46 0 -77.5 -39.5t-31.5 -94.5q0 -47 21.5 -72.5t59.5 -25.5z" />
<glyph unicode="A" horiz-adv-x="676" d="M389 703l268 -703h-103l-63 172h-312l-63 -172h-98l269 703h102zM335 594l-126 -341h252z" />
<glyph unicode="B" horiz-adv-x="668" d="M93 0v703h259q101 0 167.5 -46t66.5 -130q0 -114 -113 -162q71 -18 110.5 -63.5t39.5 -109.5q0 -92 -68 -142t-168 -50h-294zM342 624h-153v-229h157q61 0 101.5 30.5t40.5 87.5q0 53 -41 82t-105 29zM375 318h-186v-239h186q64 0 106.5 31.5t42.5 91.5q0 56 -42.5 86 t-106.5 30z" />
<glyph unicode="C" horiz-adv-x="802" d="M765 276q-25 -125 -122.5 -206.5t-233.5 -81.5q-156 0 -259.5 106t-103.5 258q0 151 103.5 257t259.5 106q133 0 229.5 -77.5t124.5 -199.5h-103q-27 83 -94.5 134.5t-157.5 51.5q-111 0 -186.5 -79.5t-75.5 -192.5q0 -114 75 -193.5t187 -79.5q94 0 163.5 55t93.5 142 h100z" />
<glyph unicode="D" horiz-adv-x="763" d="M93 0v703h245q102 0 185.5 -37.5t137.5 -118.5t54 -193q0 -114 -54 -196t-137.5 -120t-185.5 -38h-245zM189 91h146q121 0 200.5 68t79.5 195q0 124 -79.5 191t-200.5 67h-146v-521z" />
<glyph unicode="E" horiz-adv-x="582" d="M93 0v703h429v-88h-333v-215h309v-84h-309v-228h338v-88h-434z" />
<glyph unicode="F" horiz-adv-x="557" d="M93 0v703h429v-88h-333v-226h309v-86h-309v-303h-96z" />
<glyph unicode="G" horiz-adv-x="810" d="M747 0h-80v125q-86 -137 -269 -137q-152 0 -251.5 106t-99.5 258q0 151 103 257t257 106q123 0 215 -68.5t126 -178.5h-105q-30 72 -93.5 114t-142.5 42q-112 0 -186 -79.5t-74 -192.5q0 -116 74 -196t188 -80q96 0 165 49t86 149h-257v79h344v-353z" />
<glyph unicode="H" horiz-adv-x="711" d="M93 0v703h96v-297h334v297h95v-703h-95v315h-334v-315h-96z" />
<glyph unicode="I" horiz-adv-x="282" d="M93 0v703h96v-703h-96z" />
<glyph unicode="J" horiz-adv-x="578" d="M492 703v-482q0 -104 -67 -168.5t-169 -64.5q-101 0 -167.5 65t-66.5 169h96q0 -65 37.5 -104.5t100.5 -39.5q64 0 102 40.5t38 104.5v480h96z" />
<glyph unicode="K" horiz-adv-x="600" d="M189 703v-327l290 327h115l-305 -342l309 -361h-124l-285 335v-335h-96v703h96z" />
<glyph unicode="L" horiz-adv-x="525" d="M93 0v703h96v-615h319v-88h-415z" />
<glyph unicode="M" horiz-adv-x="925" d="M93 0v703h116l255 -545l256 545h112v-703h-93v539l-257 -540h-39l-257 545v-544h-93z" />
<glyph unicode="N" horiz-adv-x="713" d="M93 0v703h92l344 -544v544h91v-703h-93l-343 543v-543h-91z" />
<glyph unicode="O" horiz-adv-x="829" d="M414 715q158 0 263.5 -106t105.5 -257q0 -152 -105 -258t-264 -106q-158 0 -263 106t-105 258q0 151 105 257t263 106zM414 624q-115 0 -191.5 -79.5t-76.5 -192.5q0 -115 76.5 -194t191.5 -79t192 79t77 194q0 113 -77 192.5t-192 79.5z" />
<glyph unicode="P" horiz-adv-x="640" d="M93 0v703h251q112 0 189.5 -57.5t77.5 -163.5q0 -109 -77 -169t-190 -60h-155v-253h-96zM189 618v-280h150q73 0 122.5 37t49.5 106q0 66 -49.5 101.5t-122.5 35.5h-150z" />
<glyph unicode="Q" horiz-adv-x="830" d="M414 715q158 0 263.5 -106t105.5 -257q0 -82 -33.5 -154.5t-93.5 -123.5l119 -154h-106l-84 107q-78 -39 -171 -39q-158 0 -263 106t-105 258q0 151 105 257t263 106zM334 351h106l158 -203q85 79 85 204q0 113 -77 192.5t-192 79.5t-191.5 -79.5t-76.5 -192.5 q0 -115 76.5 -194.5t191.5 -79.5q62 0 114 23z" />
<glyph unicode="R" horiz-adv-x="665" d="M93 0v703h252q109 0 185 -54.5t76 -154.5q0 -92 -61 -147.5t-154 -67.5l248 -279h-123l-242 276h-85v-276h-96zM189 619v-264h151q70 0 118 35.5t48 100.5q0 62 -47.5 95t-118.5 33h-151z" />
<glyph unicode="S" horiz-adv-x="608" d="M546 494h-98q-6 70 -46 103.5t-105 33.5q-59 0 -98 -27.5t-39 -75.5t27 -70t83 -38l101 -29q90 -26 139 -67.5t49 -123.5q0 -102 -68 -157t-178 -55q-119 0 -192 59.5t-77 180.5h97q4 -79 50 -117t120 -38q70 0 110.5 31t40.5 90q0 26 -10 45t-30.5 32t-40 20.5 t-51.5 16.5l-83 24q-42 12 -70 24.5t-56.5 34t-42.5 54.5t-14 78q0 87 67 139.5t167 52.5q108 0 174.5 -56t73.5 -165z" />
<glyph unicode="T" horiz-adv-x="540" d="M222 0v615h-206v88h508v-88h-207v-615h-95z" />
<glyph unicode="U" horiz-adv-x="688" d="M602 703v-471q0 -109 -74 -176.5t-185 -67.5q-110 0 -183.5 68t-73.5 176v471h96v-468q0 -69 44.5 -112.5t114.5 -43.5q74 0 119.5 43.5t45.5 112.5v468h96z" />
<glyph unicode="V" horiz-adv-x="647" d="M272 0l-249 703h107l195 -575l198 575h101l-250 -703h-102z" />
<glyph unicode="W" horiz-adv-x="990" d="M231 0l-206 703h103l159 -568l167 568h89l164 -562l160 562h99l-207 -703h-102l-161 535l-163 -535h-102z" />
<glyph unicode="X" horiz-adv-x="652" d="M7 0l260 356l-251 347h112l197 -275l201 275h108l-251 -345l264 -358h-114l-209 284l-208 -284h-109z" />
<glyph unicode="Y" horiz-adv-x="632" d="M269 0v256l-244 447h107l186 -349l189 349h100l-242 -441v-262h-96z" />
<glyph unicode="Z" horiz-adv-x="576" d="M40 0v78l375 537h-370v88h486v-82l-374 -533h379v-88h-496z" />
<glyph unicode="[" horiz-adv-x="348" d="M321 725h-138v-780h138v-85h-230v950h230v-85z" />
<glyph unicode="\" horiz-adv-x="397" d="M34 810h92l237 -950h-92z" />
<glyph unicode="]" horiz-adv-x="348" d="M27 725v85h230v-950h-230v85h138v780h-138z" />
<glyph unicode="^" d="M330 703l180 -419h-97l-128 304l-128 -304h-97l181 419h89z" />
<glyph unicode="_" horiz-adv-x="440" d="M441 -132v-80h-442v80h442z" />
<glyph unicode="`" horiz-adv-x="261" d="M213 572h-87l-82 145h89z" />
<glyph unicode="a" horiz-adv-x="550" d="M388 72q-59 -84 -169 -84q-74 0 -121.5 40t-47.5 103q0 123 163 161l172 40v7q0 45 -31 72.5t-84 27.5q-49 0 -81.5 -26.5t-38.5 -66.5h-88q7 72 65 121.5t144 49.5q98 0 151 -52t53 -137v-328h-87v72zM385 220v37l-149 -35q-95 -22 -95 -83q0 -36 25 -55.5t70 -19.5 q64 0 106.5 47t42.5 109z" />
<glyph unicode="b" horiz-adv-x="662" d="M81 0v741h92v-318q71 94 193 94q110 0 182 -75.5t72 -187.5q0 -114 -73 -190t-184 -76q-123 0 -194 99v-87h-88zM347 433q-76 0 -126.5 -52.5t-50.5 -127.5q0 -76 50.5 -128.5t126.5 -52.5q77 0 127.5 53t50.5 128t-50.5 127.5t-127.5 52.5z" />
<glyph unicode="c" horiz-adv-x="605" d="M567 310h-92q-17 54 -61.5 88t-103.5 34q-76 0 -126.5 -52t-50.5 -127q0 -76 50.5 -128t126.5 -52q60 0 105.5 35.5t61.5 90.5h91q-19 -92 -89.5 -151.5t-168.5 -59.5q-116 0 -192.5 77t-76.5 188q0 110 76.5 187t192.5 77q97 0 168 -58.5t89 -148.5z" />
<glyph unicode="d" horiz-adv-x="662" d="M296 -12q-110 0 -182 75.5t-72 187.5q0 114 73 190t184 76q120 0 190 -93v317h92v-741h-87v89q-71 -101 -198 -101zM315 72q76 0 126.5 52.5t50.5 127.5q0 76 -50.5 128.5t-126.5 52.5q-77 0 -127.5 -53t-50.5 -128t50.5 -127.5t127.5 -52.5z" />
<glyph unicode="e" horiz-adv-x="607" d="M462 159h91q-26 -78 -92 -124.5t-156 -46.5q-113 0 -188.5 77t-75.5 188q0 110 76.5 187t188.5 77q113 0 186.5 -74.5t73.5 -183.5v-32h-434q8 -70 56 -115t118 -45q53 0 94 24.5t62 67.5zM306 438q-63 0 -108.5 -37.5t-60.5 -97.5h336q-15 64 -60.5 99.5t-106.5 35.5z " />
<glyph unicode="f" horiz-adv-x="355" d="M117 0v423h-87v82h87v58q0 89 45.5 139.5t137.5 50.5q33 0 65 -7v-81q-28 6 -50 6q-57 0 -81.5 -27t-24.5 -82v-57h131v-82h-131v-423h-92z" />
<glyph unicode="g" horiz-adv-x="630" d="M138 -24q1 -56 46 -90.5t115 -34.5q71 0 115 41t44 107v109q-64 -84 -176 -84q-102 0 -170 70.5t-68 175.5t68.5 176t172.5 71q113 0 178 -89v77h87v-497q0 -103 -67.5 -168.5t-183.5 -65.5q-107 0 -178.5 57t-73.5 145h91zM299 105q69 0 115.5 48t46.5 117t-46.5 117 t-115.5 48q-70 0 -115.5 -48t-45.5 -117t45.5 -117t115.5 -48z" />
<glyph unicode="h" horiz-adv-x="599" d="M81 0v741h92v-302q57 78 157 78q89 0 141.5 -55t52.5 -143v-319h-92v305q0 57 -32 92.5t-93 35.5q-62 0 -98 -42.5t-36 -101.5v-289h-92z" />
<glyph unicode="i" horiz-adv-x="258" d="M129 729q29 0 47 -18.5t18 -44.5t-18 -44.5t-47 -18.5t-47 18.5t-18 44.5t18 44.5t47 18.5zM83 0v505h92v-505h-92z" />
<glyph unicode="j" horiz-adv-x="264" d="M135 729q29 0 47 -18.5t18 -44.5t-18 -44.5t-47 -18.5t-47 18.5t-18 44.5t18 44.5t47 18.5zM181 505v-541q0 -190 -183 -190q-15 0 -35 2v81q14 -1 19 -1q57 0 82 27.5t25 81.5v540h92z" />
<glyph unicode="k" horiz-adv-x="514" d="M81 0v741h92v-451l200 215h112l-215 -227l251 -278h-120l-228 255v-255h-92z" />
<glyph unicode="l" horiz-adv-x="258" d="M83 0v741h92v-741h-92z" />
<glyph unicode="m" horiz-adv-x="932" d="M81 0v505h88v-72q55 84 156 84q120 0 169 -99q26 47 71 73t101 26q87 0 139 -55t52 -143v-319h-92v305q0 57 -31.5 92.5t-89.5 35.5q-60 0 -94.5 -42.5t-34.5 -101.5v-289h-92v305q0 57 -31.5 92.5t-89.5 35.5q-60 0 -94.5 -42.5t-34.5 -101.5v-289h-92z" />
<glyph unicode="n" horiz-adv-x="599" d="M81 0v505h88v-71q57 83 161 83q89 0 141.5 -55t52.5 -143v-319h-92v298q0 62 -31.5 98.5t-93.5 36.5t-98 -42.5t-36 -101.5v-289h-92z" />
<glyph unicode="o" horiz-adv-x="620" d="M310 517q116 0 192.5 -77t76.5 -187q0 -111 -76.5 -188t-192.5 -77t-192.5 77t-76.5 188q0 110 76.5 187t192.5 77zM310 432q-76 0 -127 -52t-51 -127q0 -76 51 -128t127 -52t127 52t51 128q0 75 -51 127t-127 52z" />
<glyph unicode="p" horiz-adv-x="662" d="M81 505h88v-87q71 99 197 99q110 0 182 -75.5t72 -187.5q0 -114 -73 -190t-184 -76q-120 0 -190 93v-293h-92v717zM347 433q-76 0 -126.5 -52.5t-50.5 -127.5q0 -76 50.5 -128.5t126.5 -52.5q77 0 127.5 53t50.5 128t-50.5 127.5t-127.5 52.5z" />
<glyph unicode="q" horiz-adv-x="662" d="M296 -12q-110 0 -182 75.5t-72 187.5q0 114 73 190t184 76q125 0 195 -100v88h87v-717h-92v294q-71 -94 -193 -94zM315 72q76 0 126.5 52.5t50.5 127.5q0 76 -50.5 128.5t-126.5 52.5q-77 0 -127.5 -53t-50.5 -128t50.5 -127.5t127.5 -52.5z" />
<glyph unicode="r" horiz-adv-x="380" d="M173 265v-265h-92v505h88v-94q53 101 162 101q14 0 26 -2v-87q-16 2 -28 2q-75 0 -115.5 -46.5t-40.5 -113.5z" />
<glyph unicode="s" horiz-adv-x="497" d="M444 359h-94q-1 84 -103 84q-42 0 -70.5 -17.5t-28.5 -47.5q0 -32 22.5 -46t71.5 -25l61 -14q73 -17 112 -48.5t39 -95.5q0 -77 -55.5 -119t-143.5 -42q-97 0 -155.5 43t-62.5 131h96q1 -51 33.5 -75.5t85.5 -24.5q49 0 79 20t30 58q0 32 -21.5 48t-62.5 25l-74 17 q-70 16 -108.5 46.5t-38.5 94.5q0 68 55 107t137 39q86 0 139 -40t57 -118z" />
<glyph unicode="t" horiz-adv-x="378" d="M108 662l92 22v-179h132v-82h-132v-260q0 -49 17.5 -71.5t64.5 -22.5q36 0 74 25v-82q-42 -24 -93 -24q-155 0 -155 169v266h-85v82h85v157z" />
<glyph unicode="u" horiz-adv-x="590" d="M417 216v289h92v-505h-88v72q-55 -84 -156 -84q-87 0 -138.5 55t-51.5 143v319h92v-298q0 -60 31 -97.5t89 -37.5q61 0 95.5 42.5t34.5 101.5z" />
<glyph unicode="v" horiz-adv-x="531" d="M214 0l-193 505h97l149 -398l148 398h95l-193 -505h-103z" />
<glyph unicode="w" horiz-adv-x="850" d="M197 0l-177 505h92l135 -396l135 396h88l136 -397l135 397h89l-177 -505h-92l-136 388l-135 -388h-93z" />
<glyph unicode="x" horiz-adv-x="506" d="M12 0l187 256l-179 249h104l132 -184l132 184h98l-180 -248l189 -257h-106l-139 191l-139 -191h-99z" />
<glyph unicode="y" horiz-adv-x="530" d="M509 505l-273 -717h-92l76 205l-200 512h97l149 -397l148 397h95z" />
<glyph unicode="z" horiz-adv-x="500" d="M33 0v62l309 361h-295v82h408v-66l-300 -357h312v-82h-434z" />
<glyph unicode="{" horiz-adv-x="345" d="M207 239v-195q0 -109 77 -109q14 0 32 2v-85q-20 -2 -35 -2q-166 0 -166 184v200q0 46 -15.5 67t-51.5 21h-17v77h17q36 0 51.5 21t15.5 66v150q0 184 166 184q15 0 35 -2v-85q-18 2 -32 2q-77 0 -77 -109v-145q0 -97 -60 -120q60 -24 60 -122z" />
<glyph unicode="|" horiz-adv-x="274" d="M183 810v-950h-92v950h92z" />
<glyph unicode="}" horiz-adv-x="345" d="M138 239q0 98 60 122q-60 23 -60 120v145q0 109 -77 109q-14 0 -32 -2v85q20 2 35 2q166 0 166 -184v-150q0 -45 15.5 -66t51.5 -21h17v-77h-17q-36 0 -51.5 -21t-15.5 -67v-200q0 -184 -166 -184q-15 0 -35 2v85q18 -2 32 -2q77 0 77 109v195z" />
<glyph unicode="~" d="M187 445q50 0 114.5 -30.5t98.5 -30.5q30 0 54 12.5t35.5 25.5t27.5 36v-92q-42 -68 -124 -68q-48 0 -107.5 30.5t-102.5 30.5q-77 0 -126 -77v90q14 24 48 48.5t82 24.5z" />
<glyph unicode="&#xa1;" horiz-adv-x="261" d="M130 517q30 0 50 -20t20 -48q0 -29 -20 -49t-50 -20t-49.5 20t-19.5 49q0 28 19.5 48t49.5 20zM100 286h61l18 -235v-249h-97v249z" />
<glyph unicode="&#xa2;" horiz-adv-x="606" d="M264 -29v128q-97 16 -158 89.5t-61 171.5q0 97 61 170.5t158 89.5v109l92 21v-129q83 -13 141 -69t74 -135h-92q-17 54 -61.5 88t-103.5 34q-76 0 -126.5 -52t-50.5 -127q0 -76 50.5 -128t126.5 -52q60 0 105.5 35.5t61.5 90.5h91q-17 -81 -75 -138t-141 -70v-105z" />
<glyph unicode="&#xa3;" horiz-adv-x="671" d="M51 0v76q43 9 75 53.5t32 107.5q0 15 -2 45h-105v78h94q-14 80 -14 110q0 67 22 116.5t58.5 76.5t77.5 39.5t86 12.5t86.5 -12.5t78 -39.5t58.5 -77t22 -117h-95q0 77 -41.5 116t-106.5 39t-107.5 -39t-42.5 -118q0 -27 14 -107h183v-78h-172q2 -24 2 -35 q0 -102 -57 -159h423v-88h-569z" />
<glyph unicode="&#xa4;" horiz-adv-x="642" d="M53 83l110 150q-36 52 -36 113q0 63 38 114l-112 152h99l72 -98q46 27 98 27q51 0 97 -27l71 98h99l-111 -151q37 -53 37 -115q0 -63 -36 -113l110 -150h-99l-70 96q-46 -27 -98 -27t-100 27l-70 -96h-99zM437 346q0 49 -33 82.5t-82 33.5t-82.5 -33.5t-33.5 -82.5 q0 -50 33 -83t83 -33q49 0 82 33.5t33 82.5z" />
<glyph unicode="&#xa5;" horiz-adv-x="639" d="M272 0v138h-177v75h177v43l-9 17h-168v75h127l-194 355h107l186 -349l189 349h100l-195 -355h130v-75h-171l-6 -11v-49h177v-75h-177v-138h-96z" />
<glyph unicode="&#xa6;" horiz-adv-x="280" d="M186 810v-400h-92v400h92zM94 260h92v-400h-92v400z" />
<glyph unicode="&#xa7;" horiz-adv-x="573" d="M472 248h-99l-122 51q-48 20 -78 36t-62 41.5t-47.5 60t-15.5 79.5q0 91 65.5 145t165.5 54q109 0 176.5 -58t72.5 -162h-95q-4 68 -44.5 102.5t-106.5 34.5q-61 0 -99 -31.5t-38 -86.5q0 -29 11 -51.5t38.5 -41t50.5 -30t70 -31.5l157 -67v-45zM101 241h99l122 -51 q48 -20 78 -36t62 -41.5t47.5 -60t15.5 -79.5q0 -92 -65 -145.5t-164 -53.5q-110 0 -178 58t-73 162h95q4 -68 44.5 -102.5t106.5 -34.5q61 0 99 31.5t38 86.5q0 24 -9 43.5t-21 33t-38.5 28.5t-44.5 23.5t-57 25.5l-157 67v45z" />
<glyph unicode="&#xa8;" horiz-adv-x="338" d="M97 586q-23 0 -38 15t-15 38t15 38t38 15q22 0 37 -15t15 -38t-15 -38t-37 -15zM242 586q-22 0 -37.5 15t-15.5 38t15.5 38t37.5 15t37.5 -15.5t15.5 -37.5t-15.5 -37.5t-37.5 -15.5z" />
<glyph unicode="&#xa9;" horiz-adv-x="818" d="M409 715q150 0 256.5 -106.5t106.5 -257.5q0 -149 -106.5 -256t-256.5 -107t-256.5 107t-106.5 256q0 151 106.5 257.5t256.5 106.5zM409 655q-124 0 -213 -89.5t-89 -214.5t89 -214t213 -89t213 89t89 214t-89 214.5t-213 89.5zM606 389h-94q-11 33 -38 53.5t-64 20.5 q-47 0 -78 -32.5t-31 -79.5t31 -79.5t78 -32.5q38 0 65.5 21t36.5 54h94q-12 -71 -65.5 -116.5t-130.5 -45.5q-89 0 -145.5 57.5t-56.5 141.5q0 83 57 140.5t145 57.5q77 0 130 -45t66 -115z" />
<glyph unicode="&#xaa;" horiz-adv-x="369" d="M232 486q-25 -37 -76 -37q-37 0 -61 20t-24 53q0 63 88 82l70 16v3q0 16 -11.5 26t-31.5 10t-32 -10t-14 -26h-65q2 39 33.5 66t78.5 27q53 0 80.5 -27.5t27.5 -71.5v-161h-63v30zM229 560v11l-56 -13q-34 -8 -34 -30q0 -25 32 -25q24 0 41 18t17 39zM295 385v-65h-219 v65h219z" />
<glyph unicode="&#xab;" horiz-adv-x="457" d="M46 254l109 220h90l-109 -220l109 -219h-90zM208 254l109 220h90l-109 -220l109 -219h-90z" />
<glyph unicode="&#xac;" d="M55 391h451v-266h-74v192h-377v74z" />
<glyph unicode="&#xad;" horiz-adv-x="368" d="M304 366v-88h-240v88h240z" />
<glyph unicode="&#xae;" horiz-adv-x="602" d="M54 468q0 104 72 175.5t175 71.5t175 -71.5t72 -175.5q0 -103 -72 -174.5t-175 -71.5t-175 71.5t-72 174.5zM111 468q0 -80 55.5 -135t134.5 -55t134.5 55t55.5 135t-55 135.5t-135 55.5t-135 -55.5t-55 -135.5zM205 354v232h113q37 0 63.5 -21.5t26.5 -56.5 q0 -51 -50 -75l61 -79h-72l-54 70h-26v-70h-62zM267 532v-59h44q15 0 24 8.5t9 21.5t-9 21t-24 8h-44z" />
<glyph unicode="&#xaf;" horiz-adv-x="356" d="M44 601v63h269v-63h-269z" />
<glyph unicode="&#xb0;" horiz-adv-x="379" d="M190 425q-60 0 -103 42.5t-43 102.5t43 102.5t103 42.5q61 0 103 -42.5t42 -102.5t-42 -102.5t-103 -42.5zM190 487q34 0 58 24t24 59t-24 59t-58 24t-58.5 -24.5t-24.5 -58.5t24.5 -58.5t58.5 -24.5z" />
<glyph unicode="&#xb1;" d="M248 164v169h-188v73h188v169h74v-169h188v-73h-188v-169h-74zM59 79h451v-74h-451v74z" />
<glyph unicode="&#xb2;" horiz-adv-x="324" d="M37 492v59l134 124q36 34 36 62q0 19 -13.5 31t-35.5 12q-24 0 -37.5 -15t-14.5 -35h-75q3 50 37 85t93 35q54 0 88 -29t34 -78q0 -35 -17 -61.5t-52 -57.5l-68 -62h146v-70h-255z" />
<glyph unicode="&#xb3;" horiz-adv-x="320" d="M101 594q2 -20 17.5 -33.5t39.5 -13.5q26 0 41 14t15 36q0 52 -61 52h-30v53h28q25 0 39 12t14 32q0 19 -12 31t-33 12q-22 0 -35.5 -12.5t-15.5 -32.5h-73q2 44 36 75t92 31q55 0 84.5 -28t29.5 -65q0 -55 -47 -79q57 -23 57 -86q0 -42 -33.5 -74t-95.5 -32 q-60 0 -93.5 31.5t-35.5 76.5h72z" />
<glyph unicode="&#xb4;" horiz-adv-x="261" d="M47 572l81 145h89l-82 -145h-88z" />
<glyph unicode="&#xb5;" horiz-adv-x="606" d="M428 216v289h92v-505h-88v72q-55 -84 -156 -84q-58 0 -98 24v-224h-92v717h92v-298q0 -60 31 -97.5t89 -37.5q61 0 95.5 42.5t34.5 101.5z" />
<glyph unicode="&#xb6;" horiz-adv-x="627" d="M349 -140h-76v419h-8q-99 0 -166.5 56.5t-67.5 159.5q0 99 68 153.5t166 54.5h84v-843zM450 -140v843h76v-843h-76z" />
<glyph unicode="&#xb7;" horiz-adv-x="257" d="M128 292q-30 0 -49.5 20t-19.5 48q0 29 19.5 49t49.5 20t50 -19.5t20 -49.5q0 -28 -20 -48t-50 -20z" />
<glyph unicode="&#xb8;" horiz-adv-x="425" d="M133 20h69l-44 -72h3q48 0 78 -28.5t30 -73.5q0 -44 -32.5 -73t-80.5 -29q-49 0 -79.5 26.5t-33.5 69.5h70q1 -16 13.5 -26t29.5 -10q18 0 30.5 12t12.5 30q0 19 -12 31t-31 12q-25 0 -43 -20l-55 29z" />
<glyph unicode="&#xb9;" horiz-adv-x="211" d="M86 492v282h-71l17 70h127v-352h-73z" />
<glyph unicode="&#xba;" horiz-adv-x="409" d="M204 716q58 0 96.5 -38.5t38.5 -92.5q0 -57 -38.5 -96.5t-96.5 -39.5q-57 0 -95.5 39.5t-38.5 96.5q0 54 39 92.5t95 38.5zM205 650q-28 0 -46.5 -19.5t-18.5 -47.5q0 -29 18.5 -48.5t46.5 -19.5q30 0 47.5 19.5t17.5 48.5q0 28 -17.5 47.5t-47.5 19.5zM335 385v-65h-260 v65h260z" />
<glyph unicode="&#xbb;" horiz-adv-x="457" d="M411 254l-109 -219h-90l109 219l-109 220h90zM249 254l-109 -219h-90l109 219l-109 220h90z" />
<glyph unicode="&#xbc;" horiz-adv-x="688" d="M131 351v282h-71l17 70h127v-352h-73zM649 703l-534 -703h-84l534 703h84zM491 352h84l-134 -221h91v62l72 16v-78h28v-67h-28v-64h-72v64h-176v59z" />
<glyph unicode="&#xbd;" horiz-adv-x="722" d="M131 351v282h-71l17 70h127v-352h-73zM649 703l-534 -703h-84l534 703h84zM417 0v59l134 124q36 34 36 62q0 19 -13.5 31t-35.5 12q-24 0 -37.5 -15t-14.5 -35h-75q3 50 37 85t93 35q54 0 88 -29t34 -78q0 -35 -17 -61.5t-52 -57.5l-68 -62h146v-70h-255z" />
<glyph unicode="&#xbe;" horiz-adv-x="715" d="M116 453q2 -20 17.5 -33.5t39.5 -13.5q26 0 41 14t15 36q0 52 -61 52h-30v53h28q25 0 39 12t14 32q0 19 -12 31t-33 12q-22 0 -35.5 -12.5t-15.5 -32.5h-73q2 44 36 75t92 31q55 0 84.5 -28t29.5 -65q0 -56 -47 -79q57 -23 57 -86q0 -42 -33.5 -74t-95.5 -32 q-60 0 -93.5 31.5t-35.5 76.5h72zM681 703l-534 -703h-84l534 703h84zM523 352h84l-134 -221h91v62l72 16v-78h28v-67h-28v-64h-72v64h-176v59z" />
<glyph unicode="&#xbf;" horiz-adv-x="528" d="M284 517q30 0 49.5 -20t19.5 -48q0 -29 -19.5 -49t-49.5 -20t-50 20t-20 49q0 28 20 48t50 20zM328 286v-42l-112 -100q-77 -70 -77 -159q0 -49 34 -79.5t90 -30.5q62 0 100 36t41 98h95q-5 -100 -70 -159.5t-171 -59.5q-95 0 -156.5 51.5t-61.5 137.5q0 119 106 218 l96 89h86z" />
<glyph unicode="&#xc0;" horiz-adv-x="676" d="M381 765h-87l-82 145h89zM389 703l268 -703h-103l-63 172h-312l-63 -172h-98l269 703h102zM335 594l-126 -341h252z" />
<glyph unicode="&#xc1;" horiz-adv-x="676" d="M294 765l81 145h89l-82 -145h-88zM389 703l268 -703h-103l-63 172h-312l-63 -172h-98l269 703h102zM335 594l-126 -341h252z" />
<glyph unicode="&#xc2;" horiz-adv-x="676" d="M296 910h82l117 -145h-82l-75 93l-77 -93h-81zM389 703l268 -703h-103l-63 172h-312l-63 -172h-98l269 703h102zM335 594l-126 -341h252z" />
<glyph unicode="&#xc3;" horiz-adv-x="676" d="M400 834q14 0 20.5 12t10.5 43h62q-10 -120 -93 -120q-29 0 -49.5 15t-35 30t-29.5 15q-33 0 -41 -59h-62q8 124 104 124q27 0 49.5 -15t37.5 -30t26 -15zM389 703l268 -703h-103l-63 172h-312l-63 -172h-98l269 703h102zM335 594l-126 -341h252z" />
<glyph unicode="&#xc4;" horiz-adv-x="676" d="M266 777q-22 0 -37.5 15.5t-15.5 37.5t15.5 37.5t37.5 15.5t37 -15t15 -38t-15 -38t-37 -15zM411 777q-23 0 -38 15.5t-15 37.5t15 37.5t38 15.5q22 0 37.5 -15.5t15.5 -37.5t-15.5 -37.5t-37.5 -15.5zM389 703l268 -703h-103l-63 172h-312l-63 -172h-98l269 703h102z M335 594l-126 -341h252z" />
<glyph unicode="&#xc5;" horiz-adv-x="676" d="M338 756q-42 0 -71.5 28t-29.5 70q0 40 29.5 68.5t71.5 28.5q41 0 71 -28.5t30 -68.5q0 -42 -29.5 -70t-71.5 -28zM338 807q19 0 32.5 14t13.5 33t-13.5 32.5t-32.5 13.5t-32 -13.5t-13 -32.5q0 -20 13 -33.5t32 -13.5zM389 703l268 -703h-103l-63 172h-312l-63 -172h-98 l269 703h102zM335 594l-126 -341h252z" />
<glyph unicode="&#xc6;" horiz-adv-x="932" d="M443 0v172h-260l-104 -172h-100l421 703h472v-88h-333v-215h309v-84h-309v-228h338v-88h-434zM232 253h211v350z" />
<glyph unicode="&#xc7;" horiz-adv-x="802" d="M765 276q-24 -118 -112.5 -197.5t-213.5 -89.5l-25 -41h3q48 0 78 -28.5t30 -73.5q0 -44 -32.5 -73t-80.5 -29q-49 0 -79.5 26.5t-33.5 69.5h70q1 -16 13.5 -26t29.5 -10q18 0 30.5 12t12.5 30q0 19 -12 31t-31 12q-25 0 -43 -20l-55 29l56 92q-141 14 -232.5 117 t-91.5 245q0 151 103.5 257t259.5 106q133 0 229.5 -77.5t124.5 -199.5h-103q-27 83 -94.5 134.5t-157.5 51.5q-111 0 -186.5 -79.5t-75.5 -192.5q0 -114 75 -193.5t187 -79.5q94 0 163.5 55t93.5 142h100z" />
<glyph unicode="&#xc8;" horiz-adv-x="582" d="M352 765h-87l-82 145h89zM93 0v703h429v-88h-333v-215h309v-84h-309v-228h338v-88h-434z" />
<glyph unicode="&#xc9;" horiz-adv-x="582" d="M265 765l81 145h89l-82 -145h-88zM93 0v703h429v-88h-333v-215h309v-84h-309v-228h338v-88h-434z" />
<glyph unicode="&#xca;" horiz-adv-x="582" d="M266 910h82l117 -145h-82l-75 93l-77 -93h-81zM93 0v703h429v-88h-333v-215h309v-84h-309v-228h338v-88h-434z" />
<glyph unicode="&#xcb;" horiz-adv-x="582" d="M237 777q-23 0 -38 15.5t-15 37.5t15 37.5t38 15.5q22 0 37 -15t15 -38t-15 -38t-37 -15zM382 777q-22 0 -37.5 15.5t-15.5 37.5t15.5 37.5t37.5 15.5t37.5 -15.5t15.5 -37.5t-15.5 -37.5t-37.5 -15.5zM93 0v703h429v-88h-333v-215h309v-84h-309v-228h338v-88h-434z" />
<glyph unicode="&#xcc;" horiz-adv-x="282" d="M185 765h-87l-82 145h89zM93 0v703h96v-703h-96z" />
<glyph unicode="&#xcd;" horiz-adv-x="282" d="M98 765l81 145h89l-82 -145h-88zM93 0v703h96v-703h-96z" />
<glyph unicode="&#xce;" horiz-adv-x="282" d="M100 910h82l117 -145h-82l-75 93l-77 -93h-81zM93 0v703h96v-703h-96z" />
<glyph unicode="&#xcf;" horiz-adv-x="282" d="M70 777q-22 0 -37.5 15.5t-15.5 37.5t15.5 37.5t37.5 15.5t37 -15t15 -38t-15 -38t-37 -15zM215 777q-23 0 -38 15.5t-15 37.5t15 37.5t38 15.5q22 0 37.5 -15.5t15.5 -37.5t-15.5 -37.5t-37.5 -15.5zM93 0v703h96v-703h-96z" />
<glyph unicode="&#xd0;" horiz-adv-x="772" d="M102 0v311h-79v80h79v312h245q102 0 185.5 -37.5t137.5 -118.5t54 -193q0 -114 -54 -196t-137.5 -120t-185.5 -38h-245zM198 91h146q121 0 200.5 68t79.5 195q0 124 -79.5 191t-200.5 67h-146v-221h196v-80h-196v-220z" />
<glyph unicode="&#xd1;" horiz-adv-x="713" d="M420 834q14 0 20.5 12t10.5 43h62q-10 -120 -93 -120q-29 0 -49.5 15t-35 30t-29.5 15q-33 0 -41 -59h-62q8 124 104 124q27 0 49.5 -15t37.5 -30t26 -15zM93 0v703h92l344 -544v544h91v-703h-93l-343 543v-543h-91z" />
<glyph unicode="&#xd2;" horiz-adv-x="829" d="M458 765h-87l-82 145h89zM414 715q158 0 263.5 -106t105.5 -257q0 -152 -105 -258t-264 -106q-158 0 -263 106t-105 258q0 151 105 257t263 106zM414 624q-115 0 -191.5 -79.5t-76.5 -192.5q0 -115 76.5 -194t191.5 -79t192 79t77 194q0 113 -77 192.5t-192 79.5z" />
<glyph unicode="&#xd3;" horiz-adv-x="829" d="M372 765l81 145h89l-82 -145h-88zM414 715q158 0 263.5 -106t105.5 -257q0 -152 -105 -258t-264 -106q-158 0 -263 106t-105 258q0 151 105 257t263 106zM414 624q-115 0 -191.5 -79.5t-76.5 -192.5q0 -115 76.5 -194t191.5 -79t192 79t77 194q0 113 -77 192.5t-192 79.5 z" />
<glyph unicode="&#xd4;" horiz-adv-x="829" d="M373 910h82l117 -145h-82l-75 93l-77 -93h-81zM414 715q158 0 263.5 -106t105.5 -257q0 -152 -105 -258t-264 -106q-158 0 -263 106t-105 258q0 151 105 257t263 106zM414 624q-115 0 -191.5 -79.5t-76.5 -192.5q0 -115 76.5 -194t191.5 -79t192 79t77 194 q0 113 -77 192.5t-192 79.5z" />
<glyph unicode="&#xd5;" horiz-adv-x="829" d="M477 834q14 0 20.5 12t10.5 43h62q-10 -120 -93 -120q-29 0 -49.5 15t-35 30t-29.5 15q-33 0 -41 -59h-62q8 124 104 124q27 0 49.5 -15t37.5 -30t26 -15zM414 715q158 0 263.5 -106t105.5 -257q0 -152 -105 -258t-264 -106q-158 0 -263 106t-105 258q0 151 105 257 t263 106zM414 624q-115 0 -191.5 -79.5t-76.5 -192.5q0 -115 76.5 -194t191.5 -79t192 79t77 194q0 113 -77 192.5t-192 79.5z" />
<glyph unicode="&#xd6;" horiz-adv-x="829" d="M343 777q-23 0 -38 15.5t-15 37.5t15 37.5t38 15.5q22 0 37 -15t15 -38t-15 -38t-37 -15zM488 777q-22 0 -37.5 15.5t-15.5 37.5t15.5 37.5t37.5 15.5t37.5 -15.5t15.5 -37.5t-15.5 -37.5t-37.5 -15.5zM414 715q158 0 263.5 -106t105.5 -257q0 -152 -105 -258t-264 -106 q-158 0 -263 106t-105 258q0 151 105 257t263 106zM414 624q-115 0 -191.5 -79.5t-76.5 -192.5q0 -115 76.5 -194t191.5 -79t192 79t77 194q0 113 -77 192.5t-192 79.5z" />
<glyph unicode="&#xd7;" d="M78 195l155 155l-153 154l52 52l154 -153l153 153l52 -52l-153 -153l155 -156l-53 -52l-155 155l-155 -155z" />
<glyph unicode="&#xd8;" horiz-adv-x="832" d="M152 -32h-103l104 126q-105 105 -105 258q0 151 105 257t263 106q112 0 202 -57l63 77h103l-104 -126q105 -105 105 -257t-105 -258t-264 -106q-110 0 -201 56zM416 624q-115 0 -191.5 -79.5t-76.5 -192.5q0 -108 68 -185l344 416q-65 41 -144 41zM685 352q0 106 -68 183 l-343 -417q62 -39 142 -39q115 0 192 79t77 194z" />
<glyph unicode="&#xd9;" horiz-adv-x="688" d="M388 765h-87l-82 145h89zM602 703v-471q0 -109 -74 -176.5t-185 -67.5q-110 0 -183.5 68t-73.5 176v471h96v-468q0 -69 44.5 -112.5t114.5 -43.5q74 0 119.5 43.5t45.5 112.5v468h96z" />
<glyph unicode="&#xda;" horiz-adv-x="688" d="M301 765l81 145h89l-82 -145h-88zM602 703v-471q0 -109 -74 -176.5t-185 -67.5q-110 0 -183.5 68t-73.5 176v471h96v-468q0 -69 44.5 -112.5t114.5 -43.5q74 0 119.5 43.5t45.5 112.5v468h96z" />
<glyph unicode="&#xdb;" horiz-adv-x="688" d="M302 910h82l117 -145h-82l-75 93l-77 -93h-81zM602 703v-471q0 -109 -74 -176.5t-185 -67.5q-110 0 -183.5 68t-73.5 176v471h96v-468q0 -69 44.5 -112.5t114.5 -43.5q74 0 119.5 43.5t45.5 112.5v468h96z" />
<glyph unicode="&#xdc;" horiz-adv-x="688" d="M273 777q-23 0 -38 15.5t-15 37.5t15 37.5t38 15.5q22 0 37 -15t15 -38t-15 -38t-37 -15zM418 777q-22 0 -37.5 15.5t-15.5 37.5t15.5 37.5t37.5 15.5t37.5 -15.5t15.5 -37.5t-15.5 -37.5t-37.5 -15.5zM602 703v-471q0 -109 -74 -176.5t-185 -67.5q-110 0 -183.5 68 t-73.5 176v471h96v-468q0 -69 44.5 -112.5t114.5 -43.5q74 0 119.5 43.5t45.5 112.5v468h96z" />
<glyph unicode="&#xdd;" horiz-adv-x="632" d="M280 765l81 145h89l-82 -145h-88zM269 0v256l-244 447h107l186 -349l189 349h100l-242 -441v-262h-96z" />
<glyph unicode="&#xde;" horiz-adv-x="652" d="M189 703v-126h155q112 0 189.5 -57.5t77.5 -162.5q0 -110 -77 -170t-190 -60h-155v-127h-96v703h96zM189 492v-280h150q73 0 122.5 37.5t49.5 106.5q0 65 -49.5 100.5t-122.5 35.5h-150z" />
<glyph unicode="&#xdf;" horiz-adv-x="619" d="M353 71q62 0 98 38t36 104q0 60 -41.5 99t-100.5 39h-82v71h58q56 0 93 34t37 86q0 54 -38.5 90t-96.5 36q-63 0 -103 -41.5t-40 -110.5v-516h-92v504q0 123 67 186t168 63q91 0 158 -52.5t67 -141.5q0 -117 -97 -164q63 -21 98.5 -73t35.5 -117q0 -92 -61.5 -154.5 t-148.5 -62.5q-68 0 -105 26v81q33 -24 90 -24z" />
<glyph unicode="&#xe0;" horiz-adv-x="549" d="M312 572h-87l-82 145h89zM388 72q-59 -84 -169 -84q-74 0 -121.5 40t-47.5 103q0 123 163 161l172 40v7q0 45 -31 72.5t-84 27.5q-49 0 -81.5 -26.5t-38.5 -66.5h-88q7 72 65 121.5t144 49.5q98 0 151 -52t53 -137v-328h-87v72zM385 220v37l-149 -35q-95 -22 -95 -83 q0 -36 25 -55.5t70 -19.5q64 0 106.5 47t42.5 109z" />
<glyph unicode="&#xe1;" horiz-adv-x="549" d="M225 572l81 145h89l-82 -145h-88zM388 72q-59 -84 -169 -84q-74 0 -121.5 40t-47.5 103q0 123 163 161l172 40v7q0 45 -31 72.5t-84 27.5q-49 0 -81.5 -26.5t-38.5 -66.5h-88q7 72 65 121.5t144 49.5q98 0 151 -52t53 -137v-328h-87v72zM385 220v37l-149 -35 q-95 -22 -95 -83q0 -36 25 -55.5t70 -19.5q64 0 106.5 47t42.5 109z" />
<glyph unicode="&#xe2;" horiz-adv-x="549" d="M227 717h82l117 -145h-82l-75 93l-77 -93h-81zM388 72q-59 -84 -169 -84q-74 0 -121.5 40t-47.5 103q0 123 163 161l172 40v7q0 45 -31 72.5t-84 27.5q-49 0 -81.5 -26.5t-38.5 -66.5h-88q7 72 65 121.5t144 49.5q98 0 151 -52t53 -137v-328h-87v72zM385 220v37l-149 -35 q-95 -22 -95 -83q0 -36 25 -55.5t70 -19.5q64 0 106.5 47t42.5 109z" />
<glyph unicode="&#xe3;" horiz-adv-x="549" d="M331 645q14 0 20.5 12t10.5 43h62q-10 -120 -93 -120q-29 0 -49.5 15t-35 30t-29.5 15q-33 0 -41 -59h-62q8 124 104 124q27 0 49.5 -15t37.5 -30t26 -15zM388 72q-59 -84 -169 -84q-74 0 -121.5 40t-47.5 103q0 123 163 161l172 40v7q0 45 -31 72.5t-84 27.5 q-49 0 -81.5 -26.5t-38.5 -66.5h-88q7 72 65 121.5t144 49.5q98 0 151 -52t53 -137v-328h-87v72zM385 220v37l-149 -35q-95 -22 -95 -83q0 -36 25 -55.5t70 -19.5q64 0 106.5 47t42.5 109z" />
<glyph unicode="&#xe4;" horiz-adv-x="549" d="M196 586q-22 0 -37.5 15t-15.5 38t15.5 38t37.5 15t37 -15t15 -38t-15 -38t-37 -15zM341 586q-23 0 -38 15t-15 38t15 38t38 15q22 0 37.5 -15.5t15.5 -37.5t-15.5 -37.5t-37.5 -15.5zM388 72q-59 -84 -169 -84q-74 0 -121.5 40t-47.5 103q0 123 163 161l172 40v7 q0 45 -31 72.5t-84 27.5q-49 0 -81.5 -26.5t-38.5 -66.5h-88q7 72 65 121.5t144 49.5q98 0 151 -52t53 -137v-328h-87v72zM385 220v37l-149 -35q-95 -22 -95 -83q0 -36 25 -55.5t70 -19.5q64 0 106.5 47t42.5 109z" />
<glyph unicode="&#xe5;" horiz-adv-x="549" d="M268 564q-42 0 -71.5 28t-29.5 70q0 40 29.5 68.5t71.5 28.5q41 0 71 -28.5t30 -68.5q0 -42 -29.5 -70t-71.5 -28zM268 615q19 0 32.5 14t13.5 33t-13.5 32.5t-32.5 13.5t-32 -13.5t-13 -32.5q0 -20 13 -33.5t32 -13.5zM388 72q-59 -84 -169 -84q-74 0 -121.5 40 t-47.5 103q0 123 163 161l172 40v7q0 45 -31 72.5t-84 27.5q-49 0 -81.5 -26.5t-38.5 -66.5h-88q7 72 65 121.5t144 49.5q98 0 151 -52t53 -137v-328h-87v72zM385 220v37l-149 -35q-95 -22 -95 -83q0 -36 25 -55.5t70 -19.5q64 0 106.5 47t42.5 109z" />
<glyph unicode="&#xe6;" horiz-adv-x="951" d="M897 159q-26 -78 -92 -124.5t-156 -46.5q-71 0 -128 34.5t-90 93.5q-24 -63 -79 -95.5t-122 -32.5q-85 0 -132.5 39.5t-47.5 103.5q0 123 163 161l172 40v7q0 45 -31 72.5t-84 27.5q-49 0 -81.5 -26.5t-38.5 -66.5h-88q7 72 65 121.5t144 49.5q133 0 177 -102 q76 102 202 102q113 0 186.5 -74.5t73.5 -183.5v-32h-434q8 -70 56 -115t118 -45q53 0 94 24.5t62 67.5h91zM650 438q-62 0 -108 -37t-61 -97l335 -1q-15 64 -60 99.5t-106 35.5zM385 210v47l-149 -35q-95 -22 -95 -83q0 -36 25.5 -55.5t72.5 -19.5q62 0 104 44t42 102z" />
<glyph unicode="&#xe7;" horiz-adv-x="605" d="M567 310h-92q-17 54 -61.5 88t-103.5 34q-76 0 -126.5 -52t-50.5 -127q0 -76 50.5 -128t126.5 -52q60 0 105.5 35.5t61.5 90.5h91q-18 -85 -79.5 -142.5t-148.5 -66.5l-25 -42h3q48 0 78 -28.5t30 -73.5q0 -44 -32.5 -73t-80.5 -29q-49 0 -79.5 26.5t-33.5 69.5h70 q1 -16 13.5 -26t29.5 -10q19 0 31 12t12 30q0 19 -12 31t-31 12q-25 0 -43 -20l-55 29l57 92q-102 13 -166.5 87.5t-64.5 175.5q0 110 76.5 187t192.5 77q97 0 168 -58.5t89 -148.5z" />
<glyph unicode="&#xe8;" horiz-adv-x="607" d="M348 572h-87l-82 145h89zM462 159h91q-26 -78 -92 -124.5t-156 -46.5q-113 0 -188.5 77t-75.5 188q0 110 76.5 187t188.5 77q113 0 186.5 -74.5t73.5 -183.5v-32h-434q8 -70 56 -115t118 -45q53 0 94 24.5t62 67.5zM306 438q-63 0 -108.5 -37.5t-60.5 -97.5h336 q-15 64 -60.5 99.5t-106.5 35.5z" />
<glyph unicode="&#xe9;" horiz-adv-x="607" d="M262 572l81 145h89l-82 -145h-88zM462 159h91q-26 -78 -92 -124.5t-156 -46.5q-113 0 -188.5 77t-75.5 188q0 110 76.5 187t188.5 77q113 0 186.5 -74.5t73.5 -183.5v-32h-434q8 -70 56 -115t118 -45q53 0 94 24.5t62 67.5zM306 438q-63 0 -108.5 -37.5t-60.5 -97.5h336 q-15 64 -60.5 99.5t-106.5 35.5z" />
<glyph unicode="&#xea;" horiz-adv-x="607" d="M264 717h82l117 -145h-82l-75 93l-77 -93h-81zM462 159h91q-26 -78 -92 -124.5t-156 -46.5q-113 0 -188.5 77t-75.5 188q0 110 76.5 187t188.5 77q113 0 186.5 -74.5t73.5 -183.5v-32h-434q8 -70 56 -115t118 -45q53 0 94 24.5t62 67.5zM306 438q-63 0 -108.5 -37.5 t-60.5 -97.5h336q-15 64 -60.5 99.5t-106.5 35.5z" />
<glyph unicode="&#xeb;" horiz-adv-x="607" d="M233 586q-23 0 -38 15t-15 38t15 38t38 15q22 0 37 -15t15 -38t-15 -38t-37 -15zM378 586q-22 0 -37.5 15t-15.5 38t15.5 38t37.5 15t37.5 -15.5t15.5 -37.5t-15.5 -37.5t-37.5 -15.5zM462 159h91q-26 -78 -92 -124.5t-156 -46.5q-113 0 -188.5 77t-75.5 188 q0 110 76.5 187t188.5 77q113 0 186.5 -74.5t73.5 -183.5v-32h-434q8 -70 56 -115t118 -45q53 0 94 24.5t62 67.5zM306 438q-63 0 -108.5 -37.5t-60.5 -97.5h336q-15 64 -60.5 99.5t-106.5 35.5z" />
<glyph unicode="&#xec;" horiz-adv-x="258" d="M172 572h-87l-82 145h89zM83 0v505h92v-505h-92z" />
<glyph unicode="&#xed;" horiz-adv-x="258" d="M85 572l81 145h89l-82 -145h-88zM83 0v505h92v-505h-92z" />
<glyph unicode="&#xee;" horiz-adv-x="258" d="M87 717h82l117 -145h-82l-75 93l-77 -93h-81zM83 0v505h92v-505h-92z" />
<glyph unicode="&#xef;" horiz-adv-x="258" d="M57 586q-23 0 -38 15t-15 38t15 38t38 15q22 0 37 -15t15 -38t-15 -38t-37 -15zM202 586q-22 0 -37.5 15t-15.5 38t15.5 38t37.5 15t37.5 -15.5t15.5 -37.5t-15.5 -37.5t-37.5 -15.5zM83 0v505h92v-505h-92z" />
<glyph unicode="&#xf0;" horiz-adv-x="630" d="M295 505q116 0 181 -83q-22 102 -109 201l-110 -49v54l73 34q-41 40 -99 79h99q36 -24 66 -51l103 50v-53l-67 -33q76 -81 111.5 -180.5t35.5 -197.5q0 -122 -78 -205t-190 -83q-114 0 -192 77t-78 186q0 106 73.5 180t180.5 74zM311 427q-76 0 -127 -51t-51 -125 q0 -75 50.5 -126.5t127.5 -51.5q76 0 127 51.5t51 126.5q0 73 -51 124.5t-127 51.5z" />
<glyph unicode="&#xf1;" horiz-adv-x="599" d="M368 645q14 0 20.5 12t10.5 43h62q-10 -120 -93 -120q-29 0 -49.5 15t-35 30t-29.5 15q-33 0 -41 -59h-62q8 124 104 124q27 0 49.5 -15t37.5 -30t26 -15zM81 0v505h88v-71q57 83 161 83q89 0 141.5 -55t52.5 -143v-319h-92v298q0 62 -31.5 98.5t-93.5 36.5t-98 -42.5 t-36 -101.5v-289h-92z" />
<glyph unicode="&#xf2;" horiz-adv-x="620" d="M354 572h-87l-82 145h89zM310 517q116 0 192.5 -77t76.5 -187q0 -111 -76.5 -188t-192.5 -77t-192.5 77t-76.5 188q0 110 76.5 187t192.5 77zM310 432q-76 0 -127 -52t-51 -127q0 -76 51 -128t127 -52t127 52t51 128q0 75 -51 127t-127 52z" />
<glyph unicode="&#xf3;" horiz-adv-x="620" d="M267 572l81 145h89l-82 -145h-88zM310 517q116 0 192.5 -77t76.5 -187q0 -111 -76.5 -188t-192.5 -77t-192.5 77t-76.5 188q0 110 76.5 187t192.5 77zM310 432q-76 0 -127 -52t-51 -127q0 -76 51 -128t127 -52t127 52t51 128q0 75 -51 127t-127 52z" />
<glyph unicode="&#xf4;" horiz-adv-x="620" d="M269 717h82l117 -145h-82l-75 93l-77 -93h-81zM310 517q116 0 192.5 -77t76.5 -187q0 -111 -76.5 -188t-192.5 -77t-192.5 77t-76.5 188q0 110 76.5 187t192.5 77zM310 432q-76 0 -127 -52t-51 -127q0 -76 51 -128t127 -52t127 52t51 128q0 75 -51 127t-127 52z" />
<glyph unicode="&#xf5;" horiz-adv-x="620" d="M373 645q14 0 20.5 12t10.5 43h62q-10 -120 -93 -120q-29 0 -49.5 15t-35 30t-29.5 15q-33 0 -41 -59h-62q8 124 104 124q27 0 49.5 -15t37.5 -30t26 -15zM310 517q116 0 192.5 -77t76.5 -187q0 -111 -76.5 -188t-192.5 -77t-192.5 77t-76.5 188q0 110 76.5 187t192.5 77 zM310 432q-76 0 -127 -52t-51 -127q0 -76 51 -128t127 -52t127 52t51 128q0 75 -51 127t-127 52z" />
<glyph unicode="&#xf6;" horiz-adv-x="620" d="M238 586q-22 0 -37.5 15t-15.5 38t15.5 38t37.5 15t37 -15t15 -38t-15 -38t-37 -15zM383 586q-23 0 -38 15t-15 38t15 38t38 15q22 0 37.5 -15.5t15.5 -37.5t-15.5 -37.5t-37.5 -15.5zM310 517q116 0 192.5 -77t76.5 -187q0 -111 -76.5 -188t-192.5 -77t-192.5 77 t-76.5 188q0 110 76.5 187t192.5 77zM310 432q-76 0 -127 -52t-51 -127q0 -76 51 -128t127 -52t127 52t51 128q0 75 -51 127t-127 52z" />
<glyph unicode="&#xf7;" d="M285 477q-27 0 -44.5 18t-17.5 43q0 27 17.5 45t44.5 18q28 0 45.5 -18t17.5 -45q0 -25 -18 -43t-45 -18zM60 387h450v-74h-450v74zM285 100q-27 0 -44.5 18t-17.5 43q0 27 17.5 45t44.5 18q28 0 45.5 -18t17.5 -45q0 -25 -18 -43t-45 -18z" />
<glyph unicode="&#xf8;" horiz-adv-x="626" d="M134 -32h-89l76 96q-77 77 -77 189q0 110 76.5 187t192.5 77q75 0 137 -35l44 55h89l-77 -98q76 -74 76 -186q0 -111 -76.5 -188t-192.5 -77q-76 0 -136 34zM313 432q-76 0 -127 -52t-51 -127q0 -70 44 -120l219 278q-38 21 -85 21zM491 253q0 66 -42 118l-219 -278 q37 -20 83 -20q76 0 127 52t51 128z" />
<glyph unicode="&#xf9;" horiz-adv-x="590" d="M335 572h-87l-82 145h89zM417 216v289h92v-505h-88v72q-55 -84 -156 -84q-87 0 -138.5 55t-51.5 143v319h92v-298q0 -60 31 -97.5t89 -37.5q61 0 95.5 42.5t34.5 101.5z" />
<glyph unicode="&#xfa;" horiz-adv-x="590" d="M248 572l81 145h89l-82 -145h-88zM417 216v289h92v-505h-88v72q-55 -84 -156 -84q-87 0 -138.5 55t-51.5 143v319h92v-298q0 -60 31 -97.5t89 -37.5q61 0 95.5 42.5t34.5 101.5z" />
<glyph unicode="&#xfb;" horiz-adv-x="590" d="M250 717h82l117 -145h-82l-75 93l-77 -93h-81zM417 216v289h92v-505h-88v72q-55 -84 -156 -84q-87 0 -138.5 55t-51.5 143v319h92v-298q0 -60 31 -97.5t89 -37.5q61 0 95.5 42.5t34.5 101.5z" />
<glyph unicode="&#xfc;" horiz-adv-x="590" d="M220 586q-22 0 -37.5 15t-15.5 38t15.5 38t37.5 15t37 -15t15 -38t-15 -38t-37 -15zM365 586q-23 0 -38 15t-15 38t15 38t38 15q22 0 37.5 -15.5t15.5 -37.5t-15.5 -37.5t-37.5 -15.5zM417 216v289h92v-505h-88v72q-55 -84 -156 -84q-87 0 -138.5 55t-51.5 143v319h92 v-298q0 -60 31 -97.5t89 -37.5q61 0 95.5 42.5t34.5 101.5z" />
<glyph unicode="&#xfd;" horiz-adv-x="530" d="M222 572l81 145h89l-82 -145h-88zM509 505l-273 -717h-92l76 205l-200 512h97l149 -397l148 397h95z" />
<glyph unicode="&#xfe;" horiz-adv-x="662" d="M366 517q110 0 182 -75.5t72 -187.5q0 -114 -73 -190t-184 -76q-120 0 -190 93v-293h-92v953h92v-318q71 94 193 94zM347 433q-76 0 -126.5 -52.5t-50.5 -127.5q0 -76 50.5 -128.5t126.5 -52.5q77 0 127.5 53t50.5 128t-50.5 127.5t-127.5 52.5z" />
<glyph unicode="&#xff;" horiz-adv-x="530" d="M193 586q-23 0 -38 15t-15 38t15 38t38 15q22 0 37 -15t15 -38t-15 -38t-37 -15zM338 586q-22 0 -37.5 15t-15.5 38t15.5 38t37.5 15t37.5 -15.5t15.5 -37.5t-15.5 -37.5t-37.5 -15.5zM509 505l-273 -717h-92l76 205l-200 512h97l149 -397l148 397h95z" />
<glyph unicode="&#x152;" horiz-adv-x="1172" d="M683 0v119q-49 -61 -121.5 -96t-157.5 -35q-148 0 -253 107t-105 257t105 256.5t253 106.5q85 0 157.5 -35t121.5 -96v119h429v-88h-333v-215h309v-84h-309v-228h338v-88h-434zM414 624q-115 0 -191.5 -79.5t-76.5 -192.5q0 -115 76.5 -194t191.5 -79t192 79t77 194 q0 113 -77 192.5t-192 79.5z" />
<glyph unicode="&#x153;" horiz-adv-x="1054" d="M300 517q76 0 137 -35t96 -95q34 60 91.5 95t128.5 35q113 0 186.5 -74.5t73.5 -183.5v-32h-434q8 -70 56 -115t118 -45q53 0 94 24.5t62 67.5h91q-26 -78 -92 -124.5t-156 -46.5q-71 0 -129 35t-90 95q-34 -60 -95.5 -95t-137.5 -35q-106 0 -182.5 78t-76.5 187 t76.5 186.5t182.5 77.5zM753 438q-63 0 -108.5 -37.5t-60.5 -97.5h335q-15 64 -60 99.5t-106 35.5zM310 432q-76 0 -127 -52t-51 -127q0 -76 51 -128t127 -52t127 52t51 128q0 75 -51 127t-127 52z" />
<glyph unicode="&#x178;" horiz-adv-x="632" d="M252 777q-22 0 -37.5 15.5t-15.5 37.5t15.5 37.5t37.5 15.5t37 -15t15 -38t-15 -38t-37 -15zM397 777q-23 0 -38 15.5t-15 37.5t15 37.5t38 15.5q22 0 37.5 -15.5t15.5 -37.5t-15.5 -37.5t-37.5 -15.5zM269 0v256l-244 447h107l186 -349l189 349h100l-242 -441v-262h-96z " />
<glyph unicode="&#x2c6;" horiz-adv-x="370" d="M143 717h82l117 -145h-82l-75 93l-77 -93h-81z" />
<glyph unicode="&#x2dc;" horiz-adv-x="378" d="M250 645q14 0 20.5 12t10.5 43h62q-10 -120 -93 -120q-29 0 -49.5 15t-35 30t-29.5 15q-33 0 -41 -59h-62q8 124 104 124q27 0 49.5 -15t37.5 -30t26 -15z" />
<glyph unicode="&#x2000;" horiz-adv-x="475" />
<glyph unicode="&#x2001;" horiz-adv-x="951" />
<glyph unicode="&#x2002;" horiz-adv-x="475" />
<glyph unicode="&#x2003;" horiz-adv-x="951" />
<glyph unicode="&#x2004;" horiz-adv-x="317" />
<glyph unicode="&#x2005;" horiz-adv-x="237" />
<glyph unicode="&#x2006;" horiz-adv-x="158" />
<glyph unicode="&#x2007;" horiz-adv-x="158" />
<glyph unicode="&#x2008;" horiz-adv-x="118" />
<glyph unicode="&#x2009;" horiz-adv-x="190" />
<glyph unicode="&#x200a;" horiz-adv-x="52" />
<glyph unicode="&#x2010;" horiz-adv-x="372" d="M306 311v-88h-240v88h240z" />
<glyph unicode="&#x2011;" horiz-adv-x="372" d="M306 311v-88h-240v88h240z" />
<glyph unicode="&#x2012;" horiz-adv-x="372" d="M306 311v-88h-240v88h240z" />
<glyph unicode="&#x2013;" horiz-adv-x="578" d="M510 305v-79h-442v79h442z" />
<glyph unicode="&#x2014;" horiz-adv-x="1053" d="M985 305v-79h-917v79h917z" />
<glyph unicode="&#x2018;" horiz-adv-x="242" d="M202 703l-66 -149q23 -6 36 -25t13 -40q0 -30 -19.5 -49.5t-49.5 -19.5t-50 19t-20 48q0 17 10 39l76 177h70z" />
<glyph unicode="&#x2019;" horiz-adv-x="247" d="M55 433l66 149q-23 6 -36 25t-13 40q0 30 19.5 49.5t49.5 19.5t50 -19t20 -48q0 -17 -10 -39l-76 -177h-70z" />
<glyph unicode="&#x201a;" horiz-adv-x="250" d="M38 -158l66 149q-23 6 -36 25t-13 40q0 30 19.5 49.5t49.5 19.5t50 -19t20 -48q0 -17 -10 -39l-76 -177h-70z" />
<glyph unicode="&#x201c;" horiz-adv-x="419" d="M202 703l-66 -149q23 -6 36 -25t13 -40q0 -30 -19.5 -49.5t-49.5 -19.5t-50 19t-20 48q0 17 10 39l76 177h70zM379 703l-66 -149q23 -6 36 -25t13 -40q0 -30 -19.5 -49.5t-49.5 -19.5t-50 19t-20 48q0 17 10 39l76 177h70z" />
<glyph unicode="&#x201d;" horiz-adv-x="423" d="M55 433l66 149q-23 6 -36 25t-13 40q0 30 19.5 49.5t49.5 19.5t50 -19t20 -48q0 -17 -10 -39l-76 -177h-70zM231 433l66 149q-23 6 -36 25t-13 40q0 30 19.5 49.5t49.5 19.5t50 -19t20 -48q0 -17 -10 -39l-76 -177h-70z" />
<glyph unicode="&#x201e;" horiz-adv-x="426" d="M38 -158l66 149q-23 6 -36 25t-13 40q0 30 19.5 49.5t49.5 19.5t50 -19t20 -48q0 -17 -10 -39l-76 -177h-70zM214 -158l66 149q-23 6 -36 25t-13 40q0 30 19.5 49.5t49.5 19.5t50 -19t20 -48q0 -17 -10 -39l-76 -177h-70z" />
<glyph unicode="&#x2022;" horiz-adv-x="383" d="M191 256q-48 0 -80.5 33t-32.5 79q0 49 32 81.5t81 32.5q51 0 83.5 -32.5t32.5 -81.5q0 -47 -33 -79.5t-83 -32.5z" />
<glyph unicode="&#x2026;" horiz-adv-x="647" d="M121 -12q-30 0 -49.5 20t-19.5 48q0 29 19.5 49t49.5 20q31 0 50.5 -19.5t19.5 -49.5q0 -28 -20 -48t-50 -20zM323 -12q-30 0 -49.5 20t-19.5 48q0 29 19.5 49t49.5 20q31 0 50.5 -19.5t19.5 -49.5q0 -28 -20 -48t-50 -20zM525 -12q-30 0 -49.5 20t-19.5 48q0 29 19.5 49 t49.5 20q31 0 50.5 -19.5t19.5 -49.5q0 -28 -20 -48t-50 -20z" />
<glyph unicode="&#x202f;" horiz-adv-x="190" />
<glyph unicode="&#x2039;" horiz-adv-x="295" d="M46 254l109 220h90l-109 -220l109 -219h-90z" />
<glyph unicode="&#x203a;" horiz-adv-x="295" d="M249 255l-109 -220h-90l109 220l-109 219h90z" />
<glyph unicode="&#x205f;" horiz-adv-x="237" />
<glyph unicode="&#x20ac;" horiz-adv-x="668" d="M216 245q0 -82 43.5 -124t109.5 -42t109 40t43 120h96q0 -68 -22.5 -119t-60 -78.5t-79 -40.5t-87.5 -13q-45 0 -86.5 13.5t-79 41.5t-60 80t-22.5 121v2h-72v75h72v60h-72v75h72v3q0 69 22.5 121t60 80t79 41.5t86.5 13.5q46 0 87.5 -13t79 -40.5t60 -78.5t22.5 -119 h-96q0 80 -43 120t-109 40t-109.5 -42t-43.5 -124v-2h181v-75h-181v-60h181v-75h-181v-1z" />
<glyph unicode="&#x2122;" horiz-adv-x="856" d="M140 323v310h-106v70h285v-70h-105v-310h-74zM357 323v380h83l128 -255l131 255h79v-380h-72v244l-124 -244h-30l-123 248v-248h-72z" />
<glyph unicode="&#x25fc;" horiz-adv-x="505" d="M0 505h505v-505h-505v505z" />
<glyph unicode="&#xfb03;" horiz-adv-x="954" d="M117 0v423h-87v82h87v58q0 89 45.5 139.5t137.5 50.5q33 0 65 -7v-81q-28 6 -50 6q-57 0 -81.5 -27t-24.5 -82v-57h249v58q0 89 45.5 139.5t137.5 50.5q35 0 60 -6v-81q-22 5 -45 5q-57 0 -81.5 -27t-24.5 -82v-57h131v-82h-131v-423h-92v423h-249v-423h-92zM825 729 q29 0 47 -18.5t18 -44.5t-18 -44.5t-47 -18.5t-47 18.5t-18 44.5t18 44.5t47 18.5zM779 0v505h92v-505h-92z" />
<glyph unicode="&#xfb04;" horiz-adv-x="954" d="M117 0v423h-87v82h87v58q0 89 45.5 139.5t137.5 50.5q33 0 65 -7v-81q-28 6 -50 6q-57 0 -81.5 -27t-24.5 -82v-57h249v58q0 89 45.5 139.5t137.5 50.5q35 0 60 -6v-81q-22 5 -45 5q-57 0 -81.5 -27t-24.5 -82v-57h131v-82h-131v-423h-92v423h-249v-423h-92zM779 0v741 h92v-741h-92z" />
</font>
</defs>
</svg>
