<?xml version="1.0" standalone="no"?>
<!DOCTYPE svg PUBLIC "-//W3C//DTD SVG 1.1//EN" "http://www.w3.org/Graphics/SVG/1.1/DTD/svg11.dtd" >
<svg xmlns="http://www.w3.org/2000/svg" xmlns:xlink="http://www.w3.org/1999/xlink" version="1.1">
<metadata></metadata>
<defs>
<font id="steradianblack" horiz-adv-x="570" >
<font-face units-per-em="1000" ascent="770" descent="-230" />
<missing-glyph horiz-adv-x="212" />
<glyph unicode="&#xfb01;" horiz-adv-x="714" d="M109 0v352h-73v158h73v37q0 100 47 154t154 54q47 0 89 -11v-155q-34 9 -58 9q-29 0 -42 -12t-13 -41v-35h113v-158h-113v-352h-177zM565 755q49 0 78 -29.5t29 -73.5q0 -42 -29 -72t-78 -30t-77.5 29.5t-28.5 72.5q0 44 28.5 73.5t77.5 29.5zM477 0v510h177v-510h-177z " />
<glyph unicode="&#xfb02;" horiz-adv-x="714" d="M109 0v352h-73v158h73v37q0 100 47 154t154 54q47 0 89 -11v-155q-34 9 -58 9q-29 0 -42 -12t-13 -41v-35h113v-158h-113v-352h-177zM477 0v741h177v-741h-177z" />
<glyph horiz-adv-x="0" />
<glyph horiz-adv-x="333" />
<glyph horiz-adv-x="0" />
<glyph horiz-adv-x="0" />
<glyph unicode="&#xd;" horiz-adv-x="333" />
<glyph unicode=" "  horiz-adv-x="212" />
<glyph unicode="&#x09;" horiz-adv-x="212" />
<glyph unicode="&#xa0;" horiz-adv-x="212" />
<glyph unicode="!" horiz-adv-x="309" d="M98 243l-37 226v234h187v-234l-37 -226h-113zM154 -14q-50 0 -81.5 32t-31.5 78q0 48 31.5 80t81.5 32t82 -32t32 -80q0 -45 -32 -77.5t-82 -32.5z" />
<glyph unicode="&#x22;" horiz-adv-x="485" d="M76 393l-38 285v25h182v-25l-38 -285h-106zM303 393l-38 285v25h182v-25l-38 -285h-106z" />
<glyph unicode="#" horiz-adv-x="707" d="M591 177h-102l-33 -133h-135l33 133h-90l-33 -133h-135l33 133h-101l32 130h102l22 88h-101l32 130h102l33 133h135l-33 -133h90l33 133h135l-33 -133h101l-32 -130h-102l-22 -88h101zM297 307h90l22 88h-90z" />
<glyph unicode="$" horiz-adv-x="584" d="M202 -150v149q-167 49 -173 234h189q0 -42 24 -63t57 -21q64 0 64 56q0 22 -13.5 34.5t-43.5 22.5l-95 32q-77 26 -120.5 74.5t-43.5 132.5q0 75 42.5 128t112.5 75v101l177 41v-141q71 -20 114.5 -76.5t48.5 -146.5h-192q0 74 -56 74q-27 0 -44 -13.5t-17 -36.5 t13.5 -36t46.5 -24l91 -29q167 -53 167 -200q0 -93 -46 -149.5t-126 -73.5v-103z" />
<glyph unicode="%" horiz-adv-x="782" d="M205 709q77 0 126 -48.5t49 -119.5q0 -72 -49 -120.5t-126 -48.5q-79 0 -127 48.5t-48 120.5t48 120t127 48zM730 703l-547 -703h-131l547 703h131zM205 601q-27 0 -43.5 -17.5t-16.5 -43.5q0 -25 16.5 -42t43.5 -17q26 0 42 17t16 42q0 26 -16 43.5t-42 17.5zM578 331 q77 0 126 -48.5t49 -119.5q0 -72 -49 -120.5t-126 -48.5q-79 0 -127 48.5t-48 120.5t48 120t127 48zM578 223q-27 0 -43.5 -17.5t-16.5 -43.5q0 -25 16.5 -42t43.5 -17q26 0 42 17t16 42q0 26 -16 43.5t-42 17.5z" />
<glyph unicode="&#x26;" horiz-adv-x="723" d="M696 392l-129 -210l165 -182h-218l-46 52q-79 -66 -203 -66q-95 0 -163.5 57.5t-68.5 144.5q0 71 36.5 122t98.5 76q-61 78 -61 156q0 72 63 123.5t146 51.5q87 0 145 -50t58 -118q0 -60 -36.5 -104.5t-87.5 -71.5l61 -68l50 87h190zM277 528q0 -23 31 -59q50 28 50 61 q0 15 -11 27t-29 12q-19 0 -30 -12.5t-11 -28.5zM213 202q0 -29 22.5 -48t53.5 -19q48 0 78 29l-106 118q-48 -29 -48 -80z" />
<glyph unicode="'" horiz-adv-x="258" d="M76 393l-38 285v25h182v-25l-38 -285h-106z" />
<glyph unicode="(" horiz-adv-x="363" d="M160 -140q-122 199 -122 478q0 262 122 472h182q-127 -237 -127 -472q0 -261 127 -478h-182z" />
<glyph unicode=")" horiz-adv-x="363" d="M203 -140h-182q127 217 127 478q0 235 -127 472h182q122 -210 122 -472q0 -279 -122 -478z" />
<glyph unicode="*" horiz-adv-x="470" d="M61 414l61 72l-93 27l50 137l92 -43l-9 96h149l-8 -94l88 41l50 -138l-96 -27l60 -72l-121 -84l-50 90l-52 -90z" />
<glyph unicode="+" d="M215 115v165h-165v140h165v165h140v-165h165v-140h-165v-165h-140z" />
<glyph unicode="," horiz-adv-x="298" d="M12 -174l89 169q-31 13 -48.5 41.5t-17.5 59.5q0 48 31.5 80t81.5 32t82 -32t32 -80q0 -26 -18 -62l-108 -208h-124z" />
<glyph unicode="-" horiz-adv-x="356" d="M303 332v-152h-250v152h250z" />
<glyph unicode="." horiz-adv-x="297" d="M148 -14q-50 0 -81.5 32t-31.5 78q0 48 31.5 80t81.5 32t82 -32t32 -80q0 -45 -32 -77.5t-82 -32.5z" />
<glyph unicode="/" horiz-adv-x="459" d="M437 810l-237 -950h-177l237 950h177z" />
<glyph unicode="0" horiz-adv-x="647" d="M598 453v-202q0 -57 -16.5 -103t-43.5 -76t-63.5 -49.5t-74 -28t-77.5 -8.5q-39 0 -76.5 8.5t-74 28t-63.5 49.5t-43.5 76t-16.5 103v202q0 57 16.5 103t43.5 75.5t63.5 49.5t74 28t76.5 8q40 0 77.5 -8t74 -28t63.5 -49.5t43.5 -75.5t16.5 -103zM413 452q0 90 -92 90 q-87 0 -87 -90v-200q0 -90 87 -90q92 0 92 90v200z" />
<glyph unicode="1" horiz-adv-x="397" d="M140 0v534h-124l42 169h267v-703h-185z" />
<glyph unicode="2" horiz-adv-x="623" d="M48 0v142l267 247q51 48 51 92q0 26 -14.5 43.5t-48.5 17.5q-68 0 -81 -79h-190q6 106 79.5 180t201.5 74q111 0 180 -60.5t69 -160.5q0 -73 -35.5 -127.5t-107.5 -117.5l-94 -82h255v-169h-532z" />
<glyph unicode="3" horiz-adv-x="605" d="M219 215q13 -58 83 -58q35 0 55 19t20 49q0 69 -88 69h-75v134h79q66 0 66 64q0 25 -16 40.5t-47 15.5q-63 0 -72 -60h-186q7 95 73.5 162t189.5 67q62 0 111 -18.5t76.5 -48t41.5 -63t14 -67.5q0 -105 -78 -152q99 -48 99 -163q0 -40 -15 -77.5t-45.5 -70t-82 -52 t-117.5 -19.5q-128 0 -195.5 65t-77.5 164h187z" />
<glyph unicode="4" horiz-adv-x="633" d="M261 703h213l-234 -434h120v112l181 42v-154h66v-165h-66v-104h-181v104h-338v140z" />
<glyph unicode="5" horiz-adv-x="605" d="M523 703v-169h-268l-7 -76q40 10 74 10q115 0 180 -63t65 -170q0 -108 -74 -178.5t-186 -70.5t-189 61t-90 163h191q19 -54 80 -54q38 0 60.5 22.5t22.5 55.5q0 34 -22.5 56t-61.5 22q-50 0 -81 -35l-150 18l36 408h420z" />
<glyph unicode="6" horiz-adv-x="602" d="M35 238q0 104 61 201l165 264h215l-158 -231h19q104 0 173.5 -68t69.5 -166q0 -105 -78 -178.5t-194 -73.5q-118 0 -195.5 73.5t-77.5 178.5zM308 151q39 0 62.5 25.5t23.5 61.5q0 37 -23.5 62t-62.5 25t-63 -25t-24 -62q0 -36 24 -61.5t63 -25.5z" />
<glyph unicode="7" horiz-adv-x="556" d="M26 534v169h508v-145l-268 -558h-207l263 534h-296z" />
<glyph unicode="8" horiz-adv-x="606" d="M303 -14q-120 0 -193 64.5t-73 161.5q0 108 93 170q-59 56 -59 137q0 84 64 141t168 57q105 0 169 -57t64 -141q0 -81 -59 -137q92 -62 92 -170q0 -97 -73 -161.5t-193 -64.5zM303 443q31 0 48.5 17t17.5 43q0 27 -17.5 44t-48.5 17q-30 0 -47.5 -17t-17.5 -44 q0 -26 17.5 -43t47.5 -17zM303 144q38 0 61 22t23 55q0 34 -23 56.5t-61 22.5t-61 -22.5t-23 -56.5q0 -32 23.5 -54.5t60.5 -22.5z" />
<glyph unicode="9" horiz-adv-x="602" d="M567 465q0 -104 -61 -201l-165 -264h-215l158 231h-19q-104 0 -173.5 68t-69.5 166q0 105 78 178.5t194 73.5q118 0 195.5 -73.5t77.5 -178.5zM294 552q-39 0 -62.5 -25.5t-23.5 -61.5q0 -37 23.5 -62t62.5 -25t63 25t24 62q0 36 -24 61.5t-63 25.5z" />
<glyph unicode=":" horiz-adv-x="317" d="M158 302q-50 0 -81.5 32t-31.5 78q0 48 31.5 80t81.5 32t82 -32t32 -80q0 -45 -32 -77.5t-82 -32.5zM158 -14q-50 0 -81.5 32t-31.5 78q0 48 31.5 80t81.5 32t82 -32t32 -80q0 -45 -32 -77.5t-82 -32.5z" />
<glyph unicode=";" horiz-adv-x="317" d="M157 302q-50 0 -81.5 32t-31.5 78q0 48 31.5 80t81.5 32t82 -32t32 -80q0 -45 -32 -77.5t-82 -32.5zM23 -174l89 169q-31 13 -48.5 41.5t-17.5 59.5q0 48 31.5 80t81.5 32t82 -32t32 -80q0 -26 -18 -62l-108 -208h-124z" />
<glyph unicode="&#x3c;" d="M52 395l450 210v-170l-243 -110l243 -110v-170l-450 210v140z" />
<glyph unicode="=" d="M50 535h470v-140h-470v140zM50 305h470v-140h-470v140z" />
<glyph unicode="&#x3e;" d="M518 255l-450 -210v170l243 110l-243 110v170l450 -210v-140z" />
<glyph unicode="?" horiz-adv-x="585" d="M189 243v77l116 83q54 38 54 90q0 27 -18 44t-52 17q-33 0 -56 -18t-23 -56h-184q3 109 79 173t194 64q110 0 181 -57t71 -152q0 -63 -27 -113t-67 -79l-100 -73h-168zM275 -14q-50 0 -81.5 32t-31.5 78q0 48 31.5 80t81.5 32t82 -32t32 -80q0 -45 -32 -77.5t-82 -32.5z " />
<glyph unicode="@" horiz-adv-x="902" d="M224 239q0 92 56.5 153t135.5 61q74 0 113 -46l9 37h142l-50 -207q-21 -87 35 -87q39 0 66.5 45.5t27.5 116.5q0 117 -87 190t-220 73q-128 0 -220 -81.5t-92 -223.5q0 -76 28 -134.5t73.5 -92t98 -50.5t108.5 -17q93 0 143 22v-99q-58 -23 -143 -23q-77 0 -149.5 25 t-132.5 72.5t-96.5 124.5t-36.5 172t35.5 173t95 128t134 77t155.5 27q173 0 293 -101.5t120 -259.5q0 -114 -58.5 -188t-168.5 -74q-40 0 -82 16.5t-60 59.5q-51 -51 -125 -51q-62 0 -105 44t-43 118zM424 182q30 0 51 30t21 69q0 27 -14.5 44.5t-38.5 17.5q-30 0 -49 -28 t-19 -65q0 -68 49 -68z" />
<glyph unicode="A" horiz-adv-x="714" d="M457 703l245 -703h-198l-34 107h-236l-34 -107h-189l247 703h199zM352 484l-70 -222h140z" />
<glyph unicode="B" horiz-adv-x="689" d="M72 0v703h306q104 0 172.5 -47.5t68.5 -135.5q0 -101 -89 -153q126 -48 126 -166q0 -96 -70 -148.5t-172 -52.5h-342zM358 552h-101v-122h101q70 0 70 63q0 28 -19.5 43.5t-50.5 15.5zM389 283h-132v-132h132q34 0 54.5 17.5t20.5 52.5q0 30 -21 46t-54 16z" />
<glyph unicode="C" horiz-adv-x="806" d="M776 300q-18 -136 -118 -225t-253 -89q-165 0 -267.5 105.5t-102.5 260.5t102.5 260t267.5 105q148 0 247.5 -83.5t121.5 -214.5h-199q-18 56 -62.5 89.5t-108.5 33.5q-79 0 -127 -55t-48 -136t48 -135t127 -54q71 0 117 37.5t60 100.5h195z" />
<glyph unicode="D" horiz-adv-x="765" d="M72 0v703h278q75 0 142.5 -22t120.5 -64.5t84 -110t31 -152.5q0 -86 -31 -155t-84 -111.5t-120.5 -65t-142.5 -22.5h-278zM257 175h87q86 0 138 45.5t52 133.5q0 85 -52 129.5t-138 44.5h-87v-353z" />
<glyph unicode="E" horiz-adv-x="589" d="M72 0v703h463v-169h-278v-99h254v-159h-254v-107h283v-169h-468z" />
<glyph unicode="F" horiz-adv-x="572" d="M72 0v703h463v-169h-278v-107h254v-166h-254v-261h-185z" />
<glyph unicode="G" horiz-adv-x="811" d="M759 0h-155v77q-77 -91 -215 -91q-159 0 -256 105.5t-97 260.5t102 260t266 105q139 0 234.5 -74t122.5 -195h-204q-42 94 -153 94q-81 0 -127.5 -54.5t-46.5 -136.5q0 -85 48.5 -140t136.5 -55q122 0 167 80h-174v143h351v-379z" />
<glyph unicode="H" horiz-adv-x="721" d="M72 0v703h185v-259h207v259h185v-703h-185v269h-207v-269h-185z" />
<glyph unicode="I" horiz-adv-x="329" d="M72 0v703h185v-703h-185z" />
<glyph unicode="J" horiz-adv-x="597" d="M531 703v-458q0 -116 -73.5 -187.5t-187.5 -71.5t-186.5 72t-72.5 190h185q2 -89 75 -89q39 0 57 25.5t18 66.5v452h185z" />
<glyph unicode="K" horiz-adv-x="683" d="M257 703v-298l212 298h216l-251 -338l254 -365h-227l-204 306v-306h-185v703h185z" />
<glyph unicode="L" horiz-adv-x="536" d="M72 0v703h185v-534h263v-169h-448z" />
<glyph unicode="M" horiz-adv-x="972" d="M72 0v703h229l189 -394l192 394h218v-703h-179v405l-199 -406h-72l-199 410v-409h-179z" />
<glyph unicode="N" horiz-adv-x="730" d="M72 0v703h175l237 -389v389h174v-703h-177l-235 386v-386h-174z" />
<glyph unicode="O" horiz-adv-x="824" d="M411 717q169 0 273.5 -105t104.5 -260t-104.5 -260.5t-273.5 -105.5q-168 0 -272 105.5t-104 260.5t103.5 260t272.5 105zM411 542q-83 0 -132.5 -55t-49.5 -136q0 -82 49.5 -136t132.5 -54q84 0 134 54t50 136q0 81 -50 136t-134 55z" />
<glyph unicode="P" horiz-adv-x="660" d="M72 0v703h293q115 0 194.5 -62.5t79.5 -175.5q0 -118 -79.5 -182t-194.5 -64h-108v-219h-185zM257 540v-158h98q40 0 65 20.5t25 60.5q0 38 -25 57.5t-65 19.5h-98z" />
<glyph unicode="Q" horiz-adv-x="825" d="M411 717q169 0 273.5 -105t104.5 -260q0 -169 -119 -274l108 -159h-201l-55 81q-54 -14 -111 -14q-168 0 -272 105.5t-104 260.5t103.5 260t272.5 105zM282 351h201l81 -119q34 51 34 119q0 83 -51 138.5t-136 55.5t-135 -55.5t-50 -138.5q0 -85 50 -140t135 -55h4z" />
<glyph unicode="R" horiz-adv-x="690" d="M72 0v703h293q114 0 193 -59t79 -167q0 -76 -40 -129.5t-108 -78.5l186 -269h-224l-164 247h-30v-247h-185zM257 542v-144h98q39 0 63.5 19t24.5 54t-24.5 53t-63.5 18h-98z" />
<glyph unicode="S" horiz-adv-x="633" d="M585 482h-192q0 74 -80 74q-34 0 -55 -13.5t-21 -36.5q0 -21 13.5 -33t46.5 -22l123 -37q173 -53 173 -197q0 -114 -74 -172.5t-198 -58.5q-126 0 -205 62t-83 185h189q0 -42 28.5 -63t67.5 -21q87 0 87 56q0 20 -15 32t-48 22l-127 40q-164 51 -164 202q0 98 75.5 157 t188.5 59q115 0 189.5 -59.5t80.5 -175.5z" />
<glyph unicode="T" horiz-adv-x="582" d="M198 0v534h-181v169h548v-169h-182v-534h-185z" />
<glyph unicode="U" horiz-adv-x="697" d="M632 703v-455q0 -117 -81.5 -189.5t-203.5 -72.5q-121 0 -201.5 72.5t-80.5 189.5v455h185v-449q0 -42 24 -67.5t68 -25.5q51 0 78 26.5t27 66.5v449h185z" />
<glyph unicode="V" horiz-adv-x="687" d="M244 0l-227 703h206l125 -441l127 441h195l-228 -703h-198z" />
<glyph unicode="W" horiz-adv-x="1049" d="M214 0l-198 703h200l109 -432l121 432h170l119 -431l112 431h187l-200 -703h-196l-112 376l-115 -376h-197z" />
<glyph unicode="X" horiz-adv-x="697" d="M-9 0l246 361l-228 342h217l123 -195l128 195h205l-227 -336l255 -367h-222l-145 216l-143 -216h-209z" />
<glyph unicode="Y" horiz-adv-x="680" d="M249 0v229l-235 474h211l118 -268l129 268h194l-232 -465v-238h-185z" />
<glyph unicode="Z" horiz-adv-x="621" d="M40 0v148l296 386h-285v169h520v-158l-292 -376h301v-169h-540z" />
<glyph unicode="[" horiz-adv-x="384" d="M345 647h-99v-624h99v-163h-276v950h276v-163z" />
<glyph unicode="\" horiz-adv-x="459" d="M22 810h177l237 -950h-177z" />
<glyph unicode="]" horiz-adv-x="384" d="M39 647v163h276v-950h-276v163h99v624h-99z" />
<glyph unicode="^" d="M371 703l188 -419h-186l-88 204l-88 -204h-187l190 419h171z" />
<glyph unicode="_" horiz-adv-x="440" d="M441 -60v-152h-442v152h442z" />
<glyph unicode="`" horiz-adv-x="330" d="M292 567h-168l-86 150h171z" />
<glyph unicode="a" horiz-adv-x="557" d="M335 52q-46 -66 -134 -66q-72 0 -119.5 40t-47.5 107q0 68 45 110t144 63l105 23v5q0 20 -14 32.5t-39 12.5q-55 0 -60 -46h-172q5 82 70.5 136.5t165.5 54.5q110 0 167 -58t57 -150v-316h-168v52zM328 206v10l-58 -13q-62 -13 -62 -46t42 -33q31 0 54.5 25.5t23.5 56.5z " />
<glyph unicode="b" horiz-adv-x="655" d="M60 0v741h177v-287q58 70 151 70q105 0 170 -74.5t65 -192.5q0 -119 -65.5 -195t-170.5 -76q-102 0 -159 75v-61h-168zM334 364q-48 0 -75 -31t-27 -78t27 -78t75 -31q49 0 76 31t27 78t-27 78t-76 31z" />
<glyph unicode="c" horiz-adv-x="605" d="M577 295h-176q-8 30 -32.5 48t-59.5 18q-47 0 -75 -30t-28 -76t28 -76t75 -30q36 0 60 18.5t33 48.5h175q-12 -100 -85 -165t-183 -65q-125 0 -202 77.5t-77 192.5q0 114 77 191t202 77q110 0 183 -65t85 -164z" />
<glyph unicode="d" horiz-adv-x="654" d="M266 -14q-105 0 -170 74.5t-65 192.5q0 119 65.5 195t170.5 76q94 0 150 -64v281h177v-741h-167v68q-59 -82 -161 -82zM320 146q48 0 75 31t27 78t-27 78t-75 31q-49 0 -76 -31t-27 -78t27 -78t76 -31z" />
<glyph unicode="e" horiz-adv-x="604" d="M394 168h170q-23 -85 -91 -133.5t-171 -48.5q-122 0 -197 77.5t-75 191.5q0 113 78 191t197 78q124 0 196 -74t72 -187v-52h-375q20 -84 106 -84q63 0 90 41zM305 383q-73 0 -99 -62h198q-24 62 -99 62z" />
<glyph unicode="f" horiz-adv-x="417" d="M109 0v352h-73v158h73v37q0 100 47 154t154 54q46 0 94 -12v-155q-35 10 -63 10q-29 0 -42 -12t-13 -41v-35h113v-158h-113v-352h-177z" />
<glyph unicode="g" horiz-adv-x="632" d="M212 -22q6 -57 90 -57q47 0 70.5 24t23.5 64v71q-53 -56 -138 -56q-101 0 -162.5 69t-61.5 180t63 181t167 70q90 0 142 -65v51h167v-483q0 -112 -68.5 -182.5t-201.5 -70.5q-113 0 -186.5 58t-78.5 146h174zM309 180q43 0 67.5 26.5t24.5 67.5t-24.5 67.5t-67.5 26.5 q-42 0 -66.5 -27t-24.5 -67q0 -41 24.5 -67.5t66.5 -26.5z" />
<glyph unicode="h" horiz-adv-x="608" d="M60 0v741h177v-277q50 60 138 60q82 0 130 -51.5t48 -132.5v-340h-177v288q0 73 -69 73q-70 0 -70 -73v-288h-177z" />
<glyph unicode="i" horiz-adv-x="297" d="M148 755q49 0 78 -29.5t29 -73.5q0 -42 -29 -72t-78 -30t-77.5 29.5t-28.5 72.5q0 44 28.5 73.5t77.5 29.5zM60 0v510h177v-510h-177z" />
<glyph unicode="j" horiz-adv-x="305" d="M156 755q49 0 78 -29.5t29 -73.5q0 -42 -29 -72t-78 -30t-77.5 29.5t-28.5 72.5q0 44 28.5 73.5t77.5 29.5zM245 510v-528q0 -100 -47 -154t-154 -54q-31 0 -61 5v154q20 -2 30 -2q29 0 42 12t13 40v527h177z" />
<glyph unicode="k" horiz-adv-x="574" d="M60 0v741h177v-429l118 198h196l-144 -227l174 -283h-206l-138 234v-234h-177z" />
<glyph unicode="l" horiz-adv-x="297" d="M60 0v741h177v-741h-177z" />
<glyph unicode="m" horiz-adv-x="904" d="M60 0v510h168v-57q49 71 142 71q99 0 146 -77q54 77 159 77q81 0 127.5 -51.5t46.5 -132.5v-340h-177v288q0 73 -64 73q-65 0 -65 -73v-288h-177v288q0 73 -64 73q-65 0 -65 -73v-288h-177z" />
<glyph unicode="n" horiz-adv-x="608" d="M60 0v510h168v-57q52 71 147 71q82 0 130 -51.5t48 -132.5v-340h-177v288q0 73 -69 73q-70 0 -70 -73v-288h-177z" />
<glyph unicode="o" horiz-adv-x="618" d="M308 524q125 0 202.5 -77t77.5 -191t-77.5 -192t-202.5 -78t-201.5 77.5t-76.5 192.5q0 114 76.5 191t201.5 77zM308 361q-47 0 -75 -30t-28 -76t28 -76t75 -30q48 0 76.5 30t28.5 76t-28.5 76t-76.5 30z" />
<glyph unicode="p" horiz-adv-x="655" d="M60 510h168v-67q59 81 160 81q105 0 170 -74.5t65 -192.5q0 -119 -65.5 -195t-170.5 -76q-94 0 -150 64v-262h-177v722zM334 364q-48 0 -75 -31t-27 -78t27 -78t75 -31q49 0 76 31t27 78t-27 78t-76 31z" />
<glyph unicode="q" horiz-adv-x="654" d="M266 -14q-105 0 -170 74.5t-65 192.5q0 119 65.5 195t170.5 76q103 0 160 -77v63h167v-722h-177v268q-58 -70 -151 -70zM320 146q48 0 75 31t27 78t-27 78t-75 31q-49 0 -76 -31t-27 -78t27 -78t76 -31z" />
<glyph unicode="r" horiz-adv-x="414" d="M237 216v-216h-177v510h168v-83q48 95 138 95q21 0 33 -3v-167q-20 6 -44 6q-64 0 -91 -40t-27 -102z" />
<glyph unicode="s" horiz-adv-x="524" d="M484 352h-181q0 39 -41 39q-37 0 -37 -24q0 -14 10 -21t39 -13l33 -7q91 -20 138 -55.5t47 -108.5q0 -85 -62 -130.5t-162 -45.5q-108 0 -172.5 45t-69.5 137h186q0 -50 51 -50q46 0 46 29q0 15 -11 22.5t-37 13.5l-38 8q-55 12 -90.5 27t-62 49.5t-26.5 86.5 q0 80 63 125t158 45q93 0 152.5 -43.5t66.5 -128.5z" />
<glyph unicode="t" horiz-adv-x="429" d="M97 648l177 41v-179h113v-158h-113v-157q0 -29 12.5 -40.5t39.5 -11.5q35 0 66 16v-154q-45 -19 -109 -19q-98 0 -142 49.5t-44 144.5v172h-73v158h73v138z" />
<glyph unicode="u" horiz-adv-x="599" d="M362 222v288h177v-510h-168v57q-49 -71 -142 -71q-80 0 -126.5 51.5t-46.5 132.5v340h177v-288q0 -77 62 -77q67 0 67 77z" />
<glyph unicode="v" horiz-adv-x="577" d="M189 0l-179 510h188l93 -284l93 284h183l-180 -510h-198z" />
<glyph unicode="w" horiz-adv-x="880" d="M175 0l-166 510h177l85 -283l86 283h170l86 -285l86 285h172l-166 -510h-178l-87 267l-87 -267h-178z" />
<glyph unicode="x" horiz-adv-x="558" d="M1 0l173 255l-167 255h199l77 -123l79 123h186l-167 -249l179 -261h-205l-82 126l-82 -126h-190z" />
<glyph unicode="y" horiz-adv-x="575" d="M564 510l-250 -722h-178l66 194l-194 528h188l93 -284l93 284h182z" />
<glyph unicode="z" horiz-adv-x="537" d="M31 0v117l228 235h-210v158h439v-125l-213 -227h229v-158h-473z" />
<glyph unicode="{" horiz-adv-x="388" d="M276 236v-172q0 -51 41 -51q13 0 29 2v-163q-20 -2 -36 -2q-211 0 -211 194v182q0 32 -11.5 46t-38.5 14h-20v148h20q27 0 38.5 14t11.5 46v132q0 194 211 194q16 0 36 -2v-163q-16 2 -29 2q-41 0 -41 -51v-122q0 -94 -59 -124q59 -31 59 -124z" />
<glyph unicode="|" horiz-adv-x="315" d="M246 810v-950h-177v950h177z" />
<glyph unicode="}" horiz-adv-x="388" d="M112 236q0 93 59 124q-59 30 -59 124v122q0 51 -41 51q-13 0 -29 -2v163q20 2 36 2q211 0 211 -194v-132q0 -32 11.5 -46t38.5 -14h20v-148h-20q-27 0 -38.5 -14t-11.5 -46v-182q0 -194 -211 -194q-16 0 -36 2v163q16 -2 29 -2q41 0 41 51v172z" />
<glyph unicode="~" d="M186 457q55 0 121.5 -25.5t93.5 -25.5q30 0 53 10.5t35 23t27 33.5v-173q-10 -19 -45 -39t-84 -20q-55 0 -111 25.5t-98 25.5q-43 0 -70.5 -20t-51.5 -54v167q12 23 46.5 47.5t83.5 24.5z" />
<glyph unicode="&#xa1;" horiz-adv-x="299" d="M149 524q50 0 82 -32.5t32 -77.5q0 -48 -32 -80t-82 -32t-81.5 32t-31.5 80q0 46 31.5 78t81.5 32zM93 267h113l37 -226v-234h-187v234z" />
<glyph unicode="&#xa2;" horiz-adv-x="612" d="M223 -49v145q-86 27 -136 96.5t-50 160.5q0 90 50 159.5t136 95.5v102l177 41v-141q77 -22 126 -81t58 -137h-176q-8 30 -32.5 48t-59.5 18q-47 0 -75 -30t-28 -76t28 -76t75 -30q36 0 60 18.5t33 48.5h175q-9 -79 -58 -138t-126 -81v-102z" />
<glyph unicode="&#xa3;" horiz-adv-x="690" d="M47 0v146q27 7 56 36t33 66h-89v145h80q-4 48 -4 65q0 71 23.5 123.5t62.5 81t82 41.5t91 13t92.5 -13.5t84.5 -41.5t63.5 -79.5t23.5 -119.5h-185q0 79 -75 79q-78 0 -78 -90q0 -15 4 -59h152v-145h-145q-7 -42 -30 -79h357v-169h-599z" />
<glyph unicode="&#xa4;" horiz-adv-x="687" d="M37 83l121 172q-21 44 -21 91q0 49 22 93l-122 173h171l53 -76q39 18 84 18q42 0 81 -17l53 75h171l-121 -171q24 -45 24 -95t-23 -94l120 -169h-171l-51 73q-39 -18 -83 -18q-42 0 -85 18l-52 -73h-171zM413 346q0 28 -19.5 48t-48.5 20t-48.5 -19.5t-19.5 -48.5 t19.5 -48.5t48.5 -19.5t48.5 19.5t19.5 48.5z" />
<glyph unicode="&#xa5;" horiz-adv-x="707" d="M262 0v114h-185v115h185l-19 38h-166v115h109l-159 321h211l118 -268l129 268h194l-160 -321h113v-115h-171l-14 -38h185v-115h-185v-114h-185z" />
<glyph unicode="&#xa6;" horiz-adv-x="319" d="M248 810v-400h-177v400h177zM71 260h177v-400h-177v400z" />
<glyph unicode="&#xa7;" horiz-adv-x="597" d="M519 253h-193l-91 38q-93 39 -143 87.5t-50 131.5q0 94 71 150.5t180 56.5q116 0 191 -62.5t78 -169.5h-184q0 38 -23 56t-56 18q-34 0 -52 -15t-18 -39q0 -26 26 -43.5t106 -54.5l158 -72v-82zM78 239h193l91 -39q95 -41 144.5 -88.5t49.5 -130.5q0 -94 -70.5 -150.5 t-178.5 -56.5q-118 0 -193.5 62.5t-78.5 169.5h184q0 -38 23 -56t56 -18q34 0 52 15t18 39q0 26 -26 43.5t-106 54.5l-158 72v83z" />
<glyph unicode="&#xa8;" horiz-adv-x="431" d="M123 555q-36 0 -60.5 24.5t-24.5 60.5t24.5 61t60.5 25q35 0 59 -25t24 -61q0 -35 -24 -60t-59 -25zM310 555q-36 0 -60.5 24.5t-24.5 60.5t24.5 61t60.5 25q35 0 59 -25t24 -61q0 -35 -24 -60t-59 -25z" />
<glyph unicode="&#xa9;" horiz-adv-x="801" d="M401 717q150 0 257 -107t107 -258t-107 -258.5t-257 -107.5q-151 0 -258 107.5t-107 258.5t107 258t258 107zM401 633q-115 0 -198 -82.5t-83 -198.5t83 -198.5t198 -82.5t197.5 83t82.5 198t-82.5 198t-197.5 83zM601 384h-130q-19 46 -68 46q-34 0 -54.5 -22t-20.5 -56 q0 -33 20.5 -55.5t54.5 -22.5q51 0 68 47h130q-11 -73 -64 -120t-134 -47q-92 0 -148.5 57t-56.5 142q0 84 56.5 140.5t148.5 56.5q80 0 134 -47t64 -119z" />
<glyph unicode="&#xaa;" horiz-adv-x="353" d="M207 478q-23 -31 -67 -31q-37 0 -61 20t-24 54t23 54.5t74 32.5l50 11v2q0 19 -26 19t-28 -19h-90q2 41 35.5 68.5t84.5 27.5q57 0 86.5 -29.5t29.5 -75.5v-158h-87v24zM202 557v1l-30 -8q-24 -6 -24 -18q0 -13 16 -13t27 12t11 26zM294 392v-100h-235v100h235z" />
<glyph unicode="&#xab;" horiz-adv-x="563" d="M26 255l109 220h171l-110 -220l110 -219h-171zM252 255l109 220h171l-110 -220l110 -219h-171z" />
<glyph unicode="&#xac;" d="M46 415h470v-300h-140v160h-330v140z" />
<glyph unicode="&#xad;" horiz-adv-x="356" d="M303 332v-152h-250v152h250z" />
<glyph unicode="&#xae;" horiz-adv-x="589" d="M41 463q0 106 73.5 180t179.5 74t180 -73.5t74 -180.5q0 -106 -74 -179.5t-180 -73.5t-179.5 73.5t-73.5 179.5zM115 463q0 -75 52 -127t127 -52q76 0 128 52t52 127q0 76 -52 128t-128 52q-75 0 -127 -52t-52 -128zM195 349v232h116q37 0 65 -22.5t28 -58.5 q0 -44 -38 -69l49 -82h-94l-36 64h-9v-64h-81zM276 512v-37h25q20 0 20 19q0 7 -5 12.5t-15 5.5h-25z" />
<glyph unicode="&#xaf;" horiz-adv-x="375" d="M38 579v118h299v-118h-299z" />
<glyph unicode="&#xb0;" horiz-adv-x="382" d="M191 400q-67 0 -114 46t-47 113q0 66 47 112t114 46t114 -46t47 -112q0 -67 -47 -113t-114 -46zM191 503q23 0 39.5 16.5t16.5 38.5t-16.5 39t-39.5 17t-39.5 -17t-16.5 -39t16.5 -38.5t39.5 -16.5z" />
<glyph unicode="&#xb1;" d="M215 195v125h-165v140h165v125h140v-125h165v-140h-165v-125h-140zM50 140h470v-140h-470v140z" />
<glyph unicode="&#xb2;" horiz-adv-x="332" d="M34 492v88l122 107q21 18 21 41q0 17 -18 17t-21 -22h-113q3 53 39.5 90.5t100.5 37.5q57 0 93 -30.5t36 -81.5q0 -38 -18 -66t-55 -60l-17 -15h99v-106h-269z" />
<glyph unicode="&#xb3;" horiz-adv-x="331" d="M135 601q6 -24 29 -24q28 0 28 28t-39 28h-28v78h24q35 0 35 24t-23 24q-21 0 -24 -26h-111q3 49 37 83.5t98 34.5q66 0 99.5 -30.5t33.5 -69.5q0 -51 -40 -75q50 -24 50 -80q0 -44 -35 -77.5t-105 -33.5q-66 0 -100.5 33t-39.5 83h111z" />
<glyph unicode="&#xb4;" horiz-adv-x="330" d="M38 567l83 150h171l-86 -150h-168z" />
<glyph unicode="&#xb5;" horiz-adv-x="616" d="M373 222v288h177v-510h-168v57q-49 -71 -138 -71v-198h-177v722h177v-288q0 -77 62 -77q67 0 67 77z" />
<glyph unicode="&#xb6;" horiz-adv-x="694" d="M413 -140h-145v419h-8q-99 0 -166.5 56.5t-67.5 159.5q0 99 68 153.5t166 54.5h153v-843zM468 -140v843h145v-843h-145z" />
<glyph unicode="&#xb7;" horiz-adv-x="301" d="M150 237q-50 0 -81.5 32t-31.5 78q0 48 31.5 80t81.5 32t82 -32t32 -80q0 -45 -32 -77.5t-82 -32.5z" />
<glyph unicode="&#xb8;" horiz-adv-x="346" d="M114 13h113l-36 -58q58 -3 91.5 -34.5t33.5 -83.5q0 -54 -40.5 -89t-102.5 -35q-60 0 -102 30.5t-48 81.5l115 1q4 -21 31 -21q15 0 23.5 9t8.5 22q0 31 -32 31q-24 0 -32 -18l-99 40z" />
<glyph unicode="&#xb9;" horiz-adv-x="230" d="M75 492v246h-62l25 106h148v-352h-111z" />
<glyph unicode="&#xba;" horiz-adv-x="379" d="M189 717q59 0 98 -38.5t39 -94.5q0 -58 -39 -97.5t-98 -39.5t-97.5 39.5t-38.5 97.5q0 56 38.5 94.5t97.5 38.5zM190 627q-19 0 -30 -13t-11 -32t11 -32t30 -13q41 0 41 45t-41 45zM322 392v-100h-264v100h264z" />
<glyph unicode="&#xbb;" horiz-adv-x="563" d="M537 255l-109 -219h-171l110 219l-110 220h171zM311 255l-109 -219h-171l110 219l-110 220h171z" />
<glyph unicode="&#xbc;" horiz-adv-x="731" d="M109 351v246h-62l25 106h148v-352h-111zM705 703l-547 -703h-131l547 703h131zM494 352h128l-113 -209h37v42l110 25v-67h21v-100h-21v-43h-110v43h-167v89z" />
<glyph unicode="&#xbd;" horiz-adv-x="754" d="M109 351v246h-62l25 106h148v-352h-111zM705 703l-547 -703h-131l547 703h131zM443 0v88l122 107q21 18 21 41q0 17 -18 17t-21 -22h-113q3 53 39.5 90.5t100.5 37.5q57 0 93 -30.5t36 -81.5q0 -38 -18 -66t-55 -60l-17 -15h99v-106h-269z" />
<glyph unicode="&#xbe;" horiz-adv-x="753" d="M149 460q6 -24 29 -24q28 0 28 28t-39 28h-28v78h24q35 0 35 24t-23 24q-21 0 -24 -26h-111q3 49 37 83.5t98 34.5q66 0 99.5 -30.5t33.5 -69.5q0 -51 -40 -75q50 -24 50 -80q0 -44 -35 -77.5t-105 -33.5q-66 0 -100.5 33t-39.5 83h111zM728 703l-547 -703h-131l547 703 h131zM517 352h128l-113 -209h37v42l110 25v-67h21v-100h-21v-43h-110v43h-167v89z" />
<glyph unicode="&#xbf;" horiz-adv-x="577" d="M305 524q50 0 81.5 -32t31.5 -78q0 -48 -31.5 -80t-81.5 -32t-82 32t-32 80q0 45 32 77.5t82 32.5zM391 267v-77l-116 -83q-54 -38 -54 -90q0 -27 18 -44t52 -17q33 0 56 18t23 56h184q-3 -109 -79 -173t-194 -64q-110 0 -181 57t-71 152q0 63 27 113t67 79l100 73h168z " />
<glyph unicode="&#xc0;" horiz-adv-x="714" d="M441 760h-168l-86 150h171zM457 703l245 -703h-198l-34 107h-236l-34 -107h-189l247 703h199zM352 484l-70 -222h140z" />
<glyph unicode="&#xc1;" horiz-adv-x="714" d="M273 760l83 150h171l-86 -150h-168zM457 703l245 -703h-198l-34 107h-236l-34 -107h-189l247 703h199zM352 484l-70 -222h140z" />
<glyph unicode="&#xc2;" horiz-adv-x="714" d="M253 910h206l93 -150h-155l-42 69l-42 -69h-152zM457 703l245 -703h-198l-34 107h-236l-34 -107h-189l247 703h199zM352 484l-70 -222h140z" />
<glyph unicode="&#xc3;" horiz-adv-x="714" d="M402 875q14 0 19 35h116q-7 -157 -119 -157q-33 0 -62 21.5t-39 21.5q-9 0 -14 -7t-9 -29h-117q7 158 119 158q36 0 68 -21.5t38 -21.5zM457 703l245 -703h-198l-34 107h-236l-34 -107h-189l247 703h199zM352 484l-70 -222h140z" />
<glyph unicode="&#xc4;" horiz-adv-x="714" d="M265 748q-36 0 -60.5 24.5t-24.5 60.5t24.5 61t60.5 25q35 0 59 -25t24 -61q0 -35 -24 -60t-59 -25zM452 748q-36 0 -60.5 24.5t-24.5 60.5t24.5 61t60.5 25q35 0 59 -25t24 -61q0 -35 -24 -60t-59 -25zM457 703l245 -703h-198l-34 107h-236l-34 -107h-189l247 703h199z M352 484l-70 -222h140z" />
<glyph unicode="&#xc5;" horiz-adv-x="714" d="M356 749q-55 0 -91.5 33.5t-36.5 86.5q0 52 36.5 86.5t91.5 34.5q53 0 91 -35t38 -86q0 -52 -37.5 -86t-91.5 -34zM356 835q16 0 25.5 9.5t9.5 24.5t-9.5 25t-25.5 10q-15 0 -24.5 -10t-9.5 -25q0 -14 9.5 -24t24.5 -10zM457 703l245 -703h-198l-34 107h-236l-34 -107 h-189l247 703h199zM352 484l-70 -222h140z" />
<glyph unicode="&#xc6;" horiz-adv-x="940" d="M423 0v107h-203l-53 -107h-192l360 703h551v-169h-278v-99h254v-159h-254v-107h283v-169h-468zM298 262h125v251z" />
<glyph unicode="&#xc7;" horiz-adv-x="806" d="M776 300q-16 -125 -103.5 -211.5t-221.5 -100.5l-21 -33q58 -3 91.5 -34.5t33.5 -83.5q0 -54 -40.5 -89t-102.5 -35q-60 0 -102 30.5t-48 81.5l115 1q5 -21 31 -21q15 0 23.5 9t8.5 22q0 31 -32 31q-24 0 -32 -18l-99 40l62 102q-138 21 -221 122t-83 239 q0 155 102.5 260t267.5 105q148 0 247.5 -83.5t121.5 -214.5h-199q-18 56 -62.5 89.5t-108.5 33.5q-79 0 -127 -55t-48 -136t48 -135t127 -54q71 0 117 37.5t60 100.5h195z" />
<glyph unicode="&#xc8;" horiz-adv-x="589" d="M387 760h-168l-86 150h171zM72 0v703h463v-169h-278v-99h254v-159h-254v-107h283v-169h-468z" />
<glyph unicode="&#xc9;" horiz-adv-x="589" d="M219 760l83 150h171l-86 -150h-168zM72 0v703h463v-169h-278v-99h254v-159h-254v-107h283v-169h-468z" />
<glyph unicode="&#xca;" horiz-adv-x="589" d="M199 910h206l93 -150h-155l-42 69l-42 -69h-152zM72 0v703h463v-169h-278v-99h254v-159h-254v-107h283v-169h-468z" />
<glyph unicode="&#xcb;" horiz-adv-x="589" d="M211 748q-36 0 -60.5 24.5t-24.5 60.5t24.5 61t60.5 25q35 0 59 -25t24 -61q0 -35 -24 -60t-59 -25zM398 748q-36 0 -60.5 24.5t-24.5 60.5t24.5 61t60.5 25q35 0 59 -25t24 -61q0 -35 -24 -60t-59 -25zM72 0v703h463v-169h-278v-99h254v-159h-254v-107h283v-169h-468z " />
<glyph unicode="&#xcc;" horiz-adv-x="329" d="M248 760h-168l-86 150h171zM72 0v703h185v-703h-185z" />
<glyph unicode="&#xcd;" horiz-adv-x="329" d="M81 760l83 150h171l-86 -150h-168zM72 0v703h185v-703h-185z" />
<glyph unicode="&#xce;" horiz-adv-x="329" d="M60 910h206l93 -150h-155l-42 69l-42 -69h-152zM72 0v703h185v-703h-185z" />
<glyph unicode="&#xcf;" horiz-adv-x="329" d="M72 748q-36 0 -60.5 24.5t-24.5 60.5t24.5 61t60.5 25q35 0 59 -25t24 -61q0 -35 -24 -60t-59 -25zM259 748q-36 0 -60.5 24.5t-24.5 60.5t24.5 61t60.5 25q35 0 59 -25t24 -61q0 -35 -24 -60t-59 -25zM72 0v703h185v-703h-185z" />
<glyph unicode="&#xd0;" horiz-adv-x="799" d="M106 0v288h-87v120h87v295h278q75 0 142.5 -22t120.5 -64.5t84 -110t31 -152.5q0 -86 -31 -155t-84 -111.5t-120.5 -65t-142.5 -22.5h-278zM291 175h87q86 0 138 45.5t52 133.5q0 85 -52 129.5t-138 44.5h-87v-120h130v-120h-130v-113z" />
<glyph unicode="&#xd1;" horiz-adv-x="730" d="M411 875q14 0 19 35h116q-7 -157 -119 -157q-33 0 -62 21.5t-39 21.5q-9 0 -14 -7t-9 -29h-117q7 158 119 158q27 0 48.5 -11t35.5 -21.5t22 -10.5zM72 0v703h175l237 -389v389h174v-703h-177l-235 386v-386h-174z" />
<glyph unicode="&#xd2;" horiz-adv-x="824" d="M496 760h-168l-86 150h171zM411 717q169 0 273.5 -105t104.5 -260t-104.5 -260.5t-273.5 -105.5q-168 0 -272 105.5t-104 260.5t103.5 260t272.5 105zM411 542q-83 0 -132.5 -55t-49.5 -136q0 -82 49.5 -136t132.5 -54q84 0 134 54t50 136q0 81 -50 136t-134 55z" />
<glyph unicode="&#xd3;" horiz-adv-x="824" d="M328 760l83 150h171l-86 -150h-168zM411 717q169 0 273.5 -105t104.5 -260t-104.5 -260.5t-273.5 -105.5q-168 0 -272 105.5t-104 260.5t103.5 260t272.5 105zM411 542q-83 0 -132.5 -55t-49.5 -136q0 -82 49.5 -136t132.5 -54q84 0 134 54t50 136q0 81 -50 136t-134 55z " />
<glyph unicode="&#xd4;" horiz-adv-x="824" d="M308 910h206l93 -150h-155l-42 69l-42 -69h-152zM411 717q169 0 273.5 -105t104.5 -260t-104.5 -260.5t-273.5 -105.5q-168 0 -272 105.5t-104 260.5t103.5 260t272.5 105zM411 542q-83 0 -132.5 -55t-49.5 -136q0 -82 49.5 -136t132.5 -54q84 0 134 54t50 136 q0 81 -50 136t-134 55z" />
<glyph unicode="&#xd5;" horiz-adv-x="824" d="M457 875q14 0 19 35h116q-7 -157 -119 -157q-33 0 -62 21.5t-39 21.5q-9 0 -14 -7t-9 -29h-117q7 158 119 158q27 0 48.5 -11t35.5 -21.5t22 -10.5zM411 717q169 0 273.5 -105t104.5 -260t-104.5 -260.5t-273.5 -105.5q-168 0 -272 105.5t-104 260.5t103.5 260t272.5 105 zM411 542q-83 0 -132.5 -55t-49.5 -136q0 -82 49.5 -136t132.5 -54q84 0 134 54t50 136q0 81 -50 136t-134 55z" />
<glyph unicode="&#xd6;" horiz-adv-x="824" d="M320 748q-36 0 -60.5 24.5t-24.5 60.5t24.5 61t60.5 25q35 0 59 -25t24 -61q0 -35 -24 -60t-59 -25zM507 748q-36 0 -60.5 24.5t-24.5 60.5t24.5 61t60.5 25q35 0 59 -25t24 -61q0 -35 -24 -60t-59 -25zM411 717q169 0 273.5 -105t104.5 -260t-104.5 -260.5 t-273.5 -105.5q-168 0 -272 105.5t-104 260.5t103.5 260t272.5 105zM411 542q-83 0 -132.5 -55t-49.5 -136q0 -82 49.5 -136t132.5 -54q84 0 134 54t50 136q0 81 -50 136t-134 55z" />
<glyph unicode="&#xd7;" d="M55 216l131 131l-131 130l99 99l131 -130l130 130l99 -99l-130 -130l130 -131l-99 -99l-130 131l-131 -131z" />
<glyph unicode="&#xd8;" horiz-adv-x="825" d="M218 -34h-183l98 132q-97 103 -97 254q0 155 103.5 260t272.5 105q85 0 159 -30l38 50h180l-97 -132q98 -101 98 -253q0 -155 -104.5 -260.5t-273.5 -105.5q-83 0 -157 29zM412 542q-83 0 -132.5 -55t-49.5 -136q0 -56 25 -103l213 286q-27 8 -56 8zM596 351 q0 57 -26 103l-212 -286q24 -7 54 -7q84 0 134 54t50 136z" />
<glyph unicode="&#xd9;" horiz-adv-x="697" d="M432 760h-168l-86 150h171zM632 703v-455q0 -117 -81.5 -189.5t-203.5 -72.5q-121 0 -201.5 72.5t-80.5 189.5v455h185v-449q0 -42 24 -67.5t68 -25.5q51 0 78 26.5t27 66.5v449h185z" />
<glyph unicode="&#xda;" horiz-adv-x="697" d="M264 760l83 150h171l-86 -150h-168zM632 703v-455q0 -117 -81.5 -189.5t-203.5 -72.5q-121 0 -201.5 72.5t-80.5 189.5v455h185v-449q0 -42 24 -67.5t68 -25.5q51 0 78 26.5t27 66.5v449h185z" />
<glyph unicode="&#xdb;" horiz-adv-x="697" d="M244 910h206l93 -150h-155l-42 69l-42 -69h-152zM632 703v-455q0 -117 -81.5 -189.5t-203.5 -72.5q-121 0 -201.5 72.5t-80.5 189.5v455h185v-449q0 -42 24 -67.5t68 -25.5q51 0 78 26.5t27 66.5v449h185z" />
<glyph unicode="&#xdc;" horiz-adv-x="697" d="M256 748q-36 0 -60.5 24.5t-24.5 60.5t24.5 61t60.5 25q35 0 59 -25t24 -61q0 -35 -24 -60t-59 -25zM443 748q-36 0 -60.5 24.5t-24.5 60.5t24.5 61t60.5 25q35 0 59 -25t24 -61q0 -35 -24 -60t-59 -25zM632 703v-455q0 -117 -81.5 -189.5t-203.5 -72.5 q-121 0 -201.5 72.5t-80.5 189.5v455h185v-449q0 -42 24 -67.5t68 -25.5q51 0 78 26.5t27 66.5v449h185z" />
<glyph unicode="&#xdd;" horiz-adv-x="680" d="M270 760l83 150h171l-86 -150h-168zM249 0v229l-235 474h211l118 -268l129 268h194l-232 -465v-238h-185z" />
<glyph unicode="&#xde;" horiz-adv-x="670" d="M257 703v-109h108q115 0 194.5 -62.5t79.5 -175.5q0 -118 -79.5 -182t-194.5 -64h-108v-110h-185v703h185zM257 431v-158h98q40 0 65 20.5t25 60.5q0 38 -25 57.5t-65 19.5h-98z" />
<glyph unicode="&#xdf;" horiz-adv-x="635" d="M346 149q37 0 60.5 24.5t23.5 60.5q0 33 -24.5 56.5t-63.5 23.5h-54v134h31q34 0 53 21t19 51t-20.5 51t-56.5 21t-56.5 -22.5t-20.5 -54.5v-515h-177v491q0 71 23.5 124.5t62.5 82.5t82.5 43t91.5 14q99 0 172.5 -53t73.5 -152q0 -105 -73 -153q55 -28 83.5 -76.5 t28.5 -105.5q0 -100 -66.5 -164.5t-162.5 -64.5q-51 0 -88 20v155q24 -12 58 -12z" />
<glyph unicode="&#xe0;" horiz-adv-x="557" d="M359 567h-168l-86 150h171zM335 52q-46 -66 -134 -66q-72 0 -119.5 40t-47.5 107q0 68 45 110t144 63l105 23v5q0 20 -14 32.5t-39 12.5q-55 0 -60 -46h-172q5 82 70.5 136.5t165.5 54.5q110 0 167 -58t57 -150v-316h-168v52zM328 206v10l-58 -13q-62 -13 -62 -46t42 -33 q31 0 54.5 25.5t23.5 56.5z" />
<glyph unicode="&#xe1;" horiz-adv-x="557" d="M191 567l83 150h171l-86 -150h-168zM335 52q-46 -66 -134 -66q-72 0 -119.5 40t-47.5 107q0 68 45 110t144 63l105 23v5q0 20 -14 32.5t-39 12.5q-55 0 -60 -46h-172q5 82 70.5 136.5t165.5 54.5q110 0 167 -58t57 -150v-316h-168v52zM328 206v10l-58 -13 q-62 -13 -62 -46t42 -33q31 0 54.5 25.5t23.5 56.5z" />
<glyph unicode="&#xe2;" horiz-adv-x="557" d="M172 717h206l93 -150h-155l-42 69l-42 -69h-152zM335 52q-46 -66 -134 -66q-72 0 -119.5 40t-47.5 107q0 68 45 110t144 63l105 23v5q0 20 -14 32.5t-39 12.5q-55 0 -60 -46h-172q5 82 70.5 136.5t165.5 54.5q110 0 167 -58t57 -150v-316h-168v52zM328 206v10l-58 -13 q-62 -13 -62 -46t42 -33q31 0 54.5 25.5t23.5 56.5z" />
<glyph unicode="&#xe3;" horiz-adv-x="557" d="M320 682q14 0 19 35h116q-7 -157 -119 -157q-33 0 -62 21.5t-39 21.5q-9 0 -14 -7t-9 -29h-117q7 158 119 158q35 0 67.5 -21.5t38.5 -21.5zM335 52q-46 -66 -134 -66q-72 0 -119.5 40t-47.5 107q0 68 45 110t144 63l105 23v5q0 20 -14 32.5t-39 12.5q-55 0 -60 -46h-172 q5 82 70.5 136.5t165.5 54.5q110 0 167 -58t57 -150v-316h-168v52zM328 206v10l-58 -13q-62 -13 -62 -46t42 -33q31 0 54.5 25.5t23.5 56.5z" />
<glyph unicode="&#xe4;" horiz-adv-x="557" d="M183 555q-36 0 -60.5 24.5t-24.5 60.5t24.5 61t60.5 25q35 0 59 -25t24 -61q0 -35 -24 -60t-59 -25zM370 555q-36 0 -60.5 24.5t-24.5 60.5t24.5 61t60.5 25q35 0 59 -25t24 -61q0 -35 -24 -60t-59 -25zM335 52q-46 -66 -134 -66q-72 0 -119.5 40t-47.5 107q0 68 45 110 t144 63l105 23v5q0 20 -14 32.5t-39 12.5q-55 0 -60 -46h-172q5 82 70.5 136.5t165.5 54.5q110 0 167 -58t57 -150v-316h-168v52zM328 206v10l-58 -13q-62 -13 -62 -46t42 -33q31 0 54.5 25.5t23.5 56.5z" />
<glyph unicode="&#xe5;" horiz-adv-x="557" d="M274 556q-55 0 -91.5 33.5t-36.5 86.5q0 52 36.5 86.5t91.5 34.5q53 0 91 -35t38 -86q0 -52 -37.5 -86t-91.5 -34zM274 642q16 0 25.5 10t9.5 24q0 15 -9.5 25t-25.5 10q-15 0 -24.5 -10t-9.5 -25q0 -14 9.5 -24t24.5 -10zM335 52q-46 -66 -134 -66q-72 0 -119.5 40 t-47.5 107q0 68 45 110t144 63l105 23v5q0 20 -14 32.5t-39 12.5q-55 0 -60 -46h-172q5 82 70.5 136.5t165.5 54.5q110 0 167 -58t57 -150v-316h-168v52zM328 206v10l-58 -13q-62 -13 -62 -46t42 -33q31 0 54.5 25.5t23.5 56.5z" />
<glyph unicode="&#xe6;" horiz-adv-x="903" d="M864 171q-23 -86 -89.5 -135.5t-168.5 -49.5q-133 0 -205 101q-51 -101 -181 -101q-81 0 -133.5 40t-52.5 107q0 68 44.5 109.5t144.5 63.5l105 23v5q0 20 -14 32.5t-39 12.5q-55 0 -60 -46h-172q5 82 70 136.5t165 54.5q105 0 159 -64q72 64 172 64q121 0 192 -74 t71 -187v-49h-376q8 -41 36 -64t71 -23q63 0 92 44h169zM605 383q-74 0 -100 -62h198q-24 62 -98 62zM328 205v10l-58 -12q-31 -7 -46.5 -17t-15.5 -29q0 -33 42 -33q32 0 55 26t23 55z" />
<glyph unicode="&#xe7;" horiz-adv-x="605" d="M577 295h-176q-8 30 -32.5 48t-59.5 18q-47 0 -75 -30t-28 -76t28 -76t75 -30q36 0 60 18.5t33 48.5h175q-10 -89 -70 -151.5t-153 -75.5l-21 -34q58 -3 91.5 -34.5t33.5 -83.5q0 -54 -40.5 -89t-102.5 -35q-60 0 -102 30.5t-48 81.5l115 1q4 -21 31 -21q15 0 23.5 9 t8.5 22q0 31 -32 31q-24 0 -32 -18l-99 40l63 103q-98 20 -155.5 93t-57.5 171q0 114 77 191t202 77q110 0 183 -65t85 -164z" />
<glyph unicode="&#xe8;" horiz-adv-x="604" d="M387 567h-168l-86 150h171zM394 168h170q-23 -85 -91 -133.5t-171 -48.5q-122 0 -197 77.5t-75 191.5q0 113 78 191t197 78q124 0 196 -74t72 -187v-52h-375q20 -84 106 -84q63 0 90 41zM305 383q-73 0 -99 -62h198q-24 62 -99 62z" />
<glyph unicode="&#xe9;" horiz-adv-x="604" d="M219 567l83 150h171l-86 -150h-168zM394 168h170q-23 -85 -91 -133.5t-171 -48.5q-122 0 -197 77.5t-75 191.5q0 113 78 191t197 78q124 0 196 -74t72 -187v-52h-375q20 -84 106 -84q63 0 90 41zM305 383q-73 0 -99 -62h198q-24 62 -99 62z" />
<glyph unicode="&#xea;" horiz-adv-x="604" d="M200 717h206l93 -150h-155l-42 69l-42 -69h-152zM394 168h170q-23 -85 -91 -133.5t-171 -48.5q-122 0 -197 77.5t-75 191.5q0 113 78 191t197 78q124 0 196 -74t72 -187v-52h-375q20 -84 106 -84q63 0 90 41zM305 383q-73 0 -99 -62h198q-24 62 -99 62z" />
<glyph unicode="&#xeb;" horiz-adv-x="604" d="M211 555q-36 0 -60.5 24.5t-24.5 60.5t24.5 61t60.5 25q35 0 59 -25t24 -61q0 -35 -24 -60t-59 -25zM398 555q-36 0 -60.5 24.5t-24.5 60.5t24.5 61t60.5 25q35 0 59 -25t24 -61q0 -35 -24 -60t-59 -25zM394 168h170q-23 -85 -91 -133.5t-171 -48.5q-122 0 -197 77.5 t-75 191.5q0 113 78 191t197 78q124 0 196 -74t72 -187v-52h-375q20 -84 106 -84q63 0 90 41zM305 383q-73 0 -99 -62h198q-24 62 -99 62z" />
<glyph unicode="&#xec;" horiz-adv-x="297" d="M232 567h-168l-86 150h171zM60 0v510h177v-510h-177z" />
<glyph unicode="&#xed;" horiz-adv-x="297" d="M64 567l83 150h171l-86 -150h-168zM60 0v510h177v-510h-177z" />
<glyph unicode="&#xee;" horiz-adv-x="297" d="M44 717h206l93 -150h-155l-42 69l-42 -69h-152zM60 0v510h177v-510h-177z" />
<glyph unicode="&#xef;" horiz-adv-x="297" d="M55 555q-36 0 -60.5 24.5t-24.5 60.5t24.5 61t60.5 25q35 0 59 -25t24 -61q0 -35 -24 -60t-59 -25zM242 555q-36 0 -60.5 24.5t-24.5 60.5t24.5 61t60.5 25q35 0 59 -25t24 -61q0 -35 -24 -60t-59 -25zM60 0v510h177v-510h-177z" />
<glyph unicode="&#xf0;" horiz-adv-x="624" d="M280 500q50 0 92 -18q-22 48 -51 88l-118 -44v97l57 21q-41 45 -106 97h202q28 -21 54 -45l115 45v-98l-51 -19q60 -81 87 -170.5t27 -165.5q0 -126 -80.5 -214t-198.5 -88q-119 0 -199 77t-80 188q0 104 71.5 176.5t178.5 72.5zM309 351q-47 0 -75 -29t-28 -72t28 -72 t75 -29q48 0 76.5 29t28.5 72t-28.5 72t-76.5 29z" />
<glyph unicode="&#xf1;" horiz-adv-x="608" d="M352 682q14 0 19 35h116q-7 -157 -119 -157q-33 0 -62 21.5t-39 21.5q-9 0 -14 -7t-9 -29h-117q7 158 119 158q36 0 68 -21.5t38 -21.5zM60 0v510h168v-57q52 71 147 71q82 0 130 -51.5t48 -132.5v-340h-177v288q0 73 -69 73q-70 0 -70 -73v-288h-177z" />
<glyph unicode="&#xf2;" horiz-adv-x="618" d="M393 567h-168l-86 150h171zM308 524q125 0 202.5 -77t77.5 -191t-77.5 -192t-202.5 -78t-201.5 77.5t-76.5 192.5q0 114 76.5 191t201.5 77zM308 361q-47 0 -75 -30t-28 -76t28 -76t75 -30q48 0 76.5 30t28.5 76t-28.5 76t-76.5 30z" />
<glyph unicode="&#xf3;" horiz-adv-x="618" d="M225 567l83 150h171l-86 -150h-168zM308 524q125 0 202.5 -77t77.5 -191t-77.5 -192t-202.5 -78t-201.5 77.5t-76.5 192.5q0 114 76.5 191t201.5 77zM308 361q-47 0 -75 -30t-28 -76t28 -76t75 -30q48 0 76.5 30t28.5 76t-28.5 76t-76.5 30z" />
<glyph unicode="&#xf4;" horiz-adv-x="618" d="M206 717h206l93 -150h-155l-42 69l-42 -69h-152zM308 524q125 0 202.5 -77t77.5 -191t-77.5 -192t-202.5 -78t-201.5 77.5t-76.5 192.5q0 114 76.5 191t201.5 77zM308 361q-47 0 -75 -30t-28 -76t28 -76t75 -30q48 0 76.5 30t28.5 76t-28.5 76t-76.5 30z" />
<glyph unicode="&#xf5;" horiz-adv-x="618" d="M354 682q14 0 19 35h116q-7 -157 -119 -157q-33 0 -62 21.5t-39 21.5q-9 0 -14 -7t-9 -29h-117q7 158 119 158q36 0 68 -21.5t38 -21.5zM308 524q125 0 202.5 -77t77.5 -191t-77.5 -192t-202.5 -78t-201.5 77.5t-76.5 192.5q0 114 76.5 191t201.5 77zM308 361 q-47 0 -75 -30t-28 -76t28 -76t75 -30q48 0 76.5 30t28.5 76t-28.5 76t-76.5 30z" />
<glyph unicode="&#xf6;" horiz-adv-x="618" d="M217 555q-36 0 -60.5 24.5t-24.5 60.5t24.5 61t60.5 25q35 0 59 -25t24 -61q0 -35 -24 -60t-59 -25zM404 555q-36 0 -60.5 24.5t-24.5 60.5t24.5 61t60.5 25q35 0 59 -25t24 -61q0 -35 -24 -60t-59 -25zM308 524q125 0 202.5 -77t77.5 -191t-77.5 -192t-202.5 -78 t-201.5 77.5t-76.5 192.5q0 114 76.5 191t201.5 77zM308 361q-47 0 -75 -30t-28 -76t28 -76t75 -30q48 0 76.5 30t28.5 76t-28.5 76t-76.5 30z" />
<glyph unicode="&#xf7;" d="M285 465q-45 0 -73 29t-28 70q0 43 28 72t73 29t74 -29t29 -72q0 -41 -29 -70t-74 -29zM50 420h470v-140h-470v140zM285 34q-45 0 -73 29t-28 70q0 43 28 72t73 29t74 -29t29 -72q0 -41 -29 -70t-74 -29z" />
<glyph unicode="&#xf8;" horiz-adv-x="618" d="M164 -34h-133l73 100q-74 77 -74 190q0 114 76.5 191t201.5 77q60 0 117 -21l30 41h133l-74 -101q74 -76 74 -187q0 -114 -77.5 -192t-202.5 -78q-63 0 -114 21zM308 365q-49 0 -78 -31.5t-29 -78.5q0 -30 12 -54l119 162q-16 2 -24 2zM417 255q0 30 -12 54l-119 -162 q14 -2 22 -2q50 0 79.5 31.5t29.5 78.5z" />
<glyph unicode="&#xf9;" horiz-adv-x="599" d="M382 567h-168l-86 150h171zM362 222v288h177v-510h-168v57q-49 -71 -142 -71q-80 0 -126.5 51.5t-46.5 132.5v340h177v-288q0 -77 62 -77q67 0 67 77z" />
<glyph unicode="&#xfa;" horiz-adv-x="599" d="M214 567l83 150h171l-86 -150h-168zM362 222v288h177v-510h-168v57q-49 -71 -142 -71q-80 0 -126.5 51.5t-46.5 132.5v340h177v-288q0 -77 62 -77q67 0 67 77z" />
<glyph unicode="&#xfb;" horiz-adv-x="599" d="M194 717h206l93 -150h-155l-42 69l-42 -69h-152zM362 222v288h177v-510h-168v57q-49 -71 -142 -71q-80 0 -126.5 51.5t-46.5 132.5v340h177v-288q0 -77 62 -77q67 0 67 77z" />
<glyph unicode="&#xfc;" horiz-adv-x="599" d="M205 555q-36 0 -60.5 24.5t-24.5 60.5t24.5 61t60.5 25q35 0 59 -25t24 -61q0 -35 -24 -60t-59 -25zM392 555q-36 0 -60.5 24.5t-24.5 60.5t24.5 61t60.5 25q35 0 59 -25t24 -61q0 -35 -24 -60t-59 -25zM362 222v288h177v-510h-168v57q-49 -71 -142 -71 q-80 0 -126.5 51.5t-46.5 132.5v340h177v-288q0 -77 62 -77q67 0 67 77z" />
<glyph unicode="&#xfd;" horiz-adv-x="575" d="M205 567l83 150h171l-86 -150h-168zM564 510l-250 -722h-178l66 194l-194 528h188l93 -284l93 284h182z" />
<glyph unicode="&#xfe;" horiz-adv-x="655" d="M388 524q105 0 170 -74.5t65 -192.5q0 -119 -65.5 -195t-170.5 -76q-94 0 -150 64v-262h-177v953h177v-287q58 70 151 70zM334 364q-48 0 -75 -31t-27 -78t27 -78t75 -31q49 0 76 31t27 78t-27 78t-76 31z" />
<glyph unicode="&#xff;" horiz-adv-x="575" d="M197 555q-36 0 -60.5 24.5t-24.5 60.5t24.5 61t60.5 25q35 0 59 -25t24 -61q0 -35 -24 -60t-59 -25zM384 555q-36 0 -60.5 24.5t-24.5 60.5t24.5 61t60.5 25q35 0 59 -25t24 -61q0 -35 -24 -60t-59 -25zM564 510l-250 -722h-178l66 194l-194 528h188l93 -284l93 284h182z " />
<glyph unicode="&#x152;" horiz-adv-x="1112" d="M595 0v45q-89 -59 -204 -59q-148 0 -252 107.5t-104 258.5t104 258t252 107q115 0 204 -59v45h463v-169h-278v-99h254v-159h-254v-107h283v-169h-468zM411 542q-83 0 -132.5 -55t-49.5 -136q0 -82 49.5 -136t132.5 -54q84 0 134 54t50 136q0 81 -50 136t-134 55z" />
<glyph unicode="&#x153;" horiz-adv-x="1000" d="M298 524q132 0 209 -93q77 93 199 93q123 0 193 -73.5t70 -187.5v-52h-375q20 -84 106 -84q63 0 90 41h170q-23 -85 -88.5 -133.5t-168.5 -48.5q-125 0 -198 91q-76 -91 -207 -91q-114 0 -191 78.5t-77 191.5q0 112 77 190t191 78zM702 383q-72 0 -100 -62h198 q-24 62 -98 62zM308 361q-47 0 -75 -30t-28 -76t28 -76t75 -30q48 0 76.5 30t28.5 76t-28.5 76t-76.5 30z" />
<glyph unicode="&#x178;" horiz-adv-x="680" d="M262 748q-36 0 -60.5 24.5t-24.5 60.5t24.5 61t60.5 25q35 0 59 -25t24 -61q0 -35 -24 -60t-59 -25zM449 748q-36 0 -60.5 24.5t-24.5 60.5t24.5 61t60.5 25q35 0 59 -25t24 -61q0 -35 -24 -60t-59 -25zM249 0v229l-235 474h211l118 -268l129 268h194l-232 -465v-238 h-185z" />
<glyph unicode="&#x2c6;" horiz-adv-x="467" d="M130 717h206l93 -150h-155l-42 69l-42 -69h-152z" />
<glyph unicode="&#x2dc;" horiz-adv-x="416" d="M253 682q14 0 19 35h116q-7 -157 -119 -157q-33 0 -62 21.5t-39 21.5q-9 0 -14 -7t-9 -29h-117q7 158 119 158q27 0 48.5 -10.5t35.5 -21.5t22 -11z" />
<glyph unicode="&#x2000;" horiz-adv-x="495" />
<glyph unicode="&#x2001;" horiz-adv-x="990" />
<glyph unicode="&#x2002;" horiz-adv-x="495" />
<glyph unicode="&#x2003;" horiz-adv-x="990" />
<glyph unicode="&#x2004;" horiz-adv-x="330" />
<glyph unicode="&#x2005;" horiz-adv-x="247" />
<glyph unicode="&#x2006;" horiz-adv-x="165" />
<glyph unicode="&#x2007;" horiz-adv-x="165" />
<glyph unicode="&#x2008;" horiz-adv-x="123" />
<glyph unicode="&#x2009;" horiz-adv-x="198" />
<glyph unicode="&#x200a;" horiz-adv-x="55" />
<glyph unicode="&#x2010;" horiz-adv-x="356" d="M303 332v-152h-250v152h250z" />
<glyph unicode="&#x2011;" horiz-adv-x="356" d="M303 332v-152h-250v152h250z" />
<glyph unicode="&#x2012;" horiz-adv-x="356" d="M303 332v-152h-250v152h250z" />
<glyph unicode="&#x2013;" horiz-adv-x="550" d="M496 330v-152h-442v152h442z" />
<glyph unicode="&#x2014;" horiz-adv-x="1025" d="M971 330v-152h-917v152h917z" />
<glyph unicode="&#x2018;" horiz-adv-x="299" d="M280 703l-89 -169q31 -13 48.5 -41.5t17.5 -59.5q0 -48 -31.5 -80t-81.5 -32t-82 32t-32 80q0 26 18 62l108 208h124z" />
<glyph unicode="&#x2019;" horiz-adv-x="306" d="M38 335l89 169q-31 13 -48.5 41.5t-17.5 59.5q0 48 31.5 80t81.5 32t82 -32t32 -80q0 -26 -18 -62l-108 -208h-124z" />
<glyph unicode="&#x201a;" horiz-adv-x="298" d="M12 -174l89 169q-31 13 -48.5 41.5t-17.5 59.5q0 48 31.5 80t81.5 32t82 -32t32 -80q0 -26 -18 -62l-108 -208h-124z" />
<glyph unicode="&#x201c;" horiz-adv-x="565" d="M280 703l-89 -169q31 -13 48.5 -41.5t17.5 -59.5q0 -48 -31.5 -80t-81.5 -32t-82 32t-32 80q0 26 18 62l108 208h124zM546 703l-89 -169q31 -13 48.5 -41.5t17.5 -59.5q0 -48 -31.5 -80t-81.5 -32t-82 32t-32 80q0 26 18 62l108 208h124z" />
<glyph unicode="&#x201d;" horiz-adv-x="572" d="M38 335l89 169q-31 13 -48.5 41.5t-17.5 59.5q0 48 31.5 80t81.5 32t82 -32t32 -80q0 -26 -18 -62l-108 -208h-124zM304 335l89 169q-31 13 -48.5 41.5t-17.5 59.5q0 48 31.5 80t81.5 32t82 -32t32 -80q0 -26 -18 -62l-108 -208h-124z" />
<glyph unicode="&#x201e;" horiz-adv-x="564" d="M12 -174l89 169q-31 13 -48.5 41.5t-17.5 59.5q0 48 31.5 80t81.5 32t82 -32t32 -80q0 -26 -18 -62l-108 -208h-124zM278 -174l89 169q-31 13 -48.5 41.5t-17.5 59.5q0 48 31.5 80t81.5 32t82 -32t32 -80q0 -26 -18 -62l-108 -208h-124z" />
<glyph unicode="&#x2022;" horiz-adv-x="407" d="M203 215q-64 0 -104.5 41t-40.5 100q0 62 40.5 103t104.5 41t105 -41t41 -103q0 -58 -41 -99.5t-105 -41.5z" />
<glyph unicode="&#x2026;" horiz-adv-x="831" d="M148 -14q-50 0 -81.5 32t-31.5 78q0 48 31.5 80t81.5 32t82 -32t32 -80q0 -45 -32 -77.5t-82 -32.5zM415 -14q-50 0 -81.5 32t-31.5 78q0 48 31.5 80t81.5 32t82 -32t32 -80q0 -45 -32 -77.5t-82 -32.5zM682 -14q-50 0 -81.5 32t-31.5 78q0 48 31.5 80t81.5 32t82 -32 t32 -80q0 -45 -32 -77.5t-82 -32.5z" />
<glyph unicode="&#x202f;" horiz-adv-x="198" />
<glyph unicode="&#x2039;" horiz-adv-x="337" d="M26 255l109 220h171l-110 -220l110 -219h-171z" />
<glyph unicode="&#x203a;" horiz-adv-x="337" d="M311 255l-109 -220h-171l110 220l-110 219h171z" />
<glyph unicode="&#x205f;" horiz-adv-x="247" />
<glyph unicode="&#x20ac;" horiz-adv-x="678" d="M398 332v-108h-99q11 -63 77 -63q79 0 79 79h185q0 -68 -24 -119.5t-63.5 -79.5t-84 -41.5t-93.5 -13.5q-46 0 -88.5 12.5t-81 39t-64 74.5t-29.5 112h-71v108h70v38h-70v108h71q8 123 85.5 181t177.5 58q49 0 93.5 -13.5t84.5 -41.5t63.5 -79.5t23.5 -119.5h-185 q0 79 -79 79q-66 0 -78 -64h100v-108h-102v-38h102z" />
<glyph unicode="&#x2122;" horiz-adv-x="871" d="M123 323v276h-93v104h296v-104h-93v-276h-110zM359 323v380h122l103 -194l105 194h118v-380h-107v185l-96 -185h-42l-96 187v-187h-107z" />
<glyph unicode="&#x25fc;" horiz-adv-x="510" d="M0 510h510v-510h-510v510z" />
<glyph unicode="&#xfb03;" horiz-adv-x="1087" d="M109 0v352h-73v158h73v37q0 100 47 154t154 54q46 0 94 -12v-155q-35 10 -63 10q-29 0 -42 -12t-13 -41v-35h196v37q0 100 47 154t154 54q47 0 89 -11v-155q-34 9 -58 9q-29 0 -42 -12t-13 -41v-35h113v-158h-113v-352h-177v352h-196v-352h-177zM938 755q49 0 78 -29.5 t29 -73.5q0 -42 -29 -72t-78 -30t-77.5 29.5t-28.5 72.5q0 44 28.5 73.5t77.5 29.5zM850 0v510h177v-510h-177z" />
<glyph unicode="&#xfb04;" horiz-adv-x="1087" d="M109 0v352h-73v158h73v37q0 100 47 154t154 54q46 0 94 -12v-155q-35 10 -63 10q-29 0 -42 -12t-13 -41v-35h196v37q0 100 47 154t154 54q47 0 89 -11v-155q-34 9 -58 9q-29 0 -42 -12t-13 -41v-35h113v-158h-113v-352h-177v352h-196v-352h-177zM850 0v741h177v-741h-177 z" />
</font>
</defs>
</svg>
