<svg width="239" height="45" viewBox="0 0 239 45" fill="none" xmlns="http://www.w3.org/2000/svg">
<path d="M70.38 16.6633L66.38 2.60325H69.8L72.28 12.0433L74.96 2.60325H77.9L80.54 12.0033L83.06 2.60325H86.28L82.24 16.6633H78.88L76.34 8.20325L73.76 16.6633H70.38ZM93.748 13.3633H96.688C96.368 14.4699 95.7613 15.3433 94.868 15.9833C93.9746 16.6099 92.8613 16.9233 91.528 16.9233C89.9413 16.9233 88.6413 16.4099 87.628 15.3833C86.628 14.3566 86.128 13.0899 86.128 11.5833C86.128 10.0899 86.6413 8.82325 87.668 7.78325C88.708 6.74325 90.008 6.22325 91.568 6.22325C93.1813 6.22325 94.468 6.71659 95.428 7.70325C96.4013 8.68992 96.888 9.92992 96.888 11.4233V12.3433H89.028C89.1613 12.9966 89.448 13.5166 89.888 13.9033C90.328 14.2899 90.888 14.4833 91.568 14.4833C92.5946 14.4833 93.3213 14.1099 93.748 13.3633ZM91.568 8.68325C90.9813 8.68325 90.4813 8.83659 90.068 9.14325C89.6546 9.43659 89.3546 9.83659 89.168 10.3433H93.948C93.6013 9.23659 92.808 8.68325 91.568 8.68325ZM98.6973 16.6633V1.84325H101.737V7.76325C102.591 6.73659 103.684 6.22325 105.017 6.22325C106.431 6.22325 107.584 6.72325 108.477 7.72325C109.371 8.70992 109.817 9.98325 109.817 11.5433C109.817 13.1166 109.364 14.4099 108.457 15.4233C107.564 16.4233 106.404 16.9233 104.977 16.9233C103.537 16.9233 102.411 16.3766 101.597 15.2833V16.6633H98.6973ZM105.957 9.74325C105.504 9.23659 104.897 8.98325 104.137 8.98325C103.377 8.98325 102.771 9.23659 102.317 9.74325C101.877 10.2366 101.657 10.8499 101.657 11.5833C101.657 12.3166 101.877 12.9366 102.317 13.4433C102.771 13.9366 103.377 14.1833 104.137 14.1833C104.897 14.1833 105.504 13.9366 105.957 13.4433C106.411 12.9366 106.637 12.3166 106.637 11.5833C106.637 10.8499 106.411 10.2366 105.957 9.74325ZM118.602 13.3633H121.542C121.222 14.4699 120.615 15.3433 119.722 15.9833C118.829 16.6099 117.715 16.9233 116.382 16.9233C114.795 16.9233 113.495 16.4099 112.482 15.3833C111.482 14.3566 110.982 13.0899 110.982 11.5833C110.982 10.0899 111.495 8.82325 112.522 7.78325C113.562 6.74325 114.862 6.22325 116.422 6.22325C118.035 6.22325 119.322 6.71659 120.282 7.70325C121.255 8.68992 121.742 9.92992 121.742 11.4233V12.3433H113.882C114.015 12.9966 114.302 13.5166 114.742 13.9033C115.182 14.2899 115.742 14.4833 116.422 14.4833C117.449 14.4833 118.175 14.1099 118.602 13.3633ZM116.422 8.68325C115.835 8.68325 115.335 8.83659 114.922 9.14325C114.509 9.43659 114.209 9.83659 114.022 10.3433H118.802C118.455 9.23659 117.662 8.68325 116.422 8.68325ZM126.591 12.0633V16.6633H123.551V6.48325H126.451V8.22325C127.105 6.92992 128.071 6.28325 129.351 6.28325C129.605 6.28325 129.811 6.30325 129.971 6.34325V9.20325C129.638 9.13659 129.371 9.10325 129.171 9.10325C128.291 9.10325 127.638 9.38325 127.211 9.94325C126.798 10.5033 126.591 11.2099 126.591 12.0633ZM138.182 13.3633H141.122C140.802 14.4699 140.196 15.3433 139.302 15.9833C138.409 16.6099 137.296 16.9233 135.962 16.9233C134.376 16.9233 133.076 16.4099 132.062 15.3833C131.062 14.3566 130.562 13.0899 130.562 11.5833C130.562 10.0899 131.076 8.82325 132.102 7.78325C133.142 6.74325 134.442 6.22325 136.002 6.22325C137.616 6.22325 138.902 6.71659 139.862 7.70325C140.836 8.68992 141.322 9.92992 141.322 11.4233V12.3433H133.462C133.596 12.9966 133.882 13.5166 134.322 13.9033C134.762 14.2899 135.322 14.4833 136.002 14.4833C137.029 14.4833 137.756 14.1099 138.182 13.3633ZM136.002 8.68325C135.416 8.68325 134.916 8.83659 134.502 9.14325C134.089 9.43659 133.789 9.83659 133.602 10.3433H138.382C138.036 9.23659 137.242 8.68325 136.002 8.68325ZM144.652 1.72325C145.238 1.72325 145.698 1.89659 146.032 2.24325C146.378 2.58992 146.552 3.02325 146.552 3.54325C146.552 4.04992 146.378 4.47659 146.032 4.82325C145.685 5.16992 145.225 5.34325 144.652 5.34325C144.078 5.34325 143.618 5.16992 143.272 4.82325C142.938 4.47659 142.772 4.04992 142.772 3.54325C142.772 3.02325 142.938 2.58992 143.272 2.24325C143.618 1.89659 144.078 1.72325 144.652 1.72325ZM143.152 16.6633V6.48325H146.192V16.6633H143.152ZM155.082 16.6633V5.50325H151.322V2.60325H162.042V5.50325H158.262V16.6633H155.082ZM168.886 13.3633H171.826C171.506 14.4699 170.9 15.3433 170.006 15.9833C169.113 16.6099 168 16.9233 166.666 16.9233C165.08 16.9233 163.78 16.4099 162.766 15.3833C161.766 14.3566 161.266 13.0899 161.266 11.5833C161.266 10.0899 161.78 8.82325 162.806 7.78325C163.846 6.74325 165.146 6.22325 166.706 6.22325C168.32 6.22325 169.606 6.71659 170.566 7.70325C171.54 8.68992 172.026 9.92992 172.026 11.4233V12.3433H164.166C164.3 12.9966 164.586 13.5166 165.026 13.9033C165.466 14.2899 166.026 14.4833 166.706 14.4833C167.733 14.4833 168.46 14.1099 168.886 13.3633ZM166.706 8.68325C166.12 8.68325 165.62 8.83659 165.206 9.14325C164.793 9.43659 164.493 9.83659 164.306 10.3433H169.086C168.74 9.23659 167.946 8.68325 166.706 8.68325ZM180.076 12.2633V6.48325H183.116V16.6633H180.236V15.4433C179.556 16.4299 178.582 16.9233 177.316 16.9233C176.222 16.9233 175.356 16.5766 174.716 15.8833C174.076 15.1766 173.756 14.2699 173.756 13.1633V6.48325H176.796V12.3033C176.796 12.8499 176.922 13.3033 177.176 13.6633C177.429 14.0099 177.829 14.1833 178.376 14.1833C178.949 14.1833 179.376 14.0033 179.656 13.6433C179.936 13.2699 180.076 12.8099 180.076 12.2633ZM193.67 9.58325H190.57C190.57 8.88992 190.176 8.54325 189.39 8.54325C188.643 8.54325 188.27 8.78325 188.27 9.26325C188.27 9.51659 188.363 9.70325 188.55 9.82325C188.736 9.94325 189.063 10.0566 189.53 10.1633L190.35 10.3433C191.496 10.5966 192.363 10.9499 192.95 11.4033C193.55 11.8566 193.85 12.5566 193.85 13.5033C193.85 14.6099 193.443 15.4566 192.63 16.0433C191.83 16.6299 190.79 16.9233 189.51 16.9233C188.11 16.9233 186.99 16.6299 186.15 16.0433C185.323 15.4566 184.876 14.5566 184.81 13.3433H188.01C188.01 14.1966 188.483 14.6233 189.43 14.6233C190.283 14.6233 190.71 14.3366 190.71 13.7633C190.71 13.4966 190.616 13.2966 190.43 13.1633C190.243 13.0166 189.95 12.9033 189.55 12.8233L188.57 12.6233C187.516 12.4099 186.69 12.0699 186.09 11.6033C185.49 11.1366 185.19 10.4299 185.19 9.48325C185.19 8.46992 185.59 7.67659 186.39 7.10325C187.203 6.51659 188.216 6.22325 189.43 6.22325C190.643 6.22325 191.63 6.50992 192.39 7.08325C193.15 7.64325 193.576 8.47659 193.67 9.58325ZM205.822 10.6833H202.802C202.656 10.1766 202.382 9.77659 201.982 9.48325C201.582 9.17659 201.096 9.02325 200.522 9.02325C199.776 9.02325 199.176 9.26992 198.722 9.76325C198.269 10.2433 198.042 10.8499 198.042 11.5833C198.042 12.3033 198.269 12.9099 198.722 13.4033C199.176 13.8833 199.776 14.1233 200.522 14.1233C201.096 14.1233 201.582 13.9699 201.982 13.6633C202.396 13.3566 202.676 12.9499 202.822 12.4433H205.822C205.636 13.7366 205.062 14.8099 204.102 15.6633C203.142 16.5033 201.949 16.9233 200.522 16.9233C198.882 16.9233 197.549 16.4099 196.522 15.3833C195.509 14.3566 195.002 13.0833 195.002 11.5633C195.002 10.0566 195.509 8.78992 196.522 7.76325C197.549 6.73659 198.882 6.22325 200.522 6.22325C201.936 6.22325 203.122 6.64325 204.082 7.48325C205.056 8.32325 205.636 9.38992 205.822 10.6833ZM207.572 16.6633V1.84325H210.612V7.52325C211.305 6.65659 212.265 6.22325 213.492 6.22325C214.612 6.22325 215.498 6.57659 216.152 7.28325C216.805 7.97659 217.132 8.87659 217.132 9.98325V16.6633H214.092V10.8033C214.092 9.61659 213.525 9.02325 212.392 9.02325C211.792 9.02325 211.345 9.20325 211.052 9.56325C210.758 9.92325 210.612 10.3699 210.612 10.9033V16.6633H207.572ZM226.441 13.3633H229.381C229.061 14.4699 228.454 15.3433 227.561 15.9833C226.668 16.6099 225.554 16.9233 224.221 16.9233C222.634 16.9233 221.334 16.4099 220.321 15.3833C219.321 14.3566 218.821 13.0899 218.821 11.5833C218.821 10.0899 219.334 8.82325 220.361 7.78325C221.401 6.74325 222.701 6.22325 224.261 6.22325C225.874 6.22325 227.161 6.71659 228.121 7.70325C229.094 8.68992 229.581 9.92992 229.581 11.4233V12.3433H221.721C221.854 12.9966 222.141 13.5166 222.581 13.9033C223.021 14.2899 223.581 14.4833 224.261 14.4833C225.288 14.4833 226.014 14.1099 226.441 13.3633ZM224.261 8.68325C223.674 8.68325 223.174 8.83659 222.761 9.14325C222.348 9.43659 222.048 9.83659 221.861 10.3433H226.641C226.294 9.23659 225.501 8.68325 224.261 8.68325ZM234.43 12.0633V16.6633H231.39V6.48325H234.29V8.22325C234.944 6.92992 235.91 6.28325 237.19 6.28325C237.444 6.28325 237.65 6.30325 237.81 6.34325V9.20325C237.477 9.13659 237.21 9.10325 237.01 9.10325C236.13 9.10325 235.477 9.38325 235.05 9.94325C234.637 10.5033 234.43 11.2099 234.43 12.0633ZM67.86 38.6633V24.6033H69.78V30.5433H76.46V24.6033H78.36V38.6633H76.46V32.3633H69.78V38.6633H67.86ZM87.803 37.2233C87.0163 38.3433 85.8896 38.9033 84.423 38.9033C83.4363 38.9033 82.623 38.6366 81.983 38.1033C81.3563 37.5699 81.043 36.8833 81.043 36.0433C81.043 34.4033 82.1296 33.3299 84.303 32.8233L87.743 32.0233V31.8833C87.743 31.2833 87.5363 30.8033 87.123 30.4433C86.7096 30.0699 86.1496 29.8833 85.443 29.8833C84.7896 29.8833 84.243 30.0633 83.803 30.4233C83.3763 30.7699 83.123 31.2099 83.043 31.7433H81.283C81.3763 30.7833 81.8096 29.9766 82.583 29.3233C83.3563 28.6566 84.3163 28.3233 85.463 28.3233C86.7696 28.3233 87.7763 28.6699 88.483 29.3633C89.1896 30.0566 89.543 30.9699 89.543 32.1033V38.6633H87.803V37.2233ZM87.743 34.2633V33.5233L84.763 34.2233C83.4963 34.5166 82.863 35.0699 82.863 35.8833C82.863 36.3633 83.0296 36.7366 83.363 37.0033C83.6963 37.2566 84.163 37.3833 84.763 37.3833C85.6163 37.3833 86.323 37.0699 86.883 36.4433C87.4563 35.8166 87.743 35.0899 87.743 34.2633ZM92.6991 38.6633V23.8433H94.5391V38.6633H92.6991ZM97.8553 38.6633V23.8433H99.6953V38.6633H97.8553ZM110.592 35.4833H112.412C112.065 36.5233 111.452 37.3566 110.572 37.9833C109.692 38.5966 108.652 38.9033 107.452 38.9033C105.945 38.9033 104.685 38.3899 103.672 37.3633C102.672 36.3366 102.172 35.0833 102.172 33.6033C102.172 32.1366 102.678 30.8899 103.692 29.8633C104.718 28.8366 105.978 28.3233 107.472 28.3233C108.978 28.3233 110.218 28.8233 111.192 29.8233C112.178 30.8099 112.672 32.0299 112.672 33.4833V34.1233H103.992C104.098 35.0566 104.472 35.8233 105.112 36.4233C105.752 37.0233 106.538 37.3233 107.472 37.3233C108.178 37.3233 108.805 37.1633 109.352 36.8433C109.898 36.5099 110.312 36.0566 110.592 35.4833ZM107.472 29.9033C106.632 29.9033 105.905 30.1566 105.292 30.6633C104.692 31.1566 104.292 31.8033 104.092 32.6033H110.812C110.612 31.7499 110.205 31.0899 109.592 30.6233C108.992 30.1433 108.285 29.9033 107.472 29.9033ZM129.44 28.7833H127.48C127.4 27.8499 127.093 27.1633 126.56 26.7233C126.026 26.2699 125.326 26.0433 124.46 26.0433C123.673 26.0433 123.02 26.2299 122.5 26.6033C121.98 26.9633 121.72 27.4633 121.72 28.1033C121.72 28.7433 121.9 29.2099 122.26 29.5033C122.62 29.7966 123.173 30.0499 123.92 30.2633L125.94 30.8433C127.14 31.1899 128.066 31.6433 128.72 32.2033C129.373 32.7499 129.7 33.5699 129.7 34.6633C129.7 36.0233 129.246 37.0699 128.34 37.8033C127.433 38.5366 126.246 38.9033 124.78 38.9033C123.193 38.9033 121.913 38.5099 120.94 37.7233C119.966 36.9233 119.453 35.7166 119.4 34.1033H121.34C121.393 35.1566 121.726 35.9366 122.34 36.4433C122.953 36.9499 123.753 37.2033 124.74 37.2033C125.673 37.2033 126.406 36.9966 126.94 36.5833C127.486 36.1699 127.76 35.5699 127.76 34.7833C127.76 34.4366 127.693 34.1366 127.56 33.8833C127.426 33.6299 127.22 33.4166 126.94 33.2433C126.673 33.0699 126.406 32.9366 126.14 32.8433C125.886 32.7366 125.546 32.6233 125.12 32.5033L123.46 32.0233C122.9 31.8633 122.433 31.7033 122.06 31.5433C121.686 31.3699 121.306 31.1433 120.92 30.8633C120.546 30.5699 120.266 30.2033 120.08 29.7633C119.893 29.3233 119.8 28.8033 119.8 28.2033C119.8 27.0433 120.246 26.1166 121.14 25.4233C122.033 24.7166 123.146 24.3633 124.48 24.3633C125.92 24.3633 127.08 24.7366 127.96 25.4833C128.853 26.2299 129.346 27.3299 129.44 28.7833ZM138.448 37.2233C137.661 38.3433 136.534 38.9033 135.068 38.9033C134.081 38.9033 133.268 38.6366 132.628 38.1033C132.001 37.5699 131.688 36.8833 131.688 36.0433C131.688 34.4033 132.774 33.3299 134.948 32.8233L138.388 32.0233V31.8833C138.388 31.2833 138.181 30.8033 137.768 30.4433C137.354 30.0699 136.794 29.8833 136.088 29.8833C135.434 29.8833 134.888 30.0633 134.448 30.4233C134.021 30.7699 133.768 31.2099 133.688 31.7433H131.928C132.021 30.7833 132.454 29.9766 133.228 29.3233C134.001 28.6566 134.961 28.3233 136.108 28.3233C137.414 28.3233 138.421 28.6699 139.128 29.3633C139.834 30.0566 140.188 30.9699 140.188 32.1033V38.6633H138.448V37.2233ZM138.388 34.2633V33.5233L135.408 34.2233C134.141 34.5166 133.508 35.0699 133.508 35.8833C133.508 36.3633 133.674 36.7366 134.008 37.0033C134.341 37.2566 134.808 37.3833 135.408 37.3833C136.261 37.3833 136.968 37.0699 137.528 36.4433C138.101 35.8166 138.388 35.0899 138.388 34.2633ZM149.444 37.2233C148.657 38.3433 147.53 38.9033 146.064 38.9033C145.077 38.9033 144.264 38.6366 143.624 38.1033C142.997 37.5699 142.684 36.8833 142.684 36.0433C142.684 34.4033 143.77 33.3299 145.944 32.8233L149.384 32.0233V31.8833C149.384 31.2833 149.177 30.8033 148.764 30.4433C148.35 30.0699 147.79 29.8833 147.084 29.8833C146.43 29.8833 145.884 30.0633 145.444 30.4233C145.017 30.7699 144.764 31.2099 144.684 31.7433H142.924C143.017 30.7833 143.45 29.9766 144.224 29.3233C144.997 28.6566 145.957 28.3233 147.104 28.3233C148.41 28.3233 149.417 28.6699 150.124 29.3633C150.83 30.0566 151.184 30.9699 151.184 32.1033V38.6633H149.444V37.2233ZM149.384 34.2633V33.5233L146.404 34.2233C145.137 34.5166 144.504 35.0699 144.504 35.8833C144.504 36.3633 144.67 36.7366 145.004 37.0033C145.337 37.2566 145.804 37.3833 146.404 37.3833C147.257 37.3833 147.964 37.0699 148.524 36.4433C149.097 35.8166 149.384 35.0899 149.384 34.2633ZM154.34 38.6633V23.8433H156.18V38.6633H154.34ZM167.076 35.4833H168.896C168.549 36.5233 167.936 37.3566 167.056 37.9833C166.176 38.5966 165.136 38.9033 163.936 38.9033C162.429 38.9033 161.169 38.3899 160.156 37.3633C159.156 36.3366 158.656 35.0833 158.656 33.6033C158.656 32.1366 159.163 30.8899 160.176 29.8633C161.203 28.8366 162.463 28.3233 163.956 28.3233C165.463 28.3233 166.703 28.8233 167.676 29.8233C168.663 30.8099 169.156 32.0299 169.156 33.4833V34.1233H160.476C160.583 35.0566 160.956 35.8233 161.596 36.4233C162.236 37.0233 163.023 37.3233 163.956 37.3233C164.663 37.3233 165.289 37.1633 165.836 36.8433C166.383 36.5099 166.796 36.0566 167.076 35.4833ZM163.956 29.9033C163.116 29.9033 162.389 30.1566 161.776 30.6633C161.176 31.1566 160.776 31.8033 160.576 32.6033H167.296C167.096 31.7499 166.689 31.0899 166.076 30.6233C165.476 30.1433 164.769 29.9033 163.956 29.9033Z" fill="#272727"/>
<path d="M31.4584 7.42038L30.1807 9.17874L39.3416 31.0347C40.7635 34.3774 39.2358 38.2421 35.9129 39.7091C34.3171 40.3968 32.5114 40.4113 30.9049 39.7492C29.2984 39.0872 28.0271 37.8047 27.3791 36.1925L26.0897 33.1154L22.9012 37.3647C21.6508 39.476 19.3104 40.6945 16.8636 40.5079C14.4169 40.3214 12.2883 38.762 11.3725 36.4855L10.083 33.4084L9.44418 31.8787L0.529444 10.6089C-0.888647 7.26785 0.638422 3.40726 3.95822 1.94037C5.55392 1.25265 7.35971 1.23822 8.96615 1.90018C10.5727 2.56225 11.844 3.84469 12.4919 5.45694L13.5235 7.93042L14.1799 9.47769L23.335 31.3337C23.6549 32.092 23.8337 32.9024 23.8625 33.725C24.3899 33.0275 24.9174 32.3242 25.4508 31.6266L16.5361 10.3393C15.118 6.99832 16.645 3.13766 19.9648 1.67068C21.5605 0.98297 23.3663 0.968565 24.9729 1.63058C26.5794 2.2926 27.8507 3.5751 28.4986 5.18732L29.5301 7.66659C30.4737 6.3537 31.6284 4.73611 32.5369 3.46423C32.6072 3.36453 32.6717 3.27078 32.742 3.18283L32.7889 3.12424C33.9438 1.60705 35.7297 0.702208 37.636 0.668394C41.1837 0.527953 44.1774 3.28229 44.3322 6.82937C44.4871 10.3765 41.7449 13.3813 38.1985 13.5504C34.6519 13.7196 31.6361 10.9896 31.4526 7.44382L31.4584 7.42038Z" fill="#272727"/>
</svg>
