<svg id="Ebene_2" data-name="Ebene 2" xmlns="http://www.w3.org/2000/svg" viewBox="0 0 146.06 33.74"><defs><style>.cls-1{fill:#272727;}.cls-2{fill:#2b2b2b;}</style></defs><path class="cls-1" d="M37.19,44.82h33a.35.35,0,0,0,.35-.35V13.59a.32.32,0,0,0-.32-.32H43.7a.36.36,0,0,0-.35.28L36.84,44.4a.35.35,0,0,0,.35.43Z" transform="translate(-13.26 -13.27)"/><path class="cls-1" d="M13.59,16.18a.32.32,0,0,0-.32.32v1.94a.33.33,0,0,0,.33.33H39.23l.54-2.59Z" transform="translate(-13.26 -13.27)"/><path class="cls-1" d="M13.59,20.89a.33.33,0,0,0-.33.33v1.93a.33.33,0,0,0,.33.33H38.24l.54-2.59Z" transform="translate(-13.26 -13.27)"/><path class="cls-1" d="M13.59,25.6a.33.33,0,0,0-.33.33v1.93a.33.33,0,0,0,.33.33H37.26l.54-2.59Z" transform="translate(-13.26 -13.27)"/><path class="cls-1" d="M13.59,30.3a.33.33,0,0,0-.33.33v1.93a.33.33,0,0,0,.33.33H36.28l.54-2.59Z" transform="translate(-13.26 -13.27)"/><path class="cls-1" d="M13.59,35a.33.33,0,0,0-.33.33v1.93a.33.33,0,0,0,.33.33H35.3L35.84,35Z" transform="translate(-13.26 -13.27)"/><path class="cls-1" d="M13.59,39.71a.33.33,0,0,0-.33.33V42a.33.33,0,0,0,.33.33H34.32l.54-2.59Z" transform="translate(-13.26 -13.27)"/><path class="cls-1" d="M13.59,44.42a.33.33,0,0,0-.33.33v1.93a.33.33,0,0,0,.33.33H33.34l.54-2.59Z" transform="translate(-13.26 -13.27)"/><path class="cls-2" d="M82.27,37.51V31.25h.85V33.9h3V31.25h.85v6.26h-.85V34.7h-3v2.81Z" transform="translate(-13.26 -13.27)"/><path class="cls-2" d="M91.1,36.87a1.73,1.73,0,0,1-1.51.75,1.6,1.6,0,0,1-1.08-.36,1.15,1.15,0,0,1-.42-.92c0-.73.48-1.21,1.45-1.43l1.53-.36v-.06a.82.82,0,0,0-.28-.65,1.09,1.09,0,0,0-.75-.25,1.13,1.13,0,0,0-.73.24.86.86,0,0,0-.34.59h-.78a1.54,1.54,0,0,1,.58-1.08,1.91,1.91,0,0,1,1.28-.44,1.82,1.82,0,0,1,1.34.46,1.66,1.66,0,0,1,.47,1.22V37.5h-.77v-.64Zm0-1.32v-.33l-1.33.31c-.56.13-.85.38-.85.74a.57.57,0,0,0,.22.49,1,1,0,0,0,.62.17,1.22,1.22,0,0,0,1-.42,1.41,1.41,0,0,0,.38-1Z" transform="translate(-13.26 -13.27)"/><path class="cls-2" d="M93.24,37.51v-6.6h.82v6.6Z" transform="translate(-13.26 -13.27)"/><path class="cls-2" d="M95.49,37.51v-6.6h.82v6.6Z" transform="translate(-13.26 -13.27)"/><path class="cls-2" d="M101.12,36.1h.81a2.17,2.17,0,0,1-.82,1.11,2.33,2.33,0,0,1-1.39.41A2.25,2.25,0,0,1,98,36.93a2.4,2.4,0,0,1,0-3.34,2.4,2.4,0,0,1,3.34,0,2.22,2.22,0,0,1,.65,1.63v.28H98.17a1.56,1.56,0,0,0,.5,1,1.47,1.47,0,0,0,1,.4,1.6,1.6,0,0,0,.84-.22,1.44,1.44,0,0,0,.55-.6Zm-1.39-2.49a1.5,1.5,0,0,0-1,.33,1.58,1.58,0,0,0-.54.87h3a1.54,1.54,0,0,0-.54-.89,1.51,1.51,0,0,0-1-.32Z" transform="translate(-13.26 -13.27)"/><path class="cls-2" d="M109.29,33.11h-.87a1.28,1.28,0,0,0-.41-.92,1.41,1.41,0,0,0-.94-.3,1.49,1.49,0,0,0-.87.24.78.78,0,0,0-.35.67.76.76,0,0,0,.24.62,2.23,2.23,0,0,0,.74.34l.9.26a3.26,3.26,0,0,1,1.24.6,1.37,1.37,0,0,1,.44,1.1,1.68,1.68,0,0,1-.61,1.4,2.42,2.42,0,0,1-1.59.49,2.63,2.63,0,0,1-1.71-.53,2.08,2.08,0,0,1-.69-1.61h.86a1.32,1.32,0,0,0,.45,1,1.67,1.67,0,0,0,1.07.34,1.52,1.52,0,0,0,1-.28,1,1,0,0,0,.36-.8.84.84,0,0,0-.09-.4.72.72,0,0,0-.27-.28,1.51,1.51,0,0,0-.36-.18l-.46-.15-.74-.21a3.63,3.63,0,0,1-.62-.22,2.65,2.65,0,0,1-.5-.3,1.15,1.15,0,0,1-.38-.49,1.85,1.85,0,0,1-.12-.69,1.49,1.49,0,0,1,.6-1.24,2.62,2.62,0,0,1,3,0,2,2,0,0,1,.65,1.47Z" transform="translate(-13.26 -13.27)"/><path class="cls-2" d="M113.25,36.87a1.73,1.73,0,0,1-1.51.75,1.6,1.6,0,0,1-1.08-.36,1.15,1.15,0,0,1-.42-.92c0-.73.48-1.21,1.45-1.43l1.53-.36v-.06a.82.82,0,0,0-.28-.65,1.09,1.09,0,0,0-.75-.25,1.13,1.13,0,0,0-.73.24.86.86,0,0,0-.34.59h-.78a1.54,1.54,0,0,1,.58-1.08,1.91,1.91,0,0,1,1.28-.44,1.82,1.82,0,0,1,1.34.46,1.66,1.66,0,0,1,.47,1.22V37.5h-.77v-.64Zm0-1.32v-.33l-1.33.31c-.56.13-.85.38-.85.74a.57.57,0,0,0,.22.49,1,1,0,0,0,.62.17,1.22,1.22,0,0,0,1-.42,1.41,1.41,0,0,0,.38-1Z" transform="translate(-13.26 -13.27)"/><path class="cls-2" d="M118.11,36.87a1.73,1.73,0,0,1-1.51.75,1.6,1.6,0,0,1-1.08-.36,1.15,1.15,0,0,1-.42-.92c0-.73.48-1.21,1.45-1.43l1.53-.36v-.06a.82.82,0,0,0-.28-.65,1.09,1.09,0,0,0-.75-.25,1.13,1.13,0,0,0-.73.24.86.86,0,0,0-.34.59h-.78a1.54,1.54,0,0,1,.58-1.08,1.91,1.91,0,0,1,1.28-.44,1.82,1.82,0,0,1,1.34.46,1.66,1.66,0,0,1,.47,1.22V37.5h-.77v-.64Zm0-1.32v-.33l-1.33.31c-.56.13-.85.38-.85.74a.57.57,0,0,0,.22.49,1,1,0,0,0,.62.17,1.22,1.22,0,0,0,1-.42,1.41,1.41,0,0,0,.38-1Z" transform="translate(-13.26 -13.27)"/><path class="cls-2" d="M120.25,37.51v-6.6h.82v6.6Z" transform="translate(-13.26 -13.27)"/><path class="cls-2" d="M125.87,36.1h.81a2.17,2.17,0,0,1-.82,1.11,2.33,2.33,0,0,1-1.39.41,2.25,2.25,0,0,1-1.68-.69,2.4,2.4,0,0,1,0-3.34,2.4,2.4,0,0,1,3.34,0,2.22,2.22,0,0,1,.65,1.63v.28h-3.87a1.56,1.56,0,0,0,.5,1,1.47,1.47,0,0,0,1,.4,1.6,1.6,0,0,0,.84-.22,1.44,1.44,0,0,0,.55-.6Zm-1.39-2.49a1.5,1.5,0,0,0-1,.33,1.58,1.58,0,0,0-.54.87h3a1.54,1.54,0,0,0-.54-.89,1.51,1.51,0,0,0-1-.32Z" transform="translate(-13.26 -13.27)"/><path class="cls-2" d="M83.64,26.8l-1.77-6.51h1.51l1.1,4.37,1.19-4.37H87l1.17,4.35,1.12-4.35h1.43L88.9,26.8H87.41l-1.12-3.92L85.15,26.8H83.64Z" transform="translate(-13.26 -13.27)"/><path class="cls-2" d="M94,25.28h1.3a2.15,2.15,0,0,1-.81,1.21,2.45,2.45,0,0,1-1.48.44,2.26,2.26,0,0,1-1.72-.71,2.46,2.46,0,0,1-.67-1.76,2.44,2.44,0,0,1,.69-1.76,2.44,2.44,0,0,1,3.43,0,2.41,2.41,0,0,1,.64,1.72v.43H91.86a1.32,1.32,0,0,0,.38.72,1,1,0,0,0,.74.27,1,1,0,0,0,1-.52Zm-1-2.17a1,1,0,0,0-.66.21,1.21,1.21,0,0,0-.4.56h2.12a1,1,0,0,0-1-.77Z" transform="translate(-13.26 -13.27)"/><path class="cls-2" d="M96.19,26.8V19.94h1.35v2.74A1.76,1.76,0,0,1,99,22a1.91,1.91,0,0,1,1.53.69,2.59,2.59,0,0,1,.59,1.77,2.65,2.65,0,0,1-.6,1.79,1.92,1.92,0,0,1-1.54.7,1.74,1.74,0,0,1-1.5-.76v.64Zm3.21-3.21a1,1,0,0,0-.81-.35,1,1,0,0,0-.8.35,1.38,1.38,0,0,0,0,1.72,1,1,0,0,0,.8.35,1,1,0,0,0,.81-.35,1.38,1.38,0,0,0,0-1.72Z" transform="translate(-13.26 -13.27)"/><path class="cls-2" d="M105.13,25.28h1.3a2.15,2.15,0,0,1-.81,1.21,2.45,2.45,0,0,1-1.48.44,2.26,2.26,0,0,1-1.72-.71,2.46,2.46,0,0,1-.67-1.76,2.44,2.44,0,0,1,.69-1.76,2.44,2.44,0,0,1,3.43,0,2.41,2.41,0,0,1,.64,1.72v.43H103a1.32,1.32,0,0,0,.38.72,1,1,0,0,0,.74.27,1,1,0,0,0,1-.52Zm-1-2.17a1,1,0,0,0-.66.21,1.21,1.21,0,0,0-.4.56h2.12a1,1,0,0,0-1-.77Z" transform="translate(-13.26 -13.27)"/><path class="cls-2" d="M108.77,24.67V26.8h-1.35V22.09h1.28v.81A1.38,1.38,0,0,1,110,22a.72.72,0,0,1,.27,0v1.32a2.06,2.06,0,0,0-.35-.05,1,1,0,0,0-.86.39,1.62,1.62,0,0,0-.28,1Z" transform="translate(-13.26 -13.27)"/><path class="cls-2" d="M114.07,25.28h1.3a2.15,2.15,0,0,1-.81,1.21,2.45,2.45,0,0,1-1.48.44,2.26,2.26,0,0,1-1.72-.71,2.46,2.46,0,0,1-.67-1.76,2.44,2.44,0,0,1,.69-1.76,2.44,2.44,0,0,1,3.43,0,2.41,2.41,0,0,1,.64,1.72v.43H112a1.32,1.32,0,0,0,.38.72,1,1,0,0,0,.74.27,1,1,0,0,0,1-.52Zm-1-2.17a1,1,0,0,0-.66.21,1.21,1.21,0,0,0-.4.56h2.12a1,1,0,0,0-1-.77Z" transform="translate(-13.26 -13.27)"/><path class="cls-2" d="M117,19.88a.83.83,0,0,1,.62.24.85.85,0,0,1,.23.6.82.82,0,0,1-.23.59.9.9,0,0,1-1.22,0,.84.84,0,0,1-.23-.59.86.86,0,0,1,.23-.6.79.79,0,0,1,.61-.24Zm-.66,6.92V22.09h1.35V26.8Z" transform="translate(-13.26 -13.27)"/><path class="cls-2" d="M122.26,26.8V21.63H120.6V20.29h4.74v1.34h-1.67V26.8Z" transform="translate(-13.26 -13.27)"/><path class="cls-2" d="M128.37,25.28h1.3a2.15,2.15,0,0,1-.81,1.21,2.45,2.45,0,0,1-1.48.44,2.26,2.26,0,0,1-1.72-.71,2.46,2.46,0,0,1-.67-1.76,2.44,2.44,0,0,1,.69-1.76,2.44,2.44,0,0,1,3.43,0,2.41,2.41,0,0,1,.64,1.72v.43h-3.48a1.32,1.32,0,0,0,.38.72,1,1,0,0,0,.74.27,1,1,0,0,0,1-.52Zm-1-2.17a1,1,0,0,0-.66.21,1.21,1.21,0,0,0-.4.56h2.12a1,1,0,0,0-1-.77Z" transform="translate(-13.26 -13.27)"/><path class="cls-2" d="M133.42,24.77V22.09h1.35V26.8H133.5v-.57a1.45,1.45,0,0,1-1.29.69,1.43,1.43,0,0,1-1.15-.49,1.84,1.84,0,0,1-.42-1.26V22.08H132v2.7a1.14,1.14,0,0,0,.17.63.61.61,0,0,0,.53.25.68.68,0,0,0,.57-.25,1.07,1.07,0,0,0,.19-.63Z" transform="translate(-13.26 -13.27)"/><path class="cls-2" d="M139.53,23.53h-1.37c0-.32-.17-.48-.52-.48s-.5.11-.5.33a.3.3,0,0,0,.12.26,1.34,1.34,0,0,0,.43.16l.36.08a3,3,0,0,1,1.16.49,1.17,1.17,0,0,1,.39,1,1.4,1.4,0,0,1-.54,1.18,2.25,2.25,0,0,1-1.39.41,2.45,2.45,0,0,1-1.48-.41,1.56,1.56,0,0,1-.6-1.25H137c0,.4.21.59.63.59s.57-.13.57-.4a.34.34,0,0,0-.12-.28.9.9,0,0,0-.39-.15l-.43-.09a2.67,2.67,0,0,1-1.1-.47,1.18,1.18,0,0,1-.4-1,1.31,1.31,0,0,1,.54-1.11,2.15,2.15,0,0,1,1.34-.4,2.08,2.08,0,0,1,1.31.39,1.53,1.53,0,0,1,.57,1.16Z" transform="translate(-13.26 -13.27)"/><path class="cls-2" d="M145,24h-1.34a1.07,1.07,0,0,0-.36-.56,1.11,1.11,0,0,0-1.45.13,1.24,1.24,0,0,0-.3.85,1.22,1.22,0,0,0,.3.84,1,1,0,0,0,.8.34,1,1,0,0,0,.65-.21,1.08,1.08,0,0,0,.37-.57H145a2.44,2.44,0,0,1-.76,1.49,2.24,2.24,0,0,1-1.58.59,2.36,2.36,0,0,1-1.77-.71,2.63,2.63,0,0,1,0-3.53,2.31,2.31,0,0,1,1.77-.71,2.25,2.25,0,0,1,1.58.58A2.4,2.4,0,0,1,145,24Z" transform="translate(-13.26 -13.27)"/><path class="cls-2" d="M145.78,26.8V19.94h1.35v2.63a1.52,1.52,0,0,1,1.27-.6,1.48,1.48,0,0,1,1.18.49,1.82,1.82,0,0,1,.43,1.26v3.09h-1.35V24.1c0-.55-.25-.82-.75-.82a.68.68,0,0,0-.59.25,1,1,0,0,0-.19.62v2.67h-1.35Z" transform="translate(-13.26 -13.27)"/><path class="cls-2" d="M154.22,25.28h1.3a2.15,2.15,0,0,1-.81,1.21,2.45,2.45,0,0,1-1.48.44,2.26,2.26,0,0,1-1.72-.71,2.46,2.46,0,0,1-.67-1.76,2.44,2.44,0,0,1,.69-1.76,2.44,2.44,0,0,1,3.43,0,2.41,2.41,0,0,1,.64,1.72v.43h-3.48a1.32,1.32,0,0,0,.38.72,1,1,0,0,0,.74.27,1,1,0,0,0,1-.52Zm-1-2.17a1,1,0,0,0-.66.21,1.21,1.21,0,0,0-.4.56h2.12a1,1,0,0,0-1-.77Z" transform="translate(-13.26 -13.27)"/><path class="cls-2" d="M157.84,24.67V26.8h-1.35V22.09h1.28v.81a1.38,1.38,0,0,1,1.28-.9.72.72,0,0,1,.27,0v1.32a2.06,2.06,0,0,0-.35-.05,1,1,0,0,0-.86.39,1.62,1.62,0,0,0-.28,1Z" transform="translate(-13.26 -13.27)"/></svg>