<svg width="264" height="49" viewBox="0 0 264 49" fill="none" xmlns="http://www.w3.org/2000/svg">
<path d="M77.708 18L73.352 2.534H77.752L80.15 12.038L82.812 2.534H86.552L89.17 12.016L91.634 2.534H95.748L91.348 18H87.036L84.572 9.728L82.042 18H77.708ZM103.341 14.304H107.081C106.743 15.5507 106.076 16.5333 105.079 17.252C104.081 17.956 102.827 18.308 101.317 18.308C99.5272 18.308 98.0826 17.7433 96.9826 16.614C95.8826 15.47 95.3326 14.062 95.3326 12.39C95.3326 10.7327 95.9046 9.332 97.0486 8.188C98.1926 7.044 99.6372 6.472 101.383 6.472C103.201 6.472 104.639 7.01467 105.695 8.1C106.751 9.18533 107.279 10.5567 107.279 12.214V13.358H99.0286C99.3219 14.59 100.099 15.206 101.361 15.206C102.285 15.206 102.945 14.9053 103.341 14.304ZM101.383 9.574C100.312 9.574 99.5859 10.0287 99.2046 10.938H103.561C103.209 10.0287 102.483 9.574 101.383 9.574ZM109.05 18V1.698H112.944V8.012C113.795 6.98533 114.902 6.472 116.266 6.472C117.806 6.472 119.053 7.022 120.006 8.122C120.959 9.20733 121.436 10.6153 121.436 12.346C121.436 14.0913 120.952 15.5213 119.984 16.636C119.031 17.7507 117.784 18.308 116.244 18.308C114.748 18.308 113.582 17.758 112.746 16.658V18H109.05ZM115.078 9.992C114.374 9.992 113.824 10.2193 113.428 10.674C113.032 11.1287 112.834 11.7007 112.834 12.39C112.834 13.0793 113.032 13.6513 113.428 14.106C113.824 14.5607 114.374 14.788 115.078 14.788C115.797 14.788 116.354 14.5607 116.75 14.106C117.146 13.6513 117.344 13.0793 117.344 12.39C117.344 11.7007 117.146 11.1287 116.75 10.674C116.354 10.2193 115.797 9.992 115.078 9.992ZM130.594 14.304H134.334C133.997 15.5507 133.329 16.5333 132.332 17.252C131.335 17.956 130.081 18.308 128.57 18.308C126.781 18.308 125.336 17.7433 124.236 16.614C123.136 15.47 122.586 14.062 122.586 12.39C122.586 10.7327 123.158 9.332 124.302 8.188C125.446 7.044 126.891 6.472 128.636 6.472C130.455 6.472 131.892 7.01467 132.948 8.1C134.004 9.18533 134.532 10.5567 134.532 12.214V13.358H126.282C126.575 14.59 127.353 15.206 128.614 15.206C129.538 15.206 130.198 14.9053 130.594 14.304ZM128.636 9.574C127.565 9.574 126.839 10.0287 126.458 10.938H130.814C130.462 10.0287 129.736 9.574 128.636 9.574ZM140.197 13.248V18H136.303V6.78H139.999V8.606C140.703 7.21267 141.715 6.516 143.035 6.516C143.343 6.516 143.585 6.538 143.761 6.582V10.256C143.468 10.168 143.145 10.124 142.793 10.124C141.855 10.124 141.187 10.4173 140.791 11.004C140.395 11.5907 140.197 12.3387 140.197 13.248ZM152.304 14.304H156.044C155.707 15.5507 155.04 16.5333 154.042 17.252C153.045 17.956 151.791 18.308 150.28 18.308C148.491 18.308 147.046 17.7433 145.946 16.614C144.846 15.47 144.296 14.062 144.296 12.39C144.296 10.7327 144.868 9.332 146.012 8.188C147.156 7.044 148.601 6.472 150.346 6.472C152.165 6.472 153.602 7.01467 154.658 8.1C155.714 9.18533 156.242 10.5567 156.242 12.214V13.358H147.992C148.286 14.59 149.063 15.206 150.324 15.206C151.248 15.206 151.908 14.9053 152.304 14.304ZM150.346 9.574C149.276 9.574 148.55 10.0287 148.168 10.938H152.524C152.172 10.0287 151.446 9.574 150.346 9.574ZM158.234 2.05C158.659 1.61 159.231 1.39 159.95 1.39C160.668 1.39 161.24 1.61 161.666 2.05C162.091 2.47533 162.304 3.01067 162.304 3.656C162.304 4.272 162.091 4.8 161.666 5.24C161.24 5.68 160.668 5.9 159.95 5.9C159.231 5.9 158.659 5.68733 158.234 5.262C157.823 4.822 157.618 4.28667 157.618 3.656C157.618 3.01067 157.823 2.47533 158.234 2.05ZM158.014 18V6.78H161.908V18H158.014ZM171.158 18V6.252H167.176V2.534H179.232V6.252H175.228V18H171.158ZM186.315 14.304H190.055C189.718 15.5507 189.05 16.5333 188.053 17.252C187.056 17.956 185.802 18.308 184.291 18.308C182.502 18.308 181.057 17.7433 179.957 16.614C178.857 15.47 178.307 14.062 178.307 12.39C178.307 10.7327 178.879 9.332 180.023 8.188C181.167 7.044 182.612 6.472 184.357 6.472C186.176 6.472 187.613 7.01467 188.669 8.1C189.725 9.18533 190.253 10.5567 190.253 12.214V13.358H182.003C182.296 14.59 183.074 15.206 184.335 15.206C185.259 15.206 185.919 14.9053 186.315 14.304ZM184.357 9.574C183.286 9.574 182.56 10.0287 182.179 10.938H186.535C186.183 10.0287 185.457 9.574 184.357 9.574ZM198.668 13.116V6.78H202.562V18H198.866V16.746C198.148 17.7873 197.106 18.308 195.742 18.308C194.569 18.308 193.638 17.934 192.948 17.186C192.274 16.4233 191.936 15.448 191.936 14.26V6.78H195.83V13.116C195.83 14.2453 196.285 14.81 197.194 14.81C198.177 14.81 198.668 14.2453 198.668 13.116ZM214.302 10.256H210.32C210.32 9.684 210.02 9.398 209.418 9.398C208.876 9.398 208.604 9.574 208.604 9.926C208.604 10.1313 208.678 10.2853 208.824 10.388C208.971 10.4907 209.257 10.586 209.682 10.674L210.408 10.828C211.743 11.1213 212.755 11.532 213.444 12.06C214.134 12.5733 214.478 13.3653 214.478 14.436C214.478 15.6827 214.024 16.6433 213.114 17.318C212.205 17.978 211.017 18.308 209.55 18.308C207.966 18.308 206.698 17.978 205.744 17.318C204.806 16.658 204.3 15.6533 204.226 14.304H208.318C208.318 15.0373 208.692 15.404 209.44 15.404C210.115 15.404 210.452 15.1913 210.452 14.766C210.452 14.546 210.372 14.3847 210.21 14.282C210.049 14.1647 209.778 14.062 209.396 13.974L208.56 13.798C207.754 13.622 207.086 13.424 206.558 13.204C206.045 12.984 205.59 12.6247 205.194 12.126C204.813 11.6127 204.622 10.9747 204.622 10.212C204.622 9.03867 205.084 8.122 206.008 7.462C206.932 6.802 208.091 6.472 209.484 6.472C210.848 6.472 211.963 6.79467 212.828 7.44C213.708 8.07067 214.2 9.00933 214.302 10.256ZM227.665 11.51H223.793C223.676 11.07 223.434 10.718 223.067 10.454C222.715 10.19 222.283 10.058 221.769 10.058C221.08 10.058 220.53 10.278 220.119 10.718C219.709 11.158 219.503 11.7153 219.503 12.39C219.503 13.0647 219.709 13.622 220.119 14.062C220.53 14.502 221.08 14.722 221.769 14.722C222.297 14.722 222.737 14.59 223.089 14.326C223.441 14.0473 223.683 13.688 223.815 13.248H227.665C227.489 14.7147 226.866 15.9247 225.795 16.878C224.725 17.8313 223.383 18.308 221.769 18.308C219.936 18.308 218.455 17.7433 217.325 16.614C216.196 15.47 215.631 14.0547 215.631 12.368C215.631 10.696 216.196 9.29533 217.325 8.166C218.455 7.03667 219.936 6.472 221.769 6.472C223.383 6.472 224.725 6.94867 225.795 7.902C226.866 8.85533 227.489 10.058 227.665 11.51ZM229.392 18V1.698H233.286V7.792C234.019 6.912 235.031 6.472 236.322 6.472C237.524 6.472 238.478 6.85333 239.182 7.616C239.886 8.364 240.238 9.332 240.238 10.52V18H236.344V11.664C236.344 10.5933 235.838 10.058 234.826 10.058C233.799 10.058 233.286 10.5933 233.286 11.664V18H229.392ZM249.904 14.304H253.644C253.307 15.5507 252.64 16.5333 251.642 17.252C250.645 17.956 249.391 18.308 247.88 18.308C246.091 18.308 244.646 17.7433 243.546 16.614C242.446 15.47 241.896 14.062 241.896 12.39C241.896 10.7327 242.468 9.332 243.612 8.188C244.756 7.044 246.201 6.472 247.946 6.472C249.765 6.472 251.202 7.01467 252.258 8.1C253.314 9.18533 253.842 10.5567 253.842 12.214V13.358H245.592C245.886 14.59 246.663 15.206 247.924 15.206C248.848 15.206 249.508 14.9053 249.904 14.304ZM247.946 9.574C246.876 9.574 246.15 10.0287 245.768 10.938H250.124C249.772 10.0287 249.046 9.574 247.946 9.574ZM259.508 13.248V18H255.614V6.78H259.31V8.606C260.014 7.21267 261.026 6.516 262.346 6.516C262.654 6.516 262.896 6.538 263.072 6.582V10.256C262.778 10.168 262.456 10.124 262.104 10.124C261.165 10.124 260.498 10.4173 260.102 11.004C259.706 11.5907 259.508 12.3387 259.508 13.248ZM75.046 42V26.534H77.158V33.068H84.506V26.534H86.596V42H84.506V35.07H77.158V42H75.046ZM96.9833 40.416C96.1179 41.648 94.8786 42.264 93.2653 42.264C92.1799 42.264 91.2853 41.9707 90.5813 41.384C89.8919 40.7973 89.5473 40.042 89.5473 39.118C89.5473 37.314 90.7426 36.1333 93.1333 35.576L96.9173 34.696V34.542C96.9173 33.882 96.6899 33.354 96.2353 32.958C95.7806 32.5473 95.1646 32.342 94.3873 32.342C93.6686 32.342 93.0673 32.54 92.5833 32.936C92.1139 33.3173 91.8353 33.8013 91.7473 34.388H89.8113C89.9139 33.332 90.3906 32.4447 91.2413 31.726C92.0919 30.9927 93.1479 30.626 94.4093 30.626C95.8466 30.626 96.9539 31.0073 97.7313 31.77C98.5086 32.5327 98.8973 33.5373 98.8973 34.784V42H96.9833V40.416ZM96.9173 37.16V36.346L93.6393 37.116C92.2459 37.4387 91.5493 38.0473 91.5493 38.942C91.5493 39.47 91.7326 39.8807 92.0993 40.174C92.4659 40.4527 92.9793 40.592 93.6393 40.592C94.5779 40.592 95.3553 40.2473 95.9713 39.558C96.6019 38.8687 96.9173 38.0693 96.9173 37.16ZM102.369 42V25.698H104.393V42H102.369ZM108.041 42V25.698H110.065V42H108.041ZM122.051 38.502H124.053C123.671 39.646 122.997 40.5627 122.029 41.252C121.061 41.9267 119.917 42.264 118.597 42.264C116.939 42.264 115.553 41.6993 114.439 40.57C113.339 39.4407 112.789 38.062 112.789 36.434C112.789 34.8207 113.346 33.4493 114.461 32.32C115.59 31.1907 116.976 30.626 118.619 30.626C120.276 30.626 121.64 31.176 122.711 32.276C123.796 33.3613 124.339 34.7033 124.339 36.302V37.006H114.791C114.908 38.0327 115.319 38.876 116.023 39.536C116.727 40.196 117.592 40.526 118.619 40.526C119.396 40.526 120.085 40.35 120.687 39.998C121.288 39.6313 121.743 39.1327 122.051 38.502ZM118.619 32.364C117.695 32.364 116.895 32.6427 116.221 33.2C115.561 33.7427 115.121 34.454 114.901 35.334H122.293C122.073 34.3953 121.625 33.6693 120.951 33.156C120.291 32.628 119.513 32.364 118.619 32.364ZM142.783 31.132H140.627C140.539 30.1053 140.202 29.35 139.615 28.866C139.029 28.3673 138.259 28.118 137.305 28.118C136.44 28.118 135.721 28.3233 135.149 28.734C134.577 29.13 134.291 29.68 134.291 30.384C134.291 31.088 134.489 31.6013 134.885 31.924C135.281 32.2467 135.89 32.5253 136.711 32.76L138.933 33.398C140.253 33.7793 141.273 34.278 141.991 34.894C142.71 35.4953 143.069 36.3973 143.069 37.6C143.069 39.096 142.571 40.2473 141.573 41.054C140.576 41.8607 139.271 42.264 137.657 42.264C135.912 42.264 134.504 41.8313 133.433 40.966C132.363 40.086 131.798 38.7587 131.739 36.984H133.873C133.932 38.1427 134.299 39.0007 134.973 39.558C135.648 40.1153 136.528 40.394 137.613 40.394C138.64 40.394 139.447 40.1667 140.033 39.712C140.635 39.2573 140.935 38.5973 140.935 37.732C140.935 37.3507 140.862 37.0207 140.715 36.742C140.569 36.4633 140.341 36.2287 140.033 36.038C139.74 35.8473 139.447 35.7007 139.153 35.598C138.875 35.4807 138.501 35.356 138.031 35.224L136.205 34.696C135.589 34.52 135.076 34.344 134.665 34.168C134.255 33.9773 133.837 33.728 133.411 33.42C133.001 33.0973 132.693 32.694 132.487 32.21C132.282 31.726 132.179 31.154 132.179 30.494C132.179 29.218 132.671 28.1987 133.653 27.436C134.636 26.6587 135.861 26.27 137.327 26.27C138.911 26.27 140.187 26.6807 141.155 27.502C142.138 28.3233 142.681 29.5333 142.783 31.132ZM152.692 40.416C151.827 41.648 150.588 42.264 148.974 42.264C147.889 42.264 146.994 41.9707 146.29 41.384C145.601 40.7973 145.256 40.042 145.256 39.118C145.256 37.314 146.452 36.1333 148.842 35.576L152.626 34.696V34.542C152.626 33.882 152.399 33.354 151.944 32.958C151.49 32.5473 150.874 32.342 150.096 32.342C149.378 32.342 148.776 32.54 148.292 32.936C147.823 33.3173 147.544 33.8013 147.456 34.388H145.52C145.623 33.332 146.1 32.4447 146.95 31.726C147.801 30.9927 148.857 30.626 150.118 30.626C151.556 30.626 152.663 31.0073 153.44 31.77C154.218 32.5327 154.606 33.5373 154.606 34.784V42H152.692V40.416ZM152.626 37.16V36.346L149.348 37.116C147.955 37.4387 147.258 38.0473 147.258 38.942C147.258 39.47 147.442 39.8807 147.808 40.174C148.175 40.4527 148.688 40.592 149.348 40.592C150.287 40.592 151.064 40.2473 151.68 39.558C152.311 38.8687 152.626 38.0693 152.626 37.16ZM164.788 40.416C163.923 41.648 162.683 42.264 161.07 42.264C159.985 42.264 159.09 41.9707 158.386 41.384C157.697 40.7973 157.352 40.042 157.352 39.118C157.352 37.314 158.547 36.1333 160.938 35.576L164.722 34.696V34.542C164.722 33.882 164.495 33.354 164.04 32.958C163.585 32.5473 162.969 32.342 162.192 32.342C161.473 32.342 160.872 32.54 160.388 32.936C159.919 33.3173 159.64 33.8013 159.552 34.388H157.616C157.719 33.332 158.195 32.4447 159.046 31.726C159.897 30.9927 160.953 30.626 162.214 30.626C163.651 30.626 164.759 31.0073 165.536 31.77C166.313 32.5327 166.702 33.5373 166.702 34.784V42H164.788V40.416ZM164.722 37.16V36.346L161.444 37.116C160.051 37.4387 159.354 38.0473 159.354 38.942C159.354 39.47 159.537 39.8807 159.904 40.174C160.271 40.4527 160.784 40.592 161.444 40.592C162.383 40.592 163.16 40.2473 163.776 39.558C164.407 38.8687 164.722 38.0693 164.722 37.16ZM170.174 42V25.698H172.198V42H170.174ZM184.184 38.502H186.186C185.804 39.646 185.13 40.5627 184.162 41.252C183.194 41.9267 182.05 42.264 180.73 42.264C179.072 42.264 177.686 41.6993 176.572 40.57C175.472 39.4407 174.922 38.062 174.922 36.434C174.922 34.8207 175.479 33.4493 176.594 32.32C177.723 31.1907 179.109 30.626 180.752 30.626C182.409 30.626 183.773 31.176 184.844 32.276C185.929 33.3613 186.472 34.7033 186.472 36.302V37.006H176.924C177.041 38.0327 177.452 38.876 178.156 39.536C178.86 40.196 179.725 40.526 180.752 40.526C181.529 40.526 182.218 40.35 182.82 39.998C183.421 39.6313 183.876 39.1327 184.184 38.502ZM180.752 32.364C179.828 32.364 179.028 32.6427 178.354 33.2C177.694 33.7427 177.254 34.454 177.034 35.334H184.426C184.206 34.3953 183.758 33.6693 183.084 33.156C182.424 32.628 181.646 32.364 180.752 32.364Z" fill="#EAE8E8"/>
<path d="M33.392 9.07297L32.0556 10.9121L41.6374 33.7723C43.1247 37.2685 41.5268 41.3108 38.0511 42.8452C36.3821 43.5645 34.4934 43.5796 32.8131 42.8872C31.1328 42.1947 29.8031 40.8533 29.1253 39.167L27.7766 35.9486L24.4417 40.3931C23.1339 42.6014 20.6858 43.8759 18.1267 43.6807C15.5676 43.4856 13.3411 41.8546 12.3833 39.4735L11.0346 36.2551L10.3664 34.6551L1.04203 12.408C-0.441182 8.91343 1.15605 4.87543 4.62837 3.34113C6.29737 2.62183 8.18614 2.60676 9.86641 3.29914C11.5468 3.99165 12.8765 5.33301 13.5541 7.01932L14.6331 9.60642L15.3197 11.2248L24.8954 34.085C25.23 34.8781 25.417 35.7258 25.4471 36.5862C25.9988 35.8566 26.5506 35.1209 27.1084 34.3914L17.7842 12.126C16.3009 8.63151 17.898 4.59348 21.3704 3.05909C23.0394 2.33979 24.9281 2.32471 26.6085 3.01716C28.2888 3.7096 29.6186 5.05103 30.2963 6.73731L31.3752 9.33051C32.3622 7.95728 33.5698 6.26539 34.5201 4.935C34.5936 4.83079 34.6611 4.73273 34.7346 4.64072L34.7837 4.57944C35.9916 2.99256 37.8595 2.04615 39.8535 2.01075C43.5642 1.86384 46.6954 4.74476 46.8573 8.45478C47.0193 12.1649 44.1511 15.3077 40.4418 15.4846C36.7323 15.6617 33.578 12.8062 33.386 9.09748L33.392 9.07297Z" fill="#EAE8E8"/>
</svg>
